<svg width="35" height="35" viewBox="0 0 35 35" fill="none" xmlns="http://www.w3.org/2000/svg">
<g clip-path="url(#clip0)">
<path fill-rule="evenodd" clip-rule="evenodd" d="M18.847 9.14502C18.8374 8.79426 18.6914 8.46102 18.4399 8.21631C18.1884 7.97159 17.8514 7.83472 17.5005 7.83472C17.1496 7.83472 16.8126 7.97159 16.5611 8.21631C16.3096 8.46102 16.1636 8.79426 16.154 9.14502V9.16101C16.1491 9.34092 16.1803 9.51997 16.2458 9.68762C16.3112 9.85527 16.4096 10.0081 16.5351 10.1371C16.6607 10.2661 16.8108 10.3686 16.9766 10.4386C17.1424 10.5086 17.3205 10.5447 17.5005 10.5447C17.6805 10.5447 17.8586 10.5086 18.0244 10.4386C18.1903 10.3686 18.3403 10.2661 18.4659 10.1371C18.5914 10.0081 18.6898 9.85527 18.7552 9.68762C18.8207 9.51997 18.8519 9.34092 18.847 9.16101V9.14502ZM18.847 25.855V14.717C18.8374 14.3662 18.6914 14.033 18.4399 13.7883C18.1884 13.5436 17.8514 13.4067 17.5005 13.4067C17.1496 13.4067 16.8126 13.5436 16.5611 13.7883C16.3096 14.033 16.1636 14.3662 16.154 14.717V25.855C16.1636 26.2057 16.3096 26.539 16.5611 26.7837C16.8126 27.0284 17.1496 27.1653 17.5005 27.1653C17.8514 27.1653 18.1884 27.0284 18.4399 26.7837C18.6914 26.539 18.8374 26.2057 18.847 25.855V25.855ZM17.5 0C14.0388 0 10.6554 1.02636 7.77753 2.94928C4.89967 4.8722 2.65665 7.60533 1.33212 10.803C0.00758171 14.0007 -0.338976 17.5194 0.336266 20.9141C1.01151 24.3087 2.67822 27.427 5.12564 29.8744C7.57306 32.3218 10.6913 33.9885 14.0859 34.6638C17.4806 35.339 20.9993 34.9924 24.197 33.6679C27.3947 32.3434 30.1278 30.1003 32.0507 27.2225C33.9737 24.3446 35 20.9612 35 17.5C35 12.8587 33.1563 8.4075 29.8744 5.12561C26.5925 1.84372 22.1413 0 17.5 0V0ZM17.5 33.007C14.433 33.007 11.4349 32.0975 8.88478 30.3936C6.33467 28.6897 4.3471 26.2678 3.17341 23.4343C1.99972 20.6007 1.69263 17.4828 2.29097 14.4747C2.88931 11.4667 4.36621 8.7036 6.5349 6.53491C8.7036 4.36622 11.4667 2.8893 14.4747 2.29095C17.4828 1.69261 20.6007 1.99971 23.4343 3.1734C26.2678 4.34709 28.6897 6.33465 30.3936 8.88477C32.0975 11.4349 33.007 14.433 33.007 17.5C33.007 21.6127 31.3732 25.557 28.4651 28.4651C25.557 31.3732 21.6127 33.007 17.5 33.007V33.007Z" fill="#0EC64E"/>
</g>
<defs>
<clipPath id="clip0">
<rect width="35" height="35" fill="white"/>
</clipPath>
</defs>
</svg>
