<svg width="35" height="35" viewBox="0 0 35 35" fill="none" xmlns="http://www.w3.org/2000/svg">
<g clip-path="url(#clip0)">
<path fill-rule="evenodd" clip-rule="evenodd" d="M14.1772 15.8005H18.2392C18.7439 15.7648 19.2163 15.539 19.5612 15.1688C19.9061 14.7986 20.0979 14.3114 20.0979 13.8054C20.0979 13.2995 19.9061 12.8123 19.5612 12.4421C19.2163 12.0719 18.7439 11.8462 18.2392 11.8105H14.1772C13.6725 11.8462 13.2001 12.0719 12.8552 12.4421C12.5103 12.8123 12.3186 13.2995 12.3186 13.8054C12.3186 14.3114 12.5103 14.7986 12.8552 15.1688C13.2001 15.539 13.6725 15.7648 14.1772 15.8005ZM14.1772 13.5805H18.2392C18.2989 13.5805 18.3561 13.6041 18.3983 13.6463C18.4405 13.6885 18.4642 13.7458 18.4642 13.8054C18.4642 13.8651 18.4405 13.9224 18.3983 13.9646C18.3561 14.0068 18.2989 14.0305 18.2392 14.0305H14.1772C14.1176 14.0305 14.0603 14.0068 14.0181 13.9646C13.9759 13.9224 13.9522 13.8651 13.9522 13.8054C13.9522 13.7458 13.9759 13.6885 14.0181 13.6463C14.0603 13.6041 14.1176 13.5805 14.1772 13.5805V13.5805ZM21.1932 18.4604H13.8082C13.2805 18.4604 12.7743 18.6701 12.4011 19.0433C12.0279 19.4165 11.8182 19.9226 11.8182 20.4504C11.8182 20.9782 12.0279 21.4844 12.4011 21.8576C12.7743 22.2308 13.2805 22.4404 13.8082 22.4404H21.1932C21.721 22.4404 22.2272 22.2308 22.6004 21.8576C22.9736 21.4844 23.1832 20.9782 23.1832 20.4504C23.1832 19.9226 22.9736 19.4165 22.6004 19.0433C22.2272 18.6701 21.721 18.4604 21.1932 18.4604V18.4604ZM21.1932 20.6805H13.8082C13.7486 20.6805 13.6913 20.6568 13.6491 20.6146C13.6069 20.5724 13.5832 20.5151 13.5832 20.4554C13.5832 20.3957 13.6069 20.3386 13.6491 20.2964C13.6913 20.2542 13.7486 20.2304 13.8082 20.2304H21.1932C21.2228 20.2304 21.252 20.2362 21.2793 20.2475C21.3066 20.2588 21.3314 20.2755 21.3523 20.2964C21.3732 20.3172 21.3898 20.3421 21.4011 20.3694C21.4124 20.3967 21.4182 20.4259 21.4182 20.4554C21.4182 20.485 21.4124 20.5143 21.4011 20.5416C21.3898 20.5689 21.3732 20.5937 21.3523 20.6146C21.3314 20.6355 21.3066 20.652 21.2793 20.6633C21.252 20.6746 21.2228 20.6805 21.1932 20.6805V20.6805ZM29.8752 5.12045C27.0121 2.25631 23.2444 0.473505 19.2141 0.0758357C15.1839 -0.321834 11.1404 0.690213 7.7727 2.93954C4.40498 5.18888 1.92135 8.53632 0.744991 12.4115C-0.431368 16.2867 -0.227674 20.45 1.32136 24.1919C2.8704 27.9337 5.66894 31.0228 9.24015 32.9326C12.8114 34.8424 16.9343 35.4548 20.9065 34.6656C24.8787 33.8764 28.4543 31.7344 31.0242 28.6045C33.5941 25.4745 34.9993 21.5503 35.0002 17.5005C35.0065 15.2006 34.5569 12.9224 33.6772 10.7974C32.7975 8.67243 31.5053 6.7429 29.8752 5.12045V5.12045ZM28.6262 28.6205C26.0523 31.1944 22.6655 32.7962 19.0429 33.1529C15.4202 33.5096 11.786 32.5991 8.75953 30.5765C5.73302 28.5539 3.50148 25.5445 2.44519 22.061C1.3889 18.5775 1.57322 14.8355 2.96674 11.4727C4.36026 8.10986 6.87675 5.33433 10.0874 3.61899C13.298 1.90365 17.0041 1.35468 20.5741 2.06564C24.1441 2.77661 27.3572 4.7035 29.6657 7.51797C31.9742 10.3324 33.2354 13.8603 33.2342 17.5005C33.2409 19.5668 32.837 21.6139 32.0459 23.5228C31.2549 25.4317 30.0925 27.1645 28.6262 28.6205V28.6205ZM25.6262 13.2904H23.5522V10.8504C23.5623 10.1659 23.3512 9.49653 22.9503 8.94162C22.5495 8.38671 21.9802 7.97599 21.3272 7.77048C20.6929 7.53228 20.0235 7.4005 19.3462 7.38046H15.6542C13.6581 7.38311 11.7444 8.17729 10.333 9.5889C8.92159 11.0005 8.12762 12.9143 8.12524 14.9105V20.0804C8.12762 22.0766 8.92159 23.9903 10.333 25.4019C11.7444 26.8136 13.6581 27.6078 15.6542 27.6104H19.3472C21.3434 27.6078 23.2571 26.8136 24.6685 25.4019C26.0799 23.9903 26.8739 22.0766 26.8762 20.0804V14.5405C26.8795 14.3753 26.8493 14.2111 26.7876 14.0578C26.7258 13.9046 26.6336 13.7653 26.5167 13.6486C26.3998 13.5318 26.2604 13.4399 26.107 13.3784C25.9537 13.3168 25.7895 13.2869 25.6242 13.2904H25.6262ZM25.1132 20.0804C25.1119 21.6093 24.5044 23.0752 23.4239 24.1568C22.3434 25.2385 20.8781 25.8475 19.3492 25.8504H15.6542C14.1253 25.8478 12.6598 25.2389 11.5793 24.1572C10.4987 23.0755 9.8913 21.6093 9.89024 20.0804V14.9105C9.89183 13.3826 10.4997 11.9178 11.5805 10.8379C12.6612 9.75788 14.1264 9.15101 15.6542 9.15048H19.3432C19.8127 9.16656 20.2766 9.25767 20.7172 9.42044C21.0321 9.50066 21.3101 9.68632 21.5047 9.9465C21.6994 10.2067 21.7991 10.5257 21.7872 10.8504V13.4405C21.7832 13.6544 21.8223 13.8669 21.9023 14.0654C21.9824 14.2639 22.1016 14.4442 22.253 14.5954C22.4044 14.7467 22.5847 14.8659 22.7832 14.9458C22.9817 15.0257 23.1943 15.0647 23.4082 15.0605H25.1082V20.0804H25.1132Z" fill="#0EC64E"/>
</g>
<defs>
<clipPath id="clip0">
<rect width="35" height="35" fill="white"/>
</clipPath>
</defs>
</svg>
