<svg width="35" height="39" viewBox="0 0 35 39" fill="none" xmlns="http://www.w3.org/2000/svg">
<g clip-path="url(#clip0)">
<path fill-rule="evenodd" clip-rule="evenodd" d="M30.2778 0.000199589H7.90575C6.66247 -0.011262 5.46548 0.471334 4.57782 1.34194C3.69015 2.21254 3.18442 3.39993 3.17175 4.64321V6.64919H0.947754C0.823258 6.6451 0.699212 6.66613 0.582993 6.71095C0.466773 6.75578 0.360753 6.82349 0.27124 6.91011C0.181728 6.99673 0.110554 7.10048 0.0619431 7.21517C0.0133324 7.32985 -0.0117188 7.45315 -0.0117188 7.57771C-0.0117188 7.70228 0.0133324 7.82558 0.0619431 7.94026C0.110554 8.05495 0.181728 8.15869 0.27124 8.24532C0.360753 8.33194 0.466773 8.39965 0.582993 8.44447C0.699212 8.4893 0.823258 8.51027 0.947754 8.50618H3.16276V14.6002H0.947754C0.823258 14.5961 0.699212 14.6171 0.582993 14.6619C0.466773 14.7068 0.360753 14.7745 0.27124 14.8611C0.181728 14.9477 0.110554 15.0515 0.0619431 15.1662C0.0133324 15.2808 -0.0117188 15.4041 -0.0117188 15.5287C-0.0117188 15.6533 0.0133324 15.7766 0.0619431 15.8913C0.110554 16.0059 0.181728 16.1097 0.27124 16.1963C0.360753 16.2829 0.466773 16.3506 0.582993 16.3955C0.699212 16.4403 0.823258 16.4613 0.947754 16.4572H3.16276V22.5492H0.947754C0.823258 22.5451 0.699212 22.5661 0.582993 22.6109C0.466773 22.6557 0.360753 22.7235 0.27124 22.8101C0.181728 22.8968 0.110554 23.0004 0.0619431 23.1151C0.0133324 23.2298 -0.0117188 23.3531 -0.0117188 23.4777C-0.0117188 23.6022 0.0133324 23.7255 0.0619431 23.8402C0.110554 23.9549 0.181728 24.0587 0.27124 24.1453C0.360753 24.2319 0.466773 24.2997 0.582993 24.3445C0.699212 24.3893 0.823258 24.4103 0.947754 24.4062H3.16276V30.4972H0.947754C0.823258 30.4931 0.699212 30.5141 0.582993 30.5589C0.466773 30.6037 0.360753 30.6715 0.27124 30.7581C0.181728 30.8448 0.110554 30.9485 0.0619431 31.0632C0.0133324 31.1779 -0.0117188 31.3011 -0.0117188 31.4257C-0.0117188 31.5502 0.0133324 31.6735 0.0619431 31.7882C0.110554 31.9029 0.181728 32.0067 0.27124 32.0933C0.360753 32.1799 0.466773 32.2477 0.582993 32.2925C0.699212 32.3373 0.823258 32.3583 0.947754 32.3542H3.16276V34.3602C3.17621 35.6036 3.68284 36.7909 4.57128 37.661C5.45973 38.531 6.65729 39.0127 7.90076 39.0002H30.2718C31.5143 39.0106 32.7101 38.5275 33.5967 37.657C34.4834 36.7865 34.9883 35.5997 35.0008 34.3572V4.64321C34.9957 4.02818 34.8694 3.42019 34.6293 2.85396C34.3891 2.28773 34.0398 1.77439 33.6012 1.34322C33.1626 0.912044 32.6433 0.571455 32.0731 0.34102C31.5028 0.110585 30.8928 -0.00520747 30.2778 0.000199589V0.000199589ZM33.1188 34.3572C33.1093 35.1027 32.8052 35.8141 32.2728 36.3361C31.7405 36.8581 31.0233 37.1483 30.2778 37.1432H7.90575C7.16032 37.1483 6.44318 36.8581 5.91103 36.3361C5.37888 35.814 5.07499 35.1026 5.06576 34.3572V32.3512H7.28075C7.40525 32.3553 7.5293 32.3343 7.64552 32.2894C7.76173 32.2446 7.86776 32.1769 7.95727 32.0903C8.04678 32.0037 8.11796 31.8999 8.16657 31.7852C8.21518 31.6705 8.24023 31.5472 8.24023 31.4227C8.24023 31.2981 8.21518 31.1748 8.16657 31.0601C8.11796 30.9455 8.04678 30.8417 7.95727 30.7551C7.86776 30.6685 7.76173 30.6007 7.64552 30.5559C7.5293 30.5111 7.40525 30.4901 7.28075 30.4942H5.06576V24.4002H7.28075C7.40525 24.4043 7.5293 24.3833 7.64552 24.3385C7.76173 24.2936 7.86776 24.2259 7.95727 24.1393C8.04678 24.0527 8.11796 23.9489 8.16657 23.8342C8.21518 23.7196 8.24023 23.5963 8.24023 23.4717C8.24023 23.3471 8.21518 23.2238 8.16657 23.1091C8.11796 22.9945 8.04678 22.8907 7.95727 22.8041C7.86776 22.7175 7.76173 22.6498 7.64552 22.6049C7.5293 22.5601 7.40525 22.5391 7.28075 22.5432H5.06576V16.4512H7.28075C7.40525 16.4553 7.5293 16.4343 7.64552 16.3895C7.76173 16.3447 7.86776 16.2769 7.95727 16.1903C8.04678 16.1036 8.11796 16 8.16657 15.8853C8.21518 15.7706 8.24023 15.6473 8.24023 15.5227C8.24023 15.3982 8.21518 15.2749 8.16657 15.1602C8.11796 15.0455 8.04678 14.9417 7.95727 14.8551C7.86776 14.7685 7.76173 14.7007 7.64552 14.6559C7.5293 14.6111 7.40525 14.5901 7.28075 14.5942H5.06576V8.50319H7.28075C7.40525 8.50728 7.5293 8.48631 7.64552 8.44148C7.76173 8.39666 7.86776 8.32889 7.95727 8.24226C8.04678 8.15564 8.11796 8.0519 8.16657 7.93721C8.21518 7.82252 8.24023 7.69929 8.24023 7.57472C8.24023 7.45016 8.21518 7.32686 8.16657 7.21217C8.11796 7.09749 8.04678 6.99374 7.95727 6.90712C7.86776 6.8205 7.76173 6.75272 7.64552 6.7079C7.5293 6.66308 7.40525 6.64211 7.28075 6.6462H5.06576V4.64021C5.07499 3.89482 5.37888 3.18336 5.91103 2.66133C6.44318 2.1393 7.16032 1.84913 7.90575 1.8542H30.2778C31.0233 1.84912 31.7405 2.13927 32.2728 2.66127C32.8052 3.18327 33.1093 3.89473 33.1188 4.64021V34.3542V34.3572ZM19.0878 19.2312C19.9736 19.2131 20.8344 18.9338 21.5623 18.4285C22.2901 17.9231 22.8525 17.2142 23.179 16.3905C23.5056 15.5668 23.5817 14.665 23.3978 13.7982C23.2139 12.9315 22.7782 12.1383 22.1454 11.5181C21.5125 10.898 20.7107 10.4784 19.8404 10.3121C18.9701 10.1458 18.07 10.2401 17.2531 10.5833C16.4362 10.9264 15.7387 11.5031 15.2482 12.241C14.7577 12.9789 14.4959 13.8452 14.4958 14.7312C14.5084 15.9367 14.9992 17.0879 15.8603 17.9317C16.7214 18.7755 17.8822 19.2429 19.0878 19.2312V19.2312ZM19.0878 12.0712C19.6089 12.0816 20.1154 12.2457 20.5436 12.5429C20.9719 12.84 21.3029 13.2569 21.4952 13.7414C21.6874 14.2259 21.7323 14.7564 21.6243 15.2663C21.5162 15.7762 21.26 16.243 20.8878 16.6079C20.5156 16.9728 20.0439 17.2196 19.532 17.3175C19.02 17.4154 18.4905 17.36 18.0099 17.1582C17.5293 16.9564 17.119 16.6172 16.8304 16.1831C16.5419 15.749 16.3879 15.2395 16.3878 14.7182C16.3912 14.3671 16.4637 14.0201 16.6012 13.697C16.7388 13.374 16.9386 13.0812 17.1894 12.8353C17.4401 12.5895 17.7368 12.3955 18.0625 12.2644C18.3883 12.1333 18.7366 12.0676 19.0878 12.0712ZM19.0878 20.7262C18.1553 20.7227 17.2315 20.9055 16.3707 21.264C15.5098 21.6225 14.7293 22.1493 14.0749 22.8136C13.4204 23.4779 12.9053 24.2662 12.5598 25.1323C12.2143 25.9985 12.0453 26.9249 12.0628 27.8572C12.0659 28.1057 12.1673 28.3429 12.3447 28.517C12.5221 28.691 12.7612 28.7878 13.0098 28.7862H25.1658C25.4143 28.7878 25.6534 28.691 25.8308 28.517C26.0082 28.3429 26.1096 28.1057 26.1128 27.8572C26.1302 26.9249 25.9612 25.9985 25.6157 25.1323C25.2702 24.2662 24.7551 23.4779 24.1007 22.8136C23.4462 22.1493 22.6657 21.6225 21.8049 21.264C20.944 20.9055 20.0202 20.7227 19.0878 20.7262V20.7262ZM14.0318 26.9262C14.2155 25.7169 14.8266 24.6134 15.7542 23.8161C16.6818 23.0187 17.8645 22.5802 19.0878 22.5802C20.311 22.5802 21.4937 23.0187 22.4213 23.8161C23.3489 24.6134 23.96 25.7169 24.1438 26.9262H14.0318Z" fill="#0EC64E"/>
</g>
<defs>
<clipPath id="clip0">
<rect width="35" height="39" fill="white"/>
</clipPath>
</defs>
</svg>
