<svg width="67" height="67" viewBox="0 0 67 67" fill="none" xmlns="http://www.w3.org/2000/svg">
<g clip-path="url(#clip0)">
<path d="M33.4987 21.0992C39.3157 21.0992 44.0482 16.3667 44.0482 10.5495C44.0482 4.73248 39.3157 0 33.4987 0C27.6817 0 22.9492 4.73248 22.9492 10.5495C22.9492 16.3667 27.6817 21.0992 33.4987 21.0992ZM33.4987 2.1383C38.1367 2.1383 41.9099 5.91154 41.9099 10.5495C41.9099 15.1875 38.1367 18.9609 33.4987 18.9609C28.8608 18.9609 25.0875 15.1875 25.0875 10.5495C25.0875 5.91154 28.8608 2.1383 33.4987 2.1383Z" fill="#0EC64E"/>
<path d="M33.4986 25.3756C42.025 25.3756 49.0258 32.0314 49.5776 40.4205H24.8684C24.278 40.4205 23.7993 40.899 23.7993 41.4896C23.7993 42.0802 24.278 42.5588 24.8684 42.5588H50.682C51.2724 42.5588 51.7511 42.0802 51.7511 41.4896C51.7511 31.4252 43.5631 23.2373 33.4986 23.2373C23.4341 23.2373 15.2461 31.4252 15.2461 41.4896C15.2461 42.0802 15.7248 42.5588 16.3152 42.5588H20.5918C21.1823 42.5588 21.661 42.0802 21.661 41.4896C21.661 40.899 21.1823 40.4205 20.5918 40.4205H17.4195C17.9714 32.0314 24.9724 25.3756 33.4986 25.3756Z" fill="#0EC64E"/>
<path d="M20.0158 53.8439L14.1507 52.8595L11.4022 47.5858C11.218 47.2324 10.8526 47.0107 10.454 47.0107C10.0555 47.0107 9.69009 47.2324 9.50591 47.5858L6.75734 52.8595L0.892278 53.8439C0.499259 53.9099 0.175521 54.1888 0.0523549 54.5679C-0.0708111 54.9468 0.027123 55.3629 0.306242 55.6471L4.47264 59.891L3.59637 65.7731C3.53764 66.1674 3.703 66.5615 4.02545 66.7957C4.34762 67.03 4.77372 67.0654 5.13038 66.8878L10.4539 64.2367L15.7774 66.8878C15.9282 66.9627 16.0914 66.9998 16.2538 66.9998C16.4758 66.9998 16.6963 66.9308 16.8823 66.7955C17.2048 66.5613 17.3701 66.1673 17.3114 65.773L16.4351 59.8908L20.6015 55.647C20.8807 55.3628 20.9786 54.9466 20.8554 54.5677C20.7325 54.1888 20.4088 53.9099 20.0158 53.8439ZM14.5365 58.7729C14.3017 59.0121 14.1925 59.3477 14.242 59.6794L14.8944 64.0591L10.9307 62.0851C10.6307 61.9356 10.2777 61.9356 9.97748 62.0851L6.01364 64.0591L6.66611 59.6794C6.71558 59.3477 6.60652 59.012 6.37159 58.7729L3.26935 55.6131L7.63633 54.8801C7.96705 54.8245 8.25258 54.6171 8.40754 54.3197L10.454 50.3929L12.5005 54.3197C12.6555 54.6171 12.941 54.8245 13.2717 54.8801L17.6387 55.6131L14.5365 58.7729Z" fill="#0EC64E"/>
<path d="M43.0627 53.8439L37.1976 52.8595L34.449 47.5858C34.2648 47.2324 33.8995 47.0107 33.5009 47.0107C33.1023 47.0107 32.737 47.2324 32.5528 47.5858L29.8042 52.8595L23.9392 53.8439C23.5461 53.9099 23.2224 54.1888 23.0992 54.5679C22.9761 54.9468 23.074 55.3629 23.3531 55.6471L27.5195 59.891L26.6434 65.7731C26.5847 66.1674 26.75 66.5615 27.0725 66.7957C27.3946 67.03 27.8207 67.0654 28.1774 66.8878L33.5009 64.2367L38.8244 66.8878C38.9752 66.9627 39.1385 66.9998 39.3008 66.9998C39.5228 66.9998 39.7433 66.9308 39.9293 66.7955C40.2518 66.5613 40.4172 66.1673 40.3584 65.773L39.4823 59.8908L43.6487 55.647C43.9278 55.3628 44.0258 54.9466 43.9026 54.5677C43.7794 54.1888 43.4557 53.9099 43.0627 53.8439ZM37.5833 58.7729C37.3486 59.0121 37.2394 59.3477 37.2888 59.6794L37.9412 64.0591L33.9775 62.0851C33.8274 62.0104 33.6641 61.9731 33.5009 61.9731C33.3377 61.9731 33.1743 62.0104 33.0244 62.0851L29.0607 64.0591L29.713 59.6794C29.7624 59.3477 29.6534 59.012 29.4185 58.7729L26.3162 55.6131L30.6832 54.8801C31.0139 54.8245 31.2995 54.6171 31.4544 54.3197L33.5009 50.3931L35.5474 54.3198C35.7024 54.6172 35.9879 54.8246 36.3186 54.8802L40.6856 55.6132L37.5833 58.7729Z" fill="#0EC64E"/>
<path d="M66.9456 54.5679C66.8224 54.1888 66.4989 53.9099 66.1057 53.8439L60.2406 52.8595L57.492 47.5858C57.3078 47.2324 56.9425 47.0107 56.5439 47.0107C56.1453 47.0107 55.78 47.2324 55.5958 47.5858L52.8472 52.8595L46.9821 53.8439C46.5891 53.9099 46.2654 54.1888 46.1422 54.5679C46.019 54.9468 46.117 55.3629 46.3961 55.6471L50.5625 59.891L49.6862 65.7731C49.6275 66.1674 49.7929 66.5615 50.1153 66.7957C50.4375 67.03 50.8636 67.0654 51.2202 66.8878L56.5438 64.2367L61.8673 66.8878C62.0181 66.9627 62.1813 66.9998 62.3437 66.9998C62.5657 66.9998 62.7862 66.9308 62.9722 66.7955C63.2947 66.5613 63.46 66.1673 63.4013 65.773L62.525 59.8908L66.6914 55.647C66.9708 55.3629 67.0688 54.9468 66.9456 54.5679ZM60.6265 58.7729C60.3917 59.0121 60.2825 59.3477 60.332 59.6794L60.9845 64.0591L57.0206 62.0851C56.8705 62.0104 56.7073 61.9731 56.544 61.9731C56.3807 61.9731 56.2175 62.0104 56.0675 62.0851L52.1038 64.0591L52.7563 59.6794C52.8057 59.3477 52.6967 59.012 52.4617 58.7729L49.3595 55.6131L53.7265 54.8801C54.0572 54.8245 54.3427 54.6171 54.4977 54.3197L56.5442 50.3929L58.5907 54.3197C58.7456 54.6171 59.0312 54.8245 59.3619 54.8801L63.7289 55.6131L60.6265 58.7729Z" fill="#0EC64E"/>
</g>
<defs>
<clipPath id="clip0">
<rect width="67" height="67" fill="white"/>
</clipPath>
</defs>
</svg>
