<svg width="35" height="29" viewBox="0 0 35 29" fill="none" xmlns="http://www.w3.org/2000/svg">
<g clip-path="url(#clip0)">
<path fill-rule="evenodd" clip-rule="evenodd" d="M4.42041 28.9998C4.2477 28.9999 4.0774 28.9593 3.9233 28.8813C3.7692 28.8033 3.63563 28.6901 3.53341 28.5508C0.987927 25.1042 -0.24958 20.8649 0.0418571 16.5901C0.333294 12.3153 2.1347 8.28316 5.12441 5.21384C6.7353 3.56323 8.66009 2.25153 10.7855 1.35596C12.9109 0.46038 15.194 -0.000976562 17.5004 -0.000976562C19.8068 -0.000976562 22.0899 0.46038 24.2153 1.35596C26.3407 2.25153 28.2655 3.56323 29.8764 5.21384C32.8655 8.28316 34.6664 12.3149 34.9576 16.5893C35.2489 20.8637 34.0115 25.1025 31.4664 28.5489C31.3796 28.6668 31.2702 28.7663 31.1444 28.8414C31.0187 28.9165 30.8792 28.9658 30.7342 28.9863C30.5892 29.0068 30.4415 28.9981 30.2999 28.9608C30.1582 28.9234 30.0255 28.8582 29.9094 28.7689C29.6742 28.5845 29.5201 28.3157 29.4798 28.0197C29.4395 27.7236 29.5161 27.4234 29.6934 27.1829C31.7076 24.4756 32.7898 21.1882 32.7774 17.8138C32.8102 15.7867 32.4393 13.7733 31.6862 11.891C30.9331 10.0086 29.813 8.29493 28.3911 6.84979C26.9691 5.40465 25.2738 4.25693 23.4039 3.47351C21.5339 2.69009 19.5268 2.28662 17.4994 2.28662C15.472 2.28662 13.4649 2.69009 11.595 3.47351C9.72504 4.25693 8.02971 5.40465 6.60777 6.84979C5.18582 8.29493 4.06568 10.0086 3.31262 11.891C2.55955 13.7733 2.18861 15.7867 2.22141 17.8138C2.20878 21.1881 3.29054 24.4755 5.30442 27.1829C5.48197 27.4233 5.55874 27.7235 5.5184 28.0197C5.47807 28.3159 5.3238 28.5846 5.08841 28.7689C4.89766 28.9181 4.66258 28.9993 4.42041 28.9998ZM17.5004 22.9239C16.2751 22.9059 15.1061 22.4066 14.246 21.5338C13.3859 20.6609 12.9037 19.4847 12.9037 18.2593C12.9037 17.0339 13.3859 15.8577 14.246 14.9849C15.1061 14.1121 16.2751 13.6128 17.5004 13.5948C18.2614 13.5955 19.01 13.7885 19.6764 14.1559L19.8584 14.2559L24.5324 9.49484C24.6348 9.39022 24.7571 9.30711 24.8921 9.25037C25.0271 9.19362 25.172 9.1644 25.3184 9.1644C25.4648 9.1644 25.6098 9.19362 25.7447 9.25037C25.8797 9.30711 26.002 9.39022 26.1044 9.49484C26.3126 9.70911 26.4291 9.99611 26.4291 10.2949C26.4291 10.5936 26.3126 10.8806 26.1044 11.0948L21.4304 15.8549L21.5304 16.0408C21.8925 16.7237 22.0816 17.4849 22.0814 18.2578C22.0915 19.4837 21.6149 20.6636 20.756 21.5384C19.8971 22.4132 18.7263 22.9115 17.5004 22.9239V22.9239ZM17.5004 15.8578C17.024 15.8495 16.556 15.9831 16.1558 16.2417C15.7556 16.5003 15.4415 16.8722 15.2534 17.3099C15.0653 17.7477 15.0117 18.2315 15.0995 18.6998C15.1873 19.1681 15.4125 19.5996 15.7464 19.9395C16.0804 20.2793 16.5079 20.5121 16.9745 20.6082C17.4412 20.7042 17.9259 20.6592 18.3669 20.4789C18.8079 20.2985 19.1852 19.991 19.4508 19.5955C19.7165 19.2 19.8583 18.7343 19.8584 18.2578C19.8629 17.6272 19.6173 17.0205 19.1753 16.5706C18.7333 16.1208 18.131 15.8644 17.5004 15.8578Z" fill="#0EC64E"/>
</g>
<defs>
<clipPath id="clip0">
<rect width="35" height="29" fill="white"/>
</clipPath>
</defs>
</svg>
