<svg width="37" height="32" viewBox="0 0 37 32" fill="none" xmlns="http://www.w3.org/2000/svg">
<g clip-path="url(#clip0)">
<path fill-rule="evenodd" clip-rule="evenodd" d="M12.48 6.91808C12.4899 6.13652 12.2672 5.36967 11.8401 4.71501C11.4131 4.06035 10.8011 3.54744 10.0818 3.2415C9.3626 2.93556 8.56861 2.85042 7.80084 2.99687C7.03307 3.14332 6.32619 3.51473 5.77006 4.06395C5.21393 4.61317 4.83366 5.31534 4.67761 6.08122C4.52156 6.8471 4.59678 7.64207 4.89369 8.3651C5.1906 9.08812 5.6958 9.70654 6.34507 10.1417C6.99434 10.5769 7.75834 10.8092 8.53996 10.8091C9.57806 10.8144 10.5759 10.4077 11.3145 9.67827C12.0532 8.94882 12.4723 7.95616 12.48 6.91808V6.91808ZM6.34995 6.91808C6.3442 6.48375 6.46774 6.05747 6.70486 5.69353C6.94197 5.32959 7.28196 5.0444 7.68159 4.87419C8.08122 4.70398 8.52244 4.65646 8.94915 4.73766C9.37586 4.81885 9.76879 5.0251 10.078 5.33019C10.3872 5.63528 10.5986 6.02544 10.6855 6.45104C10.7724 6.87663 10.7307 7.3184 10.5659 7.72026C10.401 8.12212 10.1204 8.46592 9.75961 8.70787C9.39887 8.94982 8.97432 9.07899 8.53996 9.07903C7.96342 9.08196 7.40923 8.85632 6.99875 8.45146C6.58827 8.04661 6.35497 7.49557 6.34995 6.91905V6.91808ZM36.61 12.251L27.81 6.45604V0.866074C27.8093 0.751353 27.786 0.637838 27.7414 0.532151C27.6967 0.426464 27.6317 0.330637 27.5499 0.250169C27.4681 0.1697 27.3713 0.106206 27.2649 0.0632791C27.1585 0.0203517 27.0447 -0.00114064 26.93 4.66382e-05H0.876953C0.646293 -0.00101812 0.424627 0.0894708 0.26059 0.251634C0.0965521 0.413796 0.00353962 0.63438 0.00195312 0.865037V23.565C0.00195312 23.565 0.00195312 23.5711 0.00195312 23.5751C0.00195312 23.5791 0.00195312 23.6051 0.00195312 23.6191C0.00195312 23.6331 0.00195312 23.6471 0.00195312 23.6611C0.00195312 23.6751 0.00195746 23.6881 0.00795746 23.7021C0.0139575 23.7161 0.00795361 23.73 0.0149536 23.745C0.0219536 23.76 0.0229547 23.776 0.0269547 23.792C0.0309547 23.808 0.0319573 23.814 0.0359573 23.824C0.0969865 24.0179 0.224934 24.1838 0.396957 24.292C0.538313 24.382 0.702382 24.4299 0.869957 24.43H11.37L24.964 31.886C25.1641 31.9959 25.3991 32.0239 25.6194 31.9642C25.8398 31.9046 26.0285 31.7618 26.146 31.566L36.873 13.41C36.9872 13.2204 37.0236 12.994 36.9745 12.7781C36.9255 12.5623 36.7949 12.3738 36.61 12.2521V12.251ZM1.75195 1.73106H26.052V19.9001L19.281 6.53008C19.2092 6.38999 19.1011 6.27181 18.9678 6.18804C18.8346 6.10426 18.6813 6.058 18.524 6.05406C18.3652 6.04585 18.2074 6.08222 18.0683 6.1591C17.9292 6.23599 17.8144 6.3503 17.737 6.48906L12.178 16.1L8.39095 12.3611C8.29755 12.27 8.18526 12.2006 8.06205 12.1577C7.93884 12.1148 7.80771 12.0996 7.67796 12.113C7.54857 12.1267 7.42383 12.1689 7.31279 12.2367C7.20175 12.3045 7.10719 12.3962 7.03596 12.5051L1.75195 20.62V1.73106ZM11.606 22.7001H2.47996L7.92095 14.342L11.752 18.1241C11.8475 18.2185 11.9634 18.2897 12.0908 18.3324C12.2182 18.3752 12.3536 18.3882 12.4868 18.3705C12.6199 18.3529 12.7473 18.3049 12.8591 18.2305C12.9709 18.1561 13.0643 18.0571 13.132 17.941L18.451 8.75206L25.512 22.7001H11.606ZM25.074 29.9631L14.983 24.4291H26.93C26.9634 24.4292 26.9968 24.4272 27.03 24.423H27.056C27.0786 24.423 27.1013 24.4191 27.124 24.4111L27.155 24.404L27.219 24.3851L27.243 24.376C27.269 24.366 27.2946 24.3551 27.32 24.3431C27.3433 24.3316 27.366 24.3189 27.388 24.305H27.397C27.417 24.292 27.436 24.2791 27.454 24.2651L27.469 24.2541C27.485 24.2419 27.5003 24.2289 27.515 24.2151L27.535 24.1971C27.5483 24.1848 27.561 24.1717 27.573 24.1581L27.594 24.136C27.606 24.122 27.617 24.1071 27.628 24.0931L27.645 24.071C27.657 24.053 27.669 24.0351 27.68 24.0171L27.689 24.0021C27.702 23.9801 27.713 23.9571 27.724 23.9341V23.928C27.735 23.903 27.745 23.8771 27.754 23.8511C27.762 23.8271 27.769 23.803 27.774 23.779V23.7651C27.774 23.7481 27.781 23.73 27.784 23.712C27.787 23.694 27.784 23.6881 27.79 23.6761C27.796 23.6641 27.79 23.653 27.79 23.641C27.79 23.629 27.79 23.6041 27.79 23.5851C27.79 23.5851 27.79 23.585 27.79 23.579V8.53307L34.939 13.238L25.074 29.9631Z" fill="#0EC64E"/>
</g>
<defs>
<clipPath id="clip0">
<rect width="37" height="32" fill="white"/>
</clipPath>
</defs>
</svg>
