<svg width="34" height="29" viewBox="0 0 34 29" fill="none" xmlns="http://www.w3.org/2000/svg">
<g clip-path="url(#clip0)">
<path fill-rule="evenodd" clip-rule="evenodd" d="M33.0178 3.8604H23.9818V2.89342C23.9689 2.11302 23.6471 1.36957 23.087 0.825978C22.5269 0.282386 21.7742 -0.017001 20.9938 -0.00657235H13.0268C12.2463 -0.017001 11.4936 0.282386 10.9335 0.825978C10.3734 1.36957 10.0517 2.11302 10.0388 2.89342V3.8604H1.00977C0.748953 3.85612 0.497108 3.95559 0.309593 4.13692C0.122078 4.31825 0.014237 4.5666 0.00976562 4.82741V26.1064C0.0226647 26.8868 0.344408 27.6303 0.904495 28.1739C1.46458 28.7175 2.21733 29.0169 2.99776 29.0064H31.0198C31.8002 29.0169 32.5529 28.7175 33.113 28.1739C33.6731 27.6303 33.9949 26.8868 34.0078 26.1064V4.84441C34.012 4.71354 33.9892 4.5832 33.9409 4.46151C33.8925 4.33982 33.8197 4.22941 33.7268 4.1371C33.6339 4.0448 33.523 3.97258 33.4011 3.92498C33.2791 3.87738 33.1486 3.85539 33.0178 3.8604V3.8604ZM12.0308 2.89342C12.0327 2.76416 12.0601 2.63655 12.1115 2.5179C12.1628 2.39925 12.2371 2.2919 12.33 2.20198C12.4228 2.11207 12.5326 2.04134 12.6528 1.99389C12.7731 1.94643 12.9015 1.92315 13.0308 1.9254H20.9978C21.127 1.92315 21.2555 1.94643 21.3757 1.99389C21.496 2.04134 21.6057 2.11207 21.6986 2.20198C21.7915 2.2919 21.8657 2.39925 21.917 2.5179C21.9684 2.63655 21.9958 2.76416 21.9978 2.89342V3.8604H12.0318V2.89342H12.0308ZM31.6308 5.79342L28.5378 14.8044C28.4691 14.9994 28.3412 15.1681 28.172 15.2868C28.0027 15.4055 27.8005 15.4683 27.5938 15.4664H21.9938V14.5004C21.9918 14.3712 21.9644 14.2436 21.913 14.125C21.8617 14.0065 21.7874 13.8992 21.6945 13.8093C21.6016 13.7195 21.4919 13.6489 21.3716 13.6015C21.2514 13.5542 21.123 13.531 20.9938 13.5334H13.0268C12.8976 13.531 12.7691 13.5542 12.6489 13.6015C12.5286 13.6489 12.4189 13.7195 12.326 13.8093C12.2331 13.8992 12.1589 14.0065 12.1075 14.125C12.0562 14.2436 12.0287 14.3712 12.0268 14.5004V15.4684H6.42677C6.21989 15.4704 6.01757 15.4076 5.84812 15.2889C5.67867 15.1702 5.55058 15.0015 5.48177 14.8064L2.38876 5.79543H31.6298L31.6308 5.79342ZM19.9998 15.4674V17.4004H14.0228V15.4664H19.9998V15.4674ZM32.0168 26.1064C32.0147 26.2356 31.9872 26.3631 31.9358 26.4816C31.8844 26.6001 31.8101 26.7074 31.7172 26.7972C31.6243 26.887 31.5147 26.9576 31.3945 27.005C31.2743 27.0524 31.1459 27.0757 31.0168 27.0734H2.99976C2.87055 27.0758 2.74214 27.0526 2.62189 27.0053C2.50164 26.958 2.39192 26.8873 2.29902 26.7975C2.20612 26.7077 2.13186 26.6004 2.08051 26.4818C2.02915 26.3632 2.00172 26.2356 1.99976 26.1064V10.7874L3.58876 15.4174C3.79561 16.0021 4.17992 16.5076 4.688 16.8633C5.19609 17.219 5.80257 17.4071 6.42276 17.4014H12.0228V18.3684C12.0246 18.4977 12.0519 18.6254 12.1032 18.7441C12.1545 18.8628 12.2288 18.9702 12.3217 19.0602C12.4146 19.1501 12.5243 19.2208 12.6447 19.2682C12.765 19.3156 12.8935 19.3388 13.0228 19.3364H20.9898C21.1191 19.3388 21.2476 19.3156 21.3679 19.2682C21.4882 19.2208 21.5979 19.1501 21.6909 19.0602C21.7838 18.9702 21.858 18.8628 21.9093 18.7441C21.9606 18.6254 21.9879 18.4977 21.9898 18.3684V17.4004H27.5898C28.2099 17.4061 28.8164 17.218 29.3245 16.8623C29.8326 16.5066 30.2169 16.0011 30.4238 15.4164L32.0128 10.7864V26.1054L32.0168 26.1064Z" fill="#0EC64E"/>
</g>
<defs>
<clipPath id="clip0">
<rect width="34" height="29" fill="white"/>
</clipPath>
</defs>
</svg>
