<svg width="35" height="43" viewBox="0 0 35 43" fill="none" xmlns="http://www.w3.org/2000/svg">
<g clip-path="url(#clip0)">
<path fill-rule="evenodd" clip-rule="evenodd" d="M32.8217 19.757L28.9467 8.60998C28.7358 8.01828 28.3172 7.52329 27.7687 7.21697C27.2112 6.9059 26.5623 6.79977 25.9347 6.91699L21.7027 7.71697C21.8936 7.02956 22.1769 6.37126 22.5447 5.76C23.4123 4.2748 24.7616 3.13087 26.3687 2.518C27.0256 2.25141 27.7327 2.13116 28.4408 2.1657C29.1489 2.20024 29.8409 2.38875 30.4687 2.71801C32.9817 4.13301 33.5187 7.79598 31.6587 10.891C31.5854 11.0138 31.5375 11.1501 31.5179 11.2918C31.4983 11.4335 31.5075 11.5778 31.5448 11.7159C31.5821 11.854 31.6468 11.9831 31.7351 12.0957C31.8234 12.2083 31.9335 12.3018 32.0587 12.371V12.371C32.3149 12.515 32.6168 12.5546 32.9014 12.4816C33.186 12.4085 33.4315 12.2285 33.5867 11.979C36.0657 7.855 35.1647 2.86098 31.5867 0.846978C30.6714 0.351935 29.6589 0.0632212 28.6201 0.00103082C27.5814 -0.0611595 26.5416 0.104695 25.5737 0.486993C23.4875 1.27138 21.733 2.74704 20.6027 4.66802C19.9525 5.74167 19.5133 6.92962 19.3087 8.16802L14.0087 9.16802C13.3587 9.28825 12.7412 9.54401 12.1966 9.91876C11.6519 10.2935 11.1923 10.7788 10.8477 11.343L0.763739 28.133C0.395663 28.7501 0.155893 29.4351 0.0587757 30.1471C-0.0383414 30.859 0.00919418 31.5832 0.198539 32.2764C0.387883 32.9695 0.715138 33.6173 1.16072 34.181C1.6063 34.7447 2.16105 35.2127 2.79174 35.557L14.6707 42.247C15.9555 42.9721 17.4706 43.1726 18.8998 42.8068C20.3289 42.441 21.5614 41.5371 22.3397 40.284L32.4327 23.491C32.767 22.935 32.975 22.3124 33.0422 21.6672C33.1095 21.022 33.0342 20.3699 32.8217 19.757V19.757ZM20.4067 39.2C19.9395 39.9545 19.1983 40.4989 18.3385 40.719C17.4788 40.9392 16.5672 40.8181 15.7947 40.381L3.90774 33.686C3.52808 33.4794 3.1941 33.1982 2.92586 32.8593C2.65761 32.5204 2.46064 32.1308 2.34679 31.7138C2.23293 31.2968 2.20453 30.8612 2.26329 30.433C2.32205 30.0048 2.46677 29.5928 2.68874 29.222L12.7807 12.43C12.9612 12.1338 13.202 11.879 13.4875 11.6821C13.773 11.4851 14.0968 11.3505 14.4377 11.287L19.2377 10.381L19.3027 10.918C19.4443 11.9295 19.8153 12.8951 20.3872 13.7413C20.9592 14.5874 21.717 15.2916 22.6027 15.8V15.8C22.8589 15.9444 23.1609 15.9843 23.4457 15.9115C23.7306 15.8386 23.9764 15.6586 24.1317 15.409C24.205 15.2861 24.2528 15.1499 24.2723 15.0082C24.2918 14.8665 24.2826 14.7223 24.2453 14.5843C24.208 14.4462 24.1433 14.317 24.0551 14.2045C23.9668 14.0919 23.8569 13.9982 23.7317 13.929C23.1319 13.576 22.6208 13.0903 22.2376 12.5093C21.8544 11.9283 21.6092 11.2674 21.5207 10.577C21.4927 10.377 21.4637 10.169 21.4477 9.96197L26.3597 9.03497C26.457 9.01475 26.5584 9.0308 26.6447 9.08001C26.7307 9.12714 26.7957 9.20496 26.8267 9.29797L30.7017 20.444C30.8127 20.7658 30.8516 21.108 30.8159 21.4465C30.7801 21.785 30.6705 22.1115 30.4947 22.403L20.3997 39.191L20.4067 39.2ZM16.5717 22.576L17.3027 21.36C17.376 21.2371 17.4238 21.1008 17.4433 20.9592C17.4628 20.8175 17.4536 20.6733 17.4163 20.5353C17.379 20.3972 17.3143 20.268 17.226 20.1554C17.1378 20.0429 17.0279 19.9492 16.9027 19.88C16.6464 19.7359 16.3444 19.6963 16.0596 19.7693C15.7748 19.8424 15.5291 20.0224 15.3737 20.272L14.6427 21.488L12.8797 24.452L12.1347 25.692C12.0615 25.8148 12.0138 25.951 11.9943 26.0926C11.9748 26.2342 11.984 26.3783 12.0213 26.5163C12.0586 26.6543 12.1233 26.7833 12.2115 26.8958C12.2997 27.0083 12.4096 27.1019 12.5347 27.171C12.7909 27.3154 13.0929 27.3553 13.3777 27.2825C13.6626 27.2096 13.9084 27.0297 14.0637 26.78L14.8087 25.541L16.5717 22.576ZM19.3087 28.21L20.0397 26.994C20.113 26.8712 20.1608 26.7348 20.1803 26.5931C20.1998 26.4515 20.1906 26.3073 20.1533 26.1692C20.116 26.0312 20.0513 25.902 19.963 25.7895C19.8748 25.6769 19.7649 25.5832 19.6397 25.514C19.3834 25.3699 19.0814 25.3303 18.7966 25.4033C18.5118 25.4763 18.2661 25.6564 18.1107 25.906L17.3797 27.122L15.6167 30.086L14.8717 31.326C14.7985 31.4487 14.7508 31.585 14.7313 31.7266C14.7118 31.8682 14.721 32.0123 14.7583 32.1503C14.7956 32.2882 14.8603 32.4173 14.9485 32.5298C15.0367 32.6423 15.1466 32.7359 15.2717 32.805C15.5279 32.9494 15.8299 32.9893 16.1147 32.9165C16.3996 32.8436 16.6454 32.6636 16.8007 32.414L17.5457 31.175L19.3087 28.21Z" fill="#0EC64E"/>
</g>
<defs>
<clipPath id="clip0">
<rect width="35" height="43" fill="white"/>
</clipPath>
</defs>
</svg>
