<svg width="35" height="35" viewBox="0 0 35 35" fill="none" xmlns="http://www.w3.org/2000/svg">
<g clip-path="url(#clip0)">
<path fill-rule="evenodd" clip-rule="evenodd" d="M33.9639 13.4611H32.1699C31.8351 12.2353 31.3469 11.0567 30.7169 9.95312L31.9789 8.69012C32.171 8.49652 32.2788 8.23483 32.2789 7.9621C32.2779 7.68925 32.1702 7.42761 31.9789 7.23309L27.7449 3.00012C27.5517 2.80716 27.2899 2.69879 27.0169 2.69879C26.7438 2.69879 26.482 2.80716 26.2889 3.00012L25.0289 4.26111C23.9256 3.63038 22.7469 3.14185 21.5209 2.80713V1.02411C21.5206 0.751017 21.412 0.489187 21.2189 0.296082C21.0258 0.102976 20.764 -0.00559462 20.4909 -0.00585938H14.5009C14.2278 -0.00559462 13.9659 0.102976 13.7728 0.296082C13.5797 0.489187 13.4711 0.751017 13.4709 1.02411V2.80713C12.2449 3.14195 11.0662 3.63047 9.96286 4.26111L8.70686 3.00012C8.51373 2.80716 8.25188 2.69879 7.97886 2.69879C7.70584 2.69879 7.444 2.80716 7.25086 3.00012L3.01786 7.23212C2.92207 7.3275 2.84621 7.44099 2.79471 7.56598C2.7432 7.69096 2.71708 7.82497 2.71786 7.96014C2.71805 8.23286 2.82585 8.49444 3.01786 8.68811L4.27986 9.95111C3.64951 11.0546 3.16098 12.2332 2.82586 13.4591H1.03587C0.762866 13.4591 0.501026 13.5675 0.307892 13.7604C0.114758 13.9534 0.00612442 14.2151 0.00585938 14.4881V20.4741C0.00593473 20.7469 0.113765 21.0085 0.305862 21.2021C0.401343 21.2978 0.514847 21.3736 0.639809 21.425C0.76477 21.4765 0.898705 21.5028 1.03386 21.5021H2.82686C3.16197 22.728 3.65051 23.9066 4.28086 25.0101L3.01186 26.2802C2.9162 26.3757 2.8403 26.4892 2.78852 26.6141C2.73674 26.739 2.71009 26.8729 2.71009 27.0081C2.71009 27.1433 2.73674 27.2772 2.78852 27.4022C2.8403 27.5271 2.9162 27.6406 3.01186 27.7361L7.24186 31.9701C7.33743 32.0658 7.45091 32.1417 7.57583 32.1935C7.70074 32.2453 7.83464 32.2719 7.96986 32.2719C8.10509 32.2719 8.23898 32.2453 8.3639 32.1935C8.48881 32.1417 8.60229 32.0658 8.69786 31.9701L9.96886 30.6991C11.0722 31.3297 12.2509 31.8183 13.4769 32.1531V33.9531C13.4771 34.2261 13.5858 34.4878 13.7789 34.6808C13.972 34.8737 14.2339 34.9821 14.5069 34.9821H20.4919C20.7649 34.9821 21.0267 34.8737 21.2198 34.6808C21.413 34.4878 21.5216 34.2261 21.5219 33.9531V32.1531C22.7479 31.8184 23.9266 31.3298 25.0299 30.6991L26.3009 31.9701C26.3963 32.0658 26.5098 32.1416 26.6348 32.1931C26.7598 32.2445 26.8937 32.2708 27.0289 32.2701C27.3016 32.27 27.5632 32.1621 27.7569 31.9701L31.9869 27.7361C32.1796 27.5429 32.2878 27.2811 32.2878 27.0081C32.2878 26.7352 32.1796 26.4734 31.9869 26.2802L30.7179 25.0101C31.3478 23.9066 31.836 22.7279 32.1709 21.5021H33.9649C34.2378 21.5016 34.4994 21.3928 34.6922 21.1998C34.8851 21.0067 34.9936 20.745 34.9939 20.4721V14.4901C34.9933 14.2172 34.8846 13.9556 34.6915 13.7628C34.4985 13.5699 34.2368 13.4614 33.9639 13.4611V13.4611ZM32.9339 19.4461H31.3619C31.1265 19.447 30.8984 19.5282 30.7153 19.6762C30.5323 19.8242 30.4051 20.0302 30.3549 20.2601C30.0241 21.8081 29.4142 23.2828 28.5549 24.6121C28.428 24.8103 28.3725 25.0457 28.3974 25.2797C28.4223 25.5136 28.5262 25.7321 28.6919 25.8991L29.8059 27.0121L27.0309 29.7891L25.9169 28.6751C25.7504 28.5084 25.5318 28.4039 25.2976 28.379C25.0634 28.354 24.8277 28.4102 24.6299 28.5381C23.3007 29.3972 21.8264 30.0071 20.2789 30.3381C20.0491 30.3886 19.8433 30.5158 19.6955 30.6989C19.5478 30.8819 19.4667 31.1098 19.4659 31.3451V32.9241H15.5349V31.3451C15.534 31.1098 15.453 30.8819 15.3052 30.6989C15.1574 30.5158 14.9516 30.3886 14.7219 30.3381C13.1742 30.0076 11.6997 29.3977 10.3709 28.5381C10.1728 28.4109 9.93729 28.3552 9.70325 28.3801C9.4692 28.405 9.25068 28.5091 9.08386 28.6751L7.96986 29.7901L5.19486 27.0121L6.30786 25.8991C6.47357 25.7321 6.57744 25.5136 6.60235 25.2797C6.62725 25.0457 6.5717 24.8103 6.44486 24.6121C5.5855 23.2828 4.97554 21.8081 4.64486 20.2601C4.5946 20.0302 4.46745 19.8242 4.28438 19.6762C4.10131 19.5282 3.87326 19.447 3.63786 19.4461H2.06286V15.5201H3.63287C3.86813 15.5193 4.09606 15.4382 4.27911 15.2904C4.46216 15.1426 4.5894 14.9369 4.63986 14.7071C4.97041 13.1591 5.58039 11.6843 6.43987 10.3551C6.56671 10.157 6.62225 9.92151 6.59735 9.68756C6.57245 9.45361 6.46858 9.23512 6.30286 9.06812L5.20086 7.9621L7.97786 5.18713L9.07787 6.29211C9.2443 6.45881 9.46289 6.56338 9.69713 6.58832C9.93137 6.61325 10.1671 6.55706 10.3649 6.42914C11.6936 5.56949 13.1681 4.95952 14.7159 4.62915C14.9456 4.57852 15.1512 4.4512 15.299 4.26819C15.4467 4.08517 15.5278 3.85734 15.5289 3.62213V2.05914H19.4609V3.62109C19.4616 3.8564 19.5425 4.08449 19.6903 4.26758C19.8381 4.45067 20.044 4.57782 20.2739 4.62811C21.8214 4.95899 23.2958 5.56893 24.6249 6.4281C24.8227 6.55603 25.0584 6.61221 25.2926 6.58728C25.5268 6.56235 25.7454 6.45784 25.9119 6.29114L27.0119 5.1861L29.7889 7.96112L28.6829 9.06714C28.5171 9.23415 28.4133 9.45263 28.3884 9.68658C28.3635 9.92053 28.419 10.156 28.5459 10.3541C29.4049 11.6836 30.0149 13.1583 30.3459 14.7061C30.3962 14.936 30.5233 15.1419 30.7064 15.2897C30.8895 15.4375 31.1176 15.5184 31.3529 15.5191H32.9249V19.4451L32.9339 19.4461ZM17.5009 9.50909C15.9219 9.5089 14.3784 9.97694 13.0655 10.854C11.7525 11.7311 10.7292 12.9778 10.1248 14.4365C9.52045 15.8951 9.36221 17.5003 9.67013 19.0489C9.97804 20.5975 10.7383 22.0201 11.8547 23.1366C12.9711 24.2531 14.3935 25.0135 15.9421 25.3217C17.4907 25.6298 19.0958 25.4717 20.5546 24.8676C22.0134 24.2634 23.2602 23.2402 24.1374 21.9274C25.0146 20.6145 25.4829 19.0711 25.4829 17.4921C25.4807 15.3757 24.6391 13.3466 23.1427 11.85C21.6463 10.3534 19.6173 9.51148 17.5009 9.50909V9.50909ZM17.5009 23.4151C16.3294 23.4153 15.1841 23.0681 14.2099 22.4174C13.2358 21.7667 12.4765 20.8417 12.028 19.7595C11.5796 18.6772 11.4621 17.4862 11.6906 16.3372C11.919 15.1882 12.483 14.1327 13.3113 13.3043C14.1396 12.4758 15.195 11.9116 16.344 11.683C17.4929 11.4544 18.6839 11.5716 19.7663 12.0199C20.8486 12.4682 21.7737 13.2273 22.4246 14.2014C23.0755 15.1754 23.4229 16.3206 23.4229 17.4921C23.4213 19.0623 22.7969 20.5678 21.6867 21.6782C20.5764 22.7886 19.0711 23.4132 17.5009 23.4151V23.4151Z" fill="#0EC64E"/>
</g>
<defs>
<clipPath id="clip0">
<rect width="35" height="35" fill="white"/>
</clipPath>
</defs>
</svg>
