<svg width="33" height="34" viewBox="0 0 33 34" fill="none" xmlns="http://www.w3.org/2000/svg">
<g clip-path="url(#clip0)">
<path fill-rule="evenodd" clip-rule="evenodd" d="M17.4907 16.5704V0.960449C17.4907 0.707167 17.3901 0.464253 17.211 0.285156C17.0319 0.106059 16.789 0.00549316 16.5357 0.00549316C16.2824 0.00549316 16.0395 0.106059 15.8604 0.285156C15.6813 0.464253 15.5807 0.707167 15.5807 0.960449V16.5704C14.4826 16.7933 13.4953 17.389 12.7861 18.2565C12.077 19.124 11.6895 20.21 11.6895 21.3304C11.6895 22.4509 12.077 23.537 12.7861 24.4045C13.4953 25.2721 14.4826 25.8676 15.5807 26.0905V33.0405C15.5807 33.2938 15.6813 33.5367 15.8604 33.7158C16.0395 33.8949 16.2824 33.9955 16.5357 33.9955C16.789 33.9955 17.0319 33.8949 17.211 33.7158C17.3901 33.5367 17.4907 33.2938 17.4907 33.0405V26.0905C18.5888 25.8676 19.5761 25.2721 20.2853 24.4045C20.9945 23.537 21.3819 22.4509 21.3819 21.3304C21.3819 20.21 20.9945 19.124 20.2853 18.2565C19.5761 17.389 18.5888 16.7933 17.4907 16.5704V16.5704ZM16.5357 24.2705C15.954 24.2715 15.3851 24.0999 14.901 23.7775C14.4168 23.455 14.0392 22.9962 13.8159 22.4591C13.5926 21.922 13.5337 21.3306 13.6466 20.76C13.7595 20.1894 14.0391 19.6651 14.45 19.2534C14.861 18.8418 15.3849 18.5612 15.9553 18.4474C16.5257 18.3335 17.1171 18.3914 17.6546 18.6138C18.1921 18.8361 18.6516 19.2129 18.9749 19.6965C19.2981 20.1801 19.4707 20.7488 19.4707 21.3304C19.4704 22.1092 19.1613 22.8562 18.6111 23.4073C18.0608 23.9585 17.3145 24.2689 16.5357 24.2705V24.2705ZM5.8007 8.56055V0.960449C5.8007 0.707167 5.70009 0.464253 5.52099 0.285156C5.34189 0.106059 5.09898 0.00549316 4.8457 0.00549316C4.59242 0.00549316 4.34952 0.106059 4.17042 0.285156C3.99132 0.464253 3.8907 0.707167 3.8907 0.960449V8.56055C2.793 8.78223 1.8058 9.37682 1.09663 10.2435C0.387457 11.1102 0 12.1956 0 13.3154C0 14.4353 0.387457 15.5207 1.09663 16.3875C1.8058 17.2542 2.793 17.8487 3.8907 18.0704V33.0405C3.8907 33.2938 3.99132 33.5367 4.17042 33.7158C4.34952 33.8949 4.59242 33.9955 4.8457 33.9955C5.09898 33.9955 5.34189 33.8949 5.52099 33.7158C5.70009 33.5367 5.8007 33.2938 5.8007 33.0405V18.0704C6.89841 17.8487 7.8856 17.2542 8.59477 16.3875C9.30394 15.5207 9.6914 14.4353 9.6914 13.3154C9.6914 12.1956 9.30394 11.1102 8.59477 10.2435C7.8856 9.37682 6.89841 8.78223 5.8007 8.56055V8.56055ZM4.8457 16.2505C4.265 16.2505 3.69735 16.0782 3.21458 15.7555C2.73182 15.4328 2.35564 14.9741 2.13364 14.4375C1.91165 13.9009 1.85381 13.3106 1.96747 12.7411C2.08112 12.1716 2.36115 11.6487 2.77212 11.2384C3.18309 10.8281 3.70652 10.549 4.27618 10.4363C4.84585 10.3236 5.43613 10.3824 5.97234 10.6053C6.50856 10.8283 6.9666 11.2052 7.2885 11.6885C7.6104 12.1718 7.78169 12.7397 7.7807 13.3204C7.78044 13.7056 7.70431 14.0869 7.55666 14.4426C7.409 14.7983 7.19273 15.1213 6.92017 15.3934C6.64762 15.6655 6.32413 15.8813 5.96819 16.0283C5.61224 16.1754 5.23082 16.2509 4.8457 16.2505V16.2505ZM29.1107 8.56055V0.960449C29.1148 0.832503 29.0932 0.705116 29.0471 0.585693C29.001 0.46627 28.9314 0.357231 28.8423 0.265259C28.7533 0.173287 28.6467 0.100237 28.5288 0.050293C28.4109 0.000349216 28.2842 -0.0253906 28.1562 -0.0253906C28.0282 -0.0253906 27.9015 0.000349216 27.7836 0.050293C27.6657 0.100237 27.5591 0.173287 27.4701 0.265259C27.381 0.357231 27.3114 0.46627 27.2653 0.585693C27.2192 0.705116 27.1976 0.832503 27.2017 0.960449V8.56055C26.104 8.78223 25.1168 9.37682 24.4076 10.2435C23.6985 11.1102 23.311 12.1956 23.311 13.3154C23.311 14.4353 23.6985 15.5207 24.4076 16.3875C25.1168 17.2542 26.104 17.8487 27.2017 18.0704V33.0405C27.1976 33.1685 27.2192 33.2959 27.2653 33.4153C27.3114 33.5347 27.381 33.6437 27.4701 33.7357C27.5591 33.8277 27.6657 33.9007 27.7836 33.9507C27.9015 34.0006 28.0282 34.0264 28.1562 34.0264C28.2842 34.0264 28.4109 34.0006 28.5288 33.9507C28.6467 33.9007 28.7533 33.8277 28.8423 33.7357C28.9314 33.6437 29.001 33.5347 29.0471 33.4153C29.0932 33.2959 29.1148 33.1685 29.1107 33.0405V18.0704C30.2084 17.8487 31.1956 17.2542 31.9048 16.3875C32.6139 15.5207 33.0014 14.4353 33.0014 13.3154C33.0014 12.1956 32.6139 11.1102 31.9048 10.2435C31.1956 9.37682 30.2084 8.78223 29.1107 8.56055V8.56055ZM28.1557 16.2505C27.575 16.2505 27.0073 16.0782 26.5246 15.7555C26.0418 15.4328 25.6656 14.9741 25.4436 14.4375C25.2216 13.9009 25.1638 13.3106 25.2775 12.7411C25.3911 12.1716 25.6711 11.6487 26.0821 11.2384C26.4931 10.8281 27.0165 10.549 27.5862 10.4363C28.1558 10.3236 28.7461 10.3824 29.2823 10.6053C29.8186 10.8283 30.2766 11.2052 30.5985 11.6885C30.9204 12.1718 31.0917 12.7397 31.0907 13.3204C31.0904 13.7056 31.0143 14.0869 30.8667 14.4426C30.719 14.7983 30.5027 15.1213 30.2302 15.3934C29.9576 15.6655 29.6341 15.8813 29.2782 16.0283C28.9222 16.1754 28.5408 16.2509 28.1557 16.2505V16.2505Z" fill="#0EC64E"/>
</g>
<defs>
<clipPath id="clip0">
<rect width="33" height="34" fill="white"/>
</clipPath>
</defs>
</svg>
