<svg width="36" height="30" viewBox="0 0 36 30" fill="none" xmlns="http://www.w3.org/2000/svg">
<g clip-path="url(#clip0)">
<path fill-rule="evenodd" clip-rule="evenodd" d="M35.9 22.6348C35.6814 20.5532 34.8847 18.5742 33.6 16.9218C33.028 16.1518 32.3634 15.4552 31.621 14.8478C30.4786 13.8805 29.1682 13.1314 27.755 12.6378C28.7158 11.9257 29.4786 10.9797 29.9707 9.8897C30.4629 8.7997 30.6681 7.60195 30.5668 6.4103C30.4655 5.21864 30.0611 4.0727 29.392 3.08141C28.7229 2.09012 27.8115 1.28644 26.7442 0.746752C25.6769 0.207067 24.4894 -0.0506942 23.2944 -0.00199639C22.0995 0.0467015 20.9368 0.400242 19.917 1.02498C18.8972 1.64972 18.0542 2.5249 17.468 3.56734C16.8818 4.60978 16.572 5.78482 16.568 6.98076C16.5677 8.20413 16.8902 9.40593 17.503 10.4648C18 11.3205 18.6719 12.0616 19.475 12.6398C18.1556 13.1053 16.9253 13.7925 15.837 14.6718C15.072 14.0366 14.2127 13.5244 13.29 13.1538C14.1676 12.4089 14.7953 11.4127 15.0885 10.2996C15.3817 9.18654 15.3262 8.0103 14.9295 6.9298C14.5328 5.84929 13.814 4.91659 12.8701 4.25771C11.9263 3.59883 10.803 3.24553 9.652 3.24553C8.50096 3.24553 7.37766 3.59883 6.43385 4.25771C5.49005 4.91659 4.77123 5.84929 4.3745 6.9298C3.97777 8.0103 3.92225 9.18654 4.21545 10.2996C4.50866 11.4127 5.13644 12.4089 6.014 13.1538C4.24181 13.8641 2.72236 15.0879 1.65076 16.668C0.579151 18.2482 0.00429652 20.1125 0 22.0218V22.6278C0.00155908 22.7119 0.0358666 22.792 0.0956268 22.8512C0.155387 22.9104 0.235885 22.944 0.32 22.9448H11.32C11.2759 23.3667 11.2535 23.7906 11.253 24.2148V24.8388C11.2607 26.2121 11.8124 27.5265 12.7872 28.4938C13.7621 29.4612 15.0806 30.0027 16.454 29.9998H30.8C32.1735 30.0024 33.4921 29.4605 34.4668 28.4928C35.4415 27.525 35.9929 26.2103 36 24.8368V24.2128C36.0002 23.6852 35.9668 23.1581 35.9 22.6348ZM18.6 6.98076C18.592 6.00293 18.8709 5.04424 19.4022 4.22328C19.9334 3.40233 20.6938 2.75517 21.5891 2.36193C22.4844 1.96868 23.4754 1.84658 24.4393 2.01076C25.4033 2.17495 26.298 2.61821 27.0126 3.28566C27.7273 3.95312 28.2305 4.81547 28.4601 5.76601C28.6897 6.71655 28.6355 7.71355 28.3042 8.63359C27.9729 9.55364 27.3792 10.3564 26.5964 10.9424C25.8136 11.5284 24.8761 11.8721 23.9 11.9308H23.3C22.0332 11.8604 20.8411 11.3088 19.9675 10.3887C19.0938 9.4686 18.6047 8.24953 18.6 6.98076V6.98076ZM9.628 5.34377C10.0937 5.33891 10.5557 5.42582 10.9878 5.59954C11.4199 5.77325 11.8135 6.03038 12.1462 6.35622C12.479 6.68206 12.7442 7.07022 12.9269 7.49858C13.1096 7.92694 13.2061 8.3871 13.211 8.85277C13.2159 9.31844 13.129 9.78049 12.9552 10.2126C12.7815 10.6447 12.5244 11.0383 12.1986 11.371C11.8727 11.7037 11.4845 11.969 11.0562 12.1517C10.6278 12.3344 10.1677 12.4309 9.702 12.4358H9.556C8.61554 12.4266 7.71723 12.0443 7.0587 11.3728C6.40017 10.7013 6.03535 9.79573 6.0445 8.85527C6.05365 7.91482 6.43602 7.01652 7.1075 6.35799C7.77897 5.69945 8.68454 5.33462 9.625 5.34377H9.628ZM11.678 20.9058H2.1C2.37204 19.1175 3.27463 17.4854 4.64474 16.3044C6.01484 15.1233 7.76213 14.4712 9.571 14.4658H9.679C11.3597 14.4769 12.9895 15.0441 14.314 16.0788C13.0821 17.4685 12.18 19.1186 11.675 20.9058H11.678ZM33.939 24.8388C33.9348 25.6729 33.5998 26.4713 33.0075 27.0586C32.4152 27.646 31.6141 27.9744 30.78 27.9718H16.435C15.6009 27.9744 14.7998 27.646 14.2075 27.0586C13.6152 26.4713 13.2802 25.6729 13.276 24.8388V24.2148C13.3041 21.5472 14.3602 18.9934 16.2243 17.0851C18.0884 15.1768 20.6169 14.0613 23.283 13.9708C23.392 13.9798 23.505 13.9798 23.606 13.9798C23.707 13.9798 23.819 13.9798 23.928 13.9708C26.5941 14.0613 29.1226 15.1768 30.9867 17.0851C32.8508 18.9934 33.9069 21.5472 33.935 24.2148V24.8388H33.939Z" fill="#0EC64E"/>
</g>
<defs>
<clipPath id="clip0">
<rect width="36" height="30" fill="white"/>
</clipPath>
</defs>
</svg>
