<svg width="36" height="31" viewBox="0 0 36 31" fill="none" xmlns="http://www.w3.org/2000/svg">
<g clip-path="url(#clip0)">
<path fill-rule="evenodd" clip-rule="evenodd" d="M9.46818 13.9223H26.5322C26.7808 13.9143 27.0165 13.8099 27.1895 13.6312C27.3625 13.4525 27.4592 13.2135 27.4592 12.9648C27.4592 12.7161 27.3625 12.4771 27.1895 12.2984C27.0165 12.1197 26.7808 12.0154 26.5322 12.0073H9.46818C9.21959 12.0154 8.98387 12.1197 8.81086 12.2984C8.63785 12.4771 8.54112 12.7161 8.54112 12.9648C8.54112 13.2135 8.63785 13.4525 8.81086 13.6312C8.98387 13.8099 9.21959 13.9143 9.46818 13.9223V13.9223ZM5.83917 1.91632C6.09026 1.91482 6.33051 1.81375 6.50718 1.63531C6.68466 1.45467 6.78409 1.21155 6.78409 0.958313C6.78409 0.705072 6.68466 0.461956 6.50718 0.281311C6.4201 0.192264 6.31611 0.121486 6.20131 0.0731812C6.08651 0.0248763 5.96322 0 5.83868 0C5.71413 0 5.59084 0.0248763 5.47604 0.0731812C5.36124 0.121486 5.25725 0.192264 5.17017 0.281311C4.99269 0.461956 4.89325 0.705072 4.89325 0.958313C4.89325 1.21155 4.99269 1.45467 5.17017 1.63531C5.25777 1.72379 5.36193 1.79413 5.47672 1.84235C5.59151 1.89056 5.71467 1.91571 5.83917 1.91632V1.91632ZM23.4262 0.000305176H8.86617C8.61209 0.000305176 8.36843 0.101224 8.18877 0.280884C8.00911 0.460544 7.90817 0.704236 7.90817 0.958313C7.90817 1.21239 8.00911 1.45608 8.18877 1.63574C8.36843 1.8154 8.61209 1.91632 8.86617 1.91632H23.4262C26.0809 1.95524 28.629 2.96737 30.5869 4.76062C32.5448 6.55387 33.7762 9.00348 34.0476 11.6446C34.3189 14.2857 33.6113 16.9345 32.0589 19.0884C30.5066 21.2423 28.2175 22.7514 25.6262 23.3293C25.413 23.3766 25.2224 23.4953 25.0859 23.6657C24.9493 23.8361 24.875 24.048 24.8752 24.2663V27.7303L21.0352 23.8403C20.948 23.7513 20.8439 23.6807 20.729 23.6326C20.6141 23.5845 20.4907 23.5599 20.3662 23.5603H12.5662C9.71545 23.5386 6.98973 22.3871 4.98698 20.3583C2.98422 18.3295 1.868 15.589 1.88318 12.7383C1.88218 10.9029 2.34299 9.09686 3.22317 7.48633C3.34568 7.26408 3.37551 7.00242 3.30617 6.7583C3.27264 6.63758 3.21564 6.52469 3.13843 6.42603C3.06121 6.32736 2.9653 6.24485 2.85618 6.18329C2.74762 6.12198 2.62791 6.08295 2.50408 6.06848C2.38025 6.05402 2.25477 6.06442 2.135 6.09906C2.01523 6.1337 1.90359 6.19192 1.8066 6.27026C1.70961 6.34861 1.62923 6.4455 1.57017 6.5553C0.536417 8.45195 -0.00349057 10.5782 0.000174063 12.7383C-0.0174007 16.0935 1.29652 19.3188 3.65374 21.7065C6.01095 24.0943 9.21899 25.4496 12.5742 25.4753H19.9802L25.1572 30.7193C25.2883 30.8532 25.4565 30.9446 25.6402 30.9817C25.8238 31.0188 26.0144 30.9998 26.1872 30.9273C26.3611 30.854 26.5093 30.7308 26.6133 30.5733C26.7172 30.4158 26.7722 30.231 26.7712 30.0423V25.0193C29.2779 24.3078 31.5046 22.8413 33.1482 20.8193C34.9948 18.5309 36.0014 15.6788 36.0002 12.7383C36.018 9.38287 34.7042 6.1574 32.347 3.76941C29.9897 1.38142 26.7815 0.0259447 23.4262 0.000305176V0.000305176ZM13.5262 16.4093C13.2721 16.4093 13.0284 16.5102 12.8488 16.6899C12.6691 16.8695 12.5682 17.1132 12.5682 17.3673C12.5682 17.6214 12.6691 17.8651 12.8488 18.0447C13.0284 18.2244 13.2721 18.3253 13.5262 18.3253H13.5372C13.7913 18.3253 14.0349 18.2244 14.2146 18.0447C14.3942 17.8651 14.4952 17.6214 14.4952 17.3673C14.4952 17.1132 14.3942 16.8695 14.2146 16.6899C14.0349 16.5102 13.7913 16.4093 13.5372 16.4093H13.5252H13.5262ZM9.47018 9.08228H26.5322C26.7808 9.07424 27.0165 8.96989 27.1895 8.7912C27.3625 8.61251 27.4592 8.37354 27.4592 8.12482C27.4592 7.8761 27.3625 7.63712 27.1895 7.45844C27.0165 7.27975 26.7808 7.17533 26.5322 7.1673H9.46818C9.21959 7.17533 8.98387 7.27975 8.81086 7.45844C8.63785 7.63712 8.54112 7.8761 8.54112 8.12482C8.54112 8.37354 8.63785 8.61251 8.81086 8.7912C8.98387 8.96989 9.21959 9.07424 9.46818 9.08228H9.47018ZM26.5332 16.4093H17.4332C17.1791 16.4093 16.9354 16.5102 16.7558 16.6899C16.5761 16.8695 16.4752 17.1132 16.4752 17.3673C16.4752 17.6214 16.5761 17.8651 16.7558 18.0447C16.9354 18.2244 17.1791 18.3253 17.4332 18.3253H26.5332C26.7872 18.3252 27.0309 18.2241 27.2104 18.0444C27.39 17.8646 27.4908 17.6209 27.4907 17.3668C27.4905 17.1127 27.3895 16.8691 27.2097 16.6895C27.03 16.5099 26.7862 16.4092 26.5322 16.4093H26.5332Z" fill="#0EC64E"/>
</g>
<defs>
<clipPath id="clip0">
<rect width="36" height="31" fill="white"/>
</clipPath>
</defs>
</svg>
