<svg width="34" height="30" viewBox="0 0 34 30" fill="none" xmlns="http://www.w3.org/2000/svg">
<g clip-path="url(#clip0)">
<path fill-rule="evenodd" clip-rule="evenodd" d="M34.0007 12.4302C34.0007 12.4302 34.0007 12.4202 34.0007 12.4102V12.3901C34.0007 12.3801 34.0007 12.3701 34.0007 12.3601V12.3501C33.8282 11.1616 33.3412 10.0407 32.5901 9.10364C31.839 8.16653 30.8511 7.44723 29.7287 7.02014C30.1595 6.64779 30.5053 6.18725 30.7427 5.66968C30.9801 5.1521 31.1035 4.58956 31.1047 4.02014C31.0811 2.95344 30.6407 1.93832 29.878 1.19226C29.1152 0.446197 28.0906 0.0284424 27.0237 0.0284424C25.9567 0.0284424 24.9321 0.446197 24.1694 1.19226C23.4066 1.93832 22.9663 2.95344 22.9427 4.02014C22.9429 4.58797 23.0657 5.14902 23.3027 5.66504C23.5396 6.18106 23.8852 6.63988 24.3157 7.01013C23.4056 7.37502 22.5802 7.923 21.8907 8.62012C21.2508 7.9426 20.4803 7.40176 19.6257 7.03015C20.0637 6.6603 20.4159 6.1994 20.6577 5.67957C20.8995 5.15973 21.025 4.59345 21.0257 4.02014C21.0089 2.94872 20.5715 1.92679 19.8079 1.17505C19.0443 0.423303 18.0157 0.00195312 16.9442 0.00195312C15.8726 0.00195312 14.844 0.423303 14.0804 1.17505C13.3168 1.92679 12.8794 2.94872 12.8627 4.02014C12.8633 4.59345 12.9889 5.15973 13.2307 5.67957C13.4724 6.1994 13.8246 6.6603 14.2627 7.03015C13.408 7.40161 12.6374 7.94247 11.9977 8.62012C11.308 7.92316 10.4827 7.3752 9.57267 7.01013C10.0032 6.63988 10.3487 6.18106 10.5857 5.66504C10.8226 5.14902 10.9454 4.58797 10.9457 4.02014C10.9289 2.94872 10.4915 1.92679 9.72791 1.17505C8.9643 0.423303 7.93572 0.00195312 6.86417 0.00195312C5.79263 0.00195312 4.76404 0.423303 4.00043 1.17505C3.23683 1.92679 2.79944 2.94872 2.78267 4.02014C2.78348 4.59234 2.90803 5.15758 3.14778 5.67712C3.38753 6.19667 3.73681 6.65825 4.17167 7.03015C3.13007 7.45671 2.21323 8.1397 1.50637 9.01562C0.799515 9.89155 0.325595 10.932 0.12867 12.0402C0.0537649 12.1602 0.0139319 12.2986 0.0136719 12.4401V15.6101C0.0159322 15.7878 0.0780798 15.9595 0.190056 16.0974C0.302032 16.2353 0.457279 16.3314 0.630669 16.3701L3.42167 16.9701C3.76258 18.3163 4.31008 19.6016 5.04467 20.7802L3.75567 22.8901C3.66564 23.0369 3.62828 23.21 3.64973 23.3809C3.67117 23.5517 3.75016 23.7101 3.87367 23.8301L6.67367 26.5801C6.7463 26.6536 6.83291 26.7118 6.92841 26.7513C7.0239 26.7908 7.12633 26.8109 7.22967 26.8102C7.37024 26.8085 7.50802 26.7705 7.62967 26.7001L9.81267 25.4102C11.0067 26.1178 12.301 26.6403 13.6517 26.9601C13.8517 27.7301 14.2187 29.1901 14.2687 29.3901C14.2729 29.4032 14.2763 29.4166 14.2787 29.4302C14.3264 29.5943 14.4261 29.7385 14.5628 29.8413C14.6994 29.9441 14.8657 29.9998 15.0367 30.0001C15.0757 30.0001 15.1147 29.9901 15.1527 29.9901H18.9897C19.1644 29.9913 19.3345 29.9339 19.4727 29.8269C19.6109 29.7199 19.7091 29.5696 19.7517 29.4001L20.3727 26.9601C21.7233 26.6403 23.0177 26.1178 24.2117 25.4102L26.3947 26.7001C26.5163 26.7706 26.6541 26.8086 26.7947 26.8102V26.8102C26.898 26.8109 27.0004 26.7908 27.0959 26.7513C27.1914 26.7118 27.278 26.6536 27.3507 26.5801L30.1507 23.8301C30.2743 23.7102 30.3534 23.5518 30.3749 23.3809C30.3963 23.21 30.3589 23.0369 30.2687 22.8901L28.9807 20.7802C29.7154 19.6017 30.2629 18.3164 30.6037 16.9701L33.3947 16.3701C33.568 16.3314 33.7231 16.2352 33.8349 16.0973C33.9467 15.9593 34.0086 15.7877 34.0107 15.6101V12.4302H34.0007ZM27.0197 1.55017C27.505 1.55903 27.9769 1.71097 28.3762 1.98694C28.7755 2.26291 29.0844 2.6506 29.2642 3.10144C29.4441 3.55228 29.4868 4.04621 29.3871 4.52124C29.2873 4.99627 29.0496 5.43128 28.7036 5.77173C28.3577 6.11218 27.9189 6.34285 27.4423 6.43494C26.9658 6.52702 26.4726 6.47636 26.0247 6.28931C25.5768 6.10225 25.1941 5.7871 24.9246 5.38342C24.6551 4.97974 24.5107 4.50552 24.5097 4.02014C24.516 3.36008 24.7838 2.72947 25.2542 2.26648C25.7247 1.80349 26.3596 1.54591 27.0197 1.55017V1.55017ZM27.0197 8.03015C28.1584 8.03081 29.2697 8.37983 30.2043 9.03052C31.1388 9.6812 31.8519 10.6024 32.2477 11.6702H23.5007C23.3641 11.0536 23.1373 10.4605 22.8277 9.91016C23.3538 9.31819 23.9994 8.84445 24.722 8.52039C25.4446 8.19632 26.2277 8.02929 27.0197 8.03015V8.03015ZM16.9347 1.55017C17.42 1.55903 17.8919 1.71097 18.2912 1.98694C18.6905 2.26291 18.9994 2.6506 19.1792 3.10144C19.3591 3.55228 19.4018 4.04621 19.3021 4.52124C19.2023 4.99627 18.9646 5.43128 18.6186 5.77173C18.2727 6.11218 17.8339 6.34285 17.3573 6.43494C16.8808 6.52702 16.3876 6.47636 15.9397 6.28931C15.4918 6.10225 15.1091 5.7871 14.8396 5.38342C14.5701 4.97974 14.4257 4.50552 14.4247 4.02014C14.431 3.36008 14.6988 2.72947 15.1693 2.26648C15.6397 1.80349 16.2746 1.54591 16.9347 1.55017V1.55017ZM16.9347 8.03015C18.0401 8.02473 19.1178 8.37599 20.0077 9.03174C20.8977 9.68748 21.5524 10.6128 21.8747 11.6702H11.9947C12.317 10.6128 12.9717 9.68748 13.8616 9.03174C14.7515 8.37599 15.8292 8.02473 16.9347 8.03015V8.03015ZM24.0347 13.2101C24.0477 13.3901 24.0547 13.5601 24.0547 13.7301C24.0234 15.5988 23.259 17.3805 21.9264 18.6909C20.5938 20.0014 18.7997 20.7357 16.9307 20.7357C15.0617 20.7357 13.2675 20.0014 11.9349 18.6909C10.6023 17.3805 9.83798 15.5988 9.80667 13.7301C9.80667 13.5601 9.81367 13.3901 9.82667 13.2101H24.0387H24.0347ZM6.85067 1.55017C7.33597 1.55903 7.80786 1.71097 8.20716 1.98694C8.60646 2.26291 8.91539 2.6506 9.09523 3.10144C9.27507 3.55228 9.3178 4.04621 9.21807 4.52124C9.11834 4.99627 8.88059 5.43128 8.53463 5.77173C8.18867 6.11218 7.74988 6.34285 7.27332 6.43494C6.79675 6.52702 6.3036 6.47636 5.85571 6.28931C5.40781 6.10225 5.02512 5.7871 4.7556 5.38342C4.48608 4.97974 4.34173 4.50552 4.34067 4.02014C4.34701 3.36008 4.61476 2.72947 5.08525 2.26648C5.55574 1.80349 6.19059 1.54591 6.85067 1.55017V1.55017ZM6.85067 8.03015C7.64396 8.02815 8.42863 8.19469 9.15269 8.5188C9.87676 8.8429 10.5237 9.31718 11.0507 9.91016C10.7409 10.4605 10.5142 11.0536 10.3777 11.6702H1.81167C2.16128 10.6101 2.83665 9.68744 3.74149 9.03381C4.64633 8.38019 5.73444 8.02896 6.85067 8.03015V8.03015ZM32.4297 14.9901L29.7707 15.5701C29.6239 15.5989 29.4888 15.6701 29.3821 15.775C29.2755 15.8799 29.2019 16.0139 29.1707 16.1602C28.8531 17.6551 28.2494 19.0745 27.3927 20.3401C27.311 20.4623 27.2658 20.6053 27.2625 20.7523C27.2591 20.8993 27.2977 21.0443 27.3737 21.1702L28.5967 23.1702L26.6677 25.0602L24.5987 23.8401C24.4722 23.7648 24.327 23.7267 24.1798 23.7302C24.0326 23.7338 23.8894 23.7788 23.7667 23.8601C22.4804 24.6778 21.0541 25.2509 19.5597 25.5502C19.4172 25.5815 19.286 25.651 19.1802 25.7515C19.0745 25.8519 18.9982 25.9794 18.9597 26.1201L18.3697 28.4401H15.6367L15.1197 26.4102L15.1127 26.3901C15.1056 26.3672 15.0999 26.3437 15.0957 26.3201C15.0807 26.1395 15.0095 25.9683 14.8922 25.8302C14.775 25.6921 14.6174 25.5942 14.4417 25.5502C12.9476 25.2506 11.5217 24.6776 10.2357 23.8601C10.1131 23.7789 9.97006 23.7339 9.82305 23.7303C9.67604 23.7268 9.53102 23.7648 9.40467 23.8401L7.33567 25.0602L5.40667 23.1702L6.62967 21.1702C6.70578 21.0443 6.74442 20.8993 6.74106 20.7523C6.73769 20.6053 6.69246 20.4623 6.61067 20.3401C5.75413 19.0744 5.15039 17.6551 4.83267 16.1602C4.80165 16.0138 4.7282 15.8797 4.6215 15.7748C4.5148 15.6699 4.37957 15.5986 4.23267 15.5701L1.57367 14.9901V13.2101H8.25768C8.24668 13.3901 8.24167 13.5601 8.24167 13.7301C8.31431 15.9879 9.26228 18.1289 10.8851 19.7003C12.5079 21.2717 14.6782 22.1504 16.9372 22.1504C19.1961 22.1504 21.3665 21.2717 22.9893 19.7003C24.6121 18.1289 25.56 15.9879 25.6327 13.7301C25.6327 13.5601 25.6277 13.3901 25.6167 13.2101H32.4327V14.9901H32.4297ZM27.4147 15.8002C27.5662 15.797 27.7135 15.7491 27.838 15.6626C27.9625 15.5761 28.0587 15.4548 28.1145 15.3138C28.1704 15.1729 28.1834 15.0187 28.1519 14.8704C28.1204 14.7221 28.0458 14.5863 27.9375 14.4802C27.8292 14.3741 27.692 14.3024 27.5431 14.2739C27.3942 14.2455 27.2402 14.2617 27.1004 14.3204C26.9607 14.3792 26.8413 14.4777 26.7574 14.604C26.6735 14.7303 26.6287 14.8785 26.6287 15.0302C26.6293 15.1324 26.6502 15.2336 26.6901 15.3278C26.7301 15.4219 26.7882 15.5073 26.8613 15.5789C26.9344 15.6504 27.0209 15.7068 27.1159 15.7448C27.2108 15.7827 27.3124 15.8016 27.4147 15.8002V15.8002ZM16.9347 23.3301C16.7305 23.3301 16.5346 23.4113 16.3902 23.5557C16.2458 23.7001 16.1647 23.8959 16.1647 24.1001C16.1647 24.3043 16.2458 24.5003 16.3902 24.6447C16.5346 24.7891 16.7305 24.8701 16.9347 24.8701C19.092 24.8752 21.2063 24.2668 23.0311 23.116C24.8558 21.9651 26.3158 20.3192 27.2407 18.3701C27.2835 18.2779 27.3075 18.1781 27.3112 18.0765C27.3149 17.9749 27.2982 17.8736 27.2621 17.7786C27.2261 17.6835 27.1714 17.5967 27.1012 17.5231C27.0311 17.4495 26.9469 17.3907 26.8537 17.3501C26.7514 17.3021 26.6396 17.2782 26.5267 17.2802C26.3768 17.2784 26.2297 17.32 26.1029 17.3998C25.9761 17.4796 25.8749 17.5943 25.8117 17.7301C25.0146 19.4087 23.7571 20.8263 22.1855 21.8177C20.6139 22.8092 18.7929 23.3336 16.9347 23.3301Z" fill="#0EC64E"/>
</g>
<defs>
<clipPath id="clip0">
<rect width="34" height="30" fill="white"/>
</clipPath>
</defs>
</svg>
