<svg width="57" height="57" viewBox="0 0 57 57" fill="none" xmlns="http://www.w3.org/2000/svg">
<path fill-rule="evenodd" clip-rule="evenodd" d="M4.45502 57C3.27361 56.9979 2.14119 56.5274 1.30609 55.6918C0.470989 54.8561 0.00132166 53.7234 0 52.542V4.45599C0.00185055 3.27493 0.471779 2.14279 1.30682 1.30756C2.14187 0.472324 3.27395 0.00211563 4.45502 0H52.541C53.7228 0.00105771 54.8559 0.470744 55.6918 1.30609C56.5277 2.14144 56.9981 3.27424 57 4.45599V52.542C56.9987 53.7241 56.5284 54.8574 55.6924 55.6932C54.8565 56.529 53.7231 56.9989 52.541 57H4.45502ZM2.26801 52.542C2.26853 53.1219 2.49909 53.6778 2.90912 54.0878C3.31915 54.4979 3.87515 54.7285 4.45502 54.729H52.541C53.1209 54.7285 53.6768 54.4979 54.0869 54.0878C54.4969 53.6778 54.7275 53.1219 54.728 52.542V12.405H2.26801V52.542V52.542ZM4.45502 2.26898C3.87515 2.26951 3.31915 2.50013 2.90912 2.91016C2.49909 3.32018 2.26853 3.87613 2.26801 4.45599V10.134H54.728V4.45599C54.7275 3.87613 54.4969 3.32018 54.0869 2.91016C53.6768 2.50013 53.1209 2.26951 52.541 2.26898H4.45502ZM6.82202 7.323C6.5267 7.31423 6.24638 7.19075 6.04059 6.97876C5.8348 6.76677 5.71973 6.48295 5.71973 6.1875C5.71973 5.89205 5.8348 5.60823 6.04059 5.39624C6.24638 5.18425 6.5267 5.06077 6.82202 5.052H9.15002C9.30198 5.04749 9.45326 5.0735 9.59497 5.12854C9.73668 5.18358 9.8659 5.26649 9.97498 5.37238C10.0841 5.47826 10.1708 5.60498 10.23 5.745C10.2892 5.88501 10.3197 6.03548 10.3197 6.1875C10.3197 6.33952 10.2892 6.48999 10.23 6.63C10.1708 6.77002 10.0841 6.89674 9.97498 7.00262C9.8659 7.10851 9.73668 7.19142 9.59497 7.24646C9.45326 7.3015 9.30198 7.32751 9.15002 7.323H6.82202ZM14.089 7.323C13.7937 7.31423 13.5134 7.19075 13.3076 6.97876C13.1018 6.76677 12.9867 6.48295 12.9867 6.1875C12.9867 5.89205 13.1018 5.60823 13.3076 5.39624C13.5134 5.18425 13.7937 5.06077 14.089 5.052H16.417C16.5689 5.04749 16.7202 5.0735 16.8619 5.12854C17.0036 5.18358 17.1329 5.26649 17.2419 5.37238C17.351 5.47826 17.4377 5.60498 17.4969 5.745C17.5562 5.88501 17.5867 6.03548 17.5867 6.1875C17.5867 6.33952 17.5562 6.48999 17.4969 6.63C17.4377 6.77002 17.351 6.89674 17.2419 7.00262C17.1329 7.10851 17.0036 7.19142 16.8619 7.24646C16.7202 7.3015 16.5689 7.32751 16.417 7.323H14.089ZM21.357 7.323C21.205 7.32751 21.0538 7.3015 20.912 7.24646C20.7703 7.19142 20.6411 7.10851 20.532 7.00262C20.423 6.89674 20.3363 6.77002 20.277 6.63C20.2178 6.48999 20.1873 6.33952 20.1873 6.1875C20.1873 6.03548 20.2178 5.88501 20.277 5.745C20.3363 5.60498 20.423 5.47826 20.532 5.37238C20.6411 5.26649 20.7703 5.18358 20.912 5.12854C21.0538 5.0735 21.205 5.04749 21.357 5.052H23.684C23.836 5.04749 23.9873 5.0735 24.129 5.12854C24.2707 5.18358 24.3999 5.26649 24.509 5.37238C24.618 5.47826 24.7048 5.60498 24.764 5.745C24.8232 5.88501 24.8537 6.03548 24.8537 6.1875C24.8537 6.33952 24.8232 6.48999 24.764 6.63C24.7048 6.77002 24.618 6.89674 24.509 7.00262C24.3999 7.10851 24.2707 7.19142 24.129 7.24646C23.9873 7.3015 23.836 7.32751 23.684 7.323H21.357ZM7.39398 31.184C7.09304 31.1838 6.80453 31.0641 6.59174 30.8513C6.37894 30.6385 6.25924 30.35 6.25897 30.049V17.558C6.25924 17.257 6.37894 16.9685 6.59174 16.7557C6.80453 16.5429 7.09304 16.4232 7.39398 16.423H49.627C49.928 16.4232 50.2167 16.5429 50.4296 16.7557C50.6426 16.9684 50.7625 17.257 50.763 17.558V30.049C50.7625 30.35 50.6426 30.6386 50.4296 30.8513C50.2167 31.0641 49.928 31.1838 49.627 31.184H7.39398V31.184ZM8.53003 28.913H48.492V18.694H8.53003V28.913V28.913ZM7.39398 37.429C7.09866 37.4203 6.8184 37.2968 6.61261 37.0848C6.40682 36.8728 6.29169 36.589 6.29169 36.2935C6.29169 35.9981 6.40682 35.7142 6.61261 35.5023C6.8184 35.2903 7.09866 35.1668 7.39398 35.158H44.594C44.8893 35.1668 45.1696 35.2903 45.3754 35.5023C45.5812 35.7142 45.6963 35.9981 45.6963 36.2935C45.6963 36.589 45.5812 36.8728 45.3754 37.0848C45.1696 37.2968 44.8893 37.4203 44.594 37.429H7.39398ZM7.39398 43.329C7.09866 43.3202 6.8184 43.1967 6.61261 42.9847C6.40682 42.7728 6.29169 42.4889 6.29169 42.1935C6.29169 41.898 6.40682 41.6142 6.61261 41.4022C6.8184 41.1902 7.09866 41.0667 7.39398 41.058H22.671C22.823 41.0535 22.9743 41.0795 23.116 41.1346C23.2577 41.1896 23.3869 41.2725 23.496 41.3784C23.605 41.4843 23.6918 41.611 23.751 41.751C23.8102 41.891 23.8407 42.0415 23.8407 42.1935C23.8407 42.3455 23.8102 42.496 23.751 42.636C23.6918 42.776 23.605 42.9027 23.496 43.0086C23.3869 43.1145 23.2577 43.1974 23.116 43.2524C22.9743 43.3075 22.823 43.3335 22.671 43.329H7.39398V43.329ZM7.01202 49.229C6.86007 49.2335 6.70872 49.2075 6.56702 49.1525C6.42531 49.0974 6.29609 49.0145 6.18701 48.9086C6.07794 48.8027 5.99122 48.676 5.93201 48.536C5.87279 48.396 5.84229 48.2455 5.84229 48.0935C5.84229 47.9415 5.87279 47.791 5.93201 47.651C5.99122 47.511 6.07794 47.3843 6.18701 47.2784C6.29609 47.1725 6.42531 47.0896 6.56702 47.0345C6.70872 46.9795 6.86007 46.9535 7.01202 46.958H39.546C39.8413 46.9668 40.1216 47.0903 40.3274 47.3022C40.5332 47.5142 40.6483 47.7981 40.6483 48.0935C40.6483 48.389 40.5332 48.6728 40.3274 48.8848C40.1216 49.0968 39.8413 49.2202 39.546 49.229H7.01202V49.229ZM46.3 49.229C46.148 49.2335 45.9967 49.2075 45.855 49.1525C45.7133 49.0974 45.5841 49.0145 45.475 48.9086C45.366 48.8027 45.2792 48.676 45.22 48.536C45.1608 48.396 45.1303 48.2455 45.1303 48.0935C45.1303 47.9415 45.1608 47.791 45.22 47.651C45.2792 47.511 45.366 47.3843 45.475 47.2784C45.5841 47.1725 45.7133 47.0896 45.855 47.0345C45.9967 46.9795 46.148 46.9535 46.3 46.958H49.647C49.9423 46.9668 50.2226 47.0903 50.4284 47.3022C50.6342 47.5142 50.7493 47.7981 50.7493 48.0935C50.7493 48.389 50.6342 48.6728 50.4284 48.8848C50.2226 49.0968 49.9423 49.2202 49.647 49.229H46.3V49.229Z" fill="#0EC64E"/>
</svg>
