<svg width="58" height="49" viewBox="0 0 58 49" fill="none" xmlns="http://www.w3.org/2000/svg">
<g clip-path="url(#clip0)">
<path fill-rule="evenodd" clip-rule="evenodd" d="M53.1701 7.35001H41.08V4.89999C41.0891 3.60979 40.5854 2.3688 39.6796 1.44992C38.7739 0.531043 37.5403 0.00951381 36.2501 0H21.7501C20.4599 0.00951381 19.2263 0.531043 18.3205 1.44992C17.4148 2.3688 16.9111 3.60979 16.9201 4.89999V7.35001H4.83009C3.54047 7.36137 2.30789 7.8835 1.40254 8.80197C0.497189 9.72045 -0.00711981 10.9603 7.59604e-05 12.25V44.1C-0.00711981 45.3896 0.497189 46.6296 1.40254 47.548C2.30789 48.4665 3.54047 48.9886 4.83009 49H53.1701C54.4597 48.9886 55.6923 48.4665 56.5976 47.548C57.503 46.6296 58.0073 45.3896 58.0001 44.1V12.25C58.0073 10.9603 57.503 9.72045 56.5976 8.80197C55.6923 7.8835 54.4597 7.36137 53.1701 7.35001V7.35001ZM19.33 4.89999C19.3276 4.25467 19.5809 3.63466 20.0344 3.17554C20.4879 2.71642 21.1048 2.45556 21.7501 2.45001H36.2501C36.8954 2.45556 37.5123 2.71642 37.9658 3.17554C38.4193 3.63466 38.6725 4.25467 38.6701 4.89999V7.35001H19.33V4.89999V4.89999ZM55.58 44.1C55.5848 44.7443 55.3338 45.3642 54.8819 45.8235C54.4301 46.2829 53.8144 46.5442 53.1701 46.55H4.83009C4.18578 46.5442 3.57009 46.2829 3.11824 45.8235C2.66639 45.3642 2.41526 44.7443 2.42006 44.1V26.269C3.14714 26.7095 3.98 26.9449 4.83009 26.95H24.1701V30.625C24.1689 30.7849 24.1993 30.9436 24.2595 31.0917C24.3197 31.2399 24.4086 31.3747 24.521 31.4885C24.6333 31.6023 24.7671 31.6929 24.9145 31.7549C25.0619 31.8169 25.2201 31.8492 25.3801 31.85H32.6301C32.9515 31.8463 33.2584 31.7152 33.4834 31.4856C33.7083 31.2559 33.833 30.9465 33.83 30.625V26.95H53.1701C54.0202 26.9449 54.853 26.7095 55.58 26.269V44.1ZM26.58 29.4V24.5H31.4201V29.4H26.58ZM55.58 22.05C55.5848 22.6943 55.3338 23.3142 54.8819 23.7736C54.4301 24.2329 53.8144 24.4942 53.1701 24.5H33.83V23.275C33.8312 23.1151 33.8009 22.9565 33.7407 22.8083C33.6805 22.6601 33.5916 22.5252 33.4792 22.4114C33.3668 22.2976 33.2331 22.2072 33.0856 22.1451C32.9382 22.0831 32.78 22.0508 32.6201 22.05H25.3701C25.0486 22.0537 24.7418 22.1847 24.5168 22.4144C24.2918 22.644 24.1672 22.9536 24.1701 23.275V24.5H4.83009C4.18578 24.4942 3.57009 24.2329 3.11824 23.7736C2.66639 23.3142 2.41526 22.6943 2.42006 22.05V12.25C2.41553 11.6058 2.66675 10.986 3.11855 10.5267C3.57034 10.0674 4.18586 9.80606 4.83009 9.79999H53.1701C53.8144 9.80606 54.4299 10.0674 54.8817 10.5267C55.3335 10.986 55.5846 11.6058 55.58 12.25V22.05Z" fill="#0EC64E"/>
</g>
<defs>
<clipPath id="clip0">
<rect width="58" height="49" fill="white"/>
</clipPath>
</defs>
</svg>
