<svg width="50" height="67" viewBox="0 0 50 67" fill="none" xmlns="http://www.w3.org/2000/svg">
<g clip-path="url(#clip0)">
<path fill-rule="evenodd" clip-rule="evenodd" d="M16.2993 4.40601L12.3093 9.37402C12.1483 9.58458 12.0605 9.84194 12.0593 10.107V20.543L0.0691504 53.761C0.0160675 53.9062 -0.00766132 54.0606 -0.000795907 54.215C0.0060695 54.3695 0.0434322 54.5211 0.109189 54.661C0.248014 54.9441 0.492132 55.1616 0.789243 55.267L34.2392 66.93C34.5403 67.0344 34.8703 67.0176 35.1592 66.883C35.4473 66.7369 35.669 66.4866 35.7792 66.183L40.0593 54.256H48.7292C49.0451 54.2752 49.3559 54.1688 49.5938 53.96C49.8317 53.7511 49.9774 53.4568 49.9992 53.141V10.107C49.9854 9.83749 49.8835 9.58 49.7092 9.37402L42.5092 0.458008C42.3915 0.317239 42.2448 0.203504 42.0792 0.124634C41.9135 0.0457631 41.7327 0.00358383 41.5493 0.000976562H20.4192C20.2384 0.00204776 20.06 0.043654 19.8973 0.122742C19.7346 0.201829 19.5917 0.316417 19.4792 0.458008L17.9892 2.30701L16.2993 4.40601ZM19.1592 4.64801L20.9992 2.35901H40.9692L47.5992 10.518V51.9H14.4592V10.518L17.5892 6.61798L19.1592 4.64801ZM25.8592 13.412C26.0222 14.6486 26.6327 15.7827 27.5753 16.5997C28.5178 17.4166 29.7272 17.8598 30.9744 17.8453C32.2217 17.8309 33.4205 17.3599 34.3439 16.5214C35.2674 15.6829 35.8514 14.5351 35.9858 13.295C36.1201 12.0549 35.7954 10.8086 35.0729 9.79175C34.3505 8.77494 33.2804 8.05816 32.0651 7.77698C30.8499 7.49579 29.5738 7.66968 28.4781 8.26581C27.3824 8.86193 26.5432 9.83896 26.1192 11.012C25.8856 11.7892 25.7974 12.6028 25.8592 13.412V13.412ZM28.6891 11.218C28.9395 10.8515 29.2761 10.5521 29.6692 10.346C30.0683 10.1626 30.5013 10.0647 30.9405 10.0587C31.3797 10.0527 31.8152 10.1386 32.2192 10.311V10.311C32.7586 10.5709 33.1971 11.0017 33.4665 11.5364C33.7359 12.0711 33.8212 12.6798 33.7092 13.268C33.5842 13.8559 33.2726 14.3877 32.8209 14.7841C32.3691 15.1806 31.8015 15.4205 31.2023 15.4681C30.6032 15.5158 30.0047 15.3686 29.496 15.0486C28.9873 14.7285 28.5956 14.2527 28.3792 13.692C28.2378 13.2835 28.1922 12.8479 28.2459 12.4189C28.2997 11.9899 28.4513 11.579 28.6891 11.218V11.218ZM12.0593 27.6V53.136C12.0586 53.2863 12.0884 53.4353 12.1468 53.5738C12.2052 53.7123 12.2911 53.8376 12.3992 53.942C12.5104 54.0456 12.641 54.1262 12.7834 54.1792C12.9258 54.2322 13.0773 54.2566 13.2292 54.251H37.5192L33.9092 64.279L2.72918 53.42L12.0593 27.6ZM39.8892 43.926H21.8492C21.6914 43.9214 21.5343 43.9485 21.3871 44.0057C21.24 44.0629 21.106 44.1491 20.9927 44.259C20.8795 44.369 20.7894 44.5006 20.728 44.646C20.6665 44.7914 20.6348 44.9477 20.6348 45.1055C20.6348 45.2634 20.6665 45.4196 20.728 45.565C20.7894 45.7104 20.8795 45.842 20.9927 45.952C21.106 46.0619 21.24 46.1481 21.3871 46.2053C21.5343 46.2625 21.6914 46.2896 21.8492 46.285H39.8892C40.049 46.293 40.2087 46.2685 40.3587 46.213C40.5087 46.1574 40.6458 46.0719 40.7618 45.9617C40.8777 45.8514 40.9701 45.7188 41.0331 45.5718C41.0962 45.4248 41.1287 45.2665 41.1287 45.1065C41.1287 44.9465 41.0962 44.7882 41.0331 44.6412C40.9701 44.4942 40.8777 44.3616 40.7618 44.2513C40.6458 44.1411 40.5087 44.0556 40.3587 44C40.2087 43.9444 40.049 43.9199 39.8892 43.928V43.926ZM39.8892 36.147H21.8492C21.6914 36.1424 21.5343 36.1695 21.3871 36.2267C21.24 36.284 21.106 36.3701 20.9927 36.48C20.8795 36.59 20.7894 36.7216 20.728 36.867C20.6665 37.0124 20.6348 37.1686 20.6348 37.3265C20.6348 37.4843 20.6665 37.6406 20.728 37.786C20.7894 37.9314 20.8795 38.0629 20.9927 38.1729C21.106 38.2829 21.24 38.3691 21.3871 38.4263C21.5343 38.4835 21.6914 38.5106 21.8492 38.506H39.8892C40.049 38.514 40.2087 38.4895 40.3587 38.434C40.5087 38.3784 40.6458 38.2929 40.7618 38.1827C40.8777 38.0725 40.9701 37.9398 41.0331 37.7928C41.0962 37.6458 41.1287 37.4875 41.1287 37.3275C41.1287 37.1675 41.0962 37.0093 41.0331 36.8622C40.9701 36.7152 40.8777 36.5826 40.7618 36.4724C40.6458 36.3621 40.5087 36.2766 40.3587 36.221C40.2087 36.1654 40.049 36.1409 39.8892 36.149V36.147ZM39.8892 27.941H21.8492C21.6914 27.9364 21.5343 27.9635 21.3871 28.0208C21.24 28.078 21.106 28.1641 20.9927 28.274C20.8795 28.384 20.7894 28.5156 20.728 28.661C20.6665 28.8064 20.6348 28.9626 20.6348 29.1205C20.6348 29.2783 20.6665 29.4346 20.728 29.58C20.7894 29.7254 20.8795 29.8569 20.9927 29.9669C21.106 30.0769 21.24 30.1631 21.3871 30.2203C21.5343 30.2775 21.6914 30.3046 21.8492 30.3H39.8892C40.049 30.3081 40.2087 30.2836 40.3587 30.228C40.5087 30.1724 40.6458 30.0869 40.7618 29.9767C40.8777 29.8665 40.9701 29.7338 41.0331 29.5868C41.0962 29.4398 41.1287 29.2815 41.1287 29.1215C41.1287 28.9616 41.0962 28.8033 41.0331 28.6562C40.9701 28.5092 40.8777 28.3766 40.7618 28.2664C40.6458 28.1561 40.5087 28.0706 40.3587 28.015C40.2087 27.9594 40.049 27.9349 39.8892 27.943V27.941Z" fill="#0EC64E"/>
</g>
<defs>
<clipPath id="clip0">
<rect width="50" height="67" fill="white"/>
</clipPath>
</defs>
</svg>
