<svg width="67" height="67" viewBox="0 0 67 67" fill="none" xmlns="http://www.w3.org/2000/svg">
<g clip-path="url(#clip0)">
<path fill-rule="evenodd" clip-rule="evenodd" d="M48.6801 51.6381C48.2574 51.6349 47.8394 51.5485 47.45 51.3841C47.0602 51.2213 46.7066 50.9829 46.4097 50.6825C46.1127 50.3821 45.8783 50.0257 45.72 49.6341L44.44 46.4971C44.3864 46.3738 44.3581 46.2411 44.3563 46.1066C44.3546 45.9722 44.3797 45.8388 44.4301 45.7141C44.4832 45.587 44.5608 45.4717 44.6586 45.3747C44.7564 45.2777 44.8725 45.2011 45 45.1491C45.1196 45.0959 45.2491 45.0686 45.38 45.0691C45.5847 45.0692 45.7846 45.1308 45.954 45.2458C46.1234 45.3608 46.2543 45.5239 46.33 45.7141L47.62 48.8511C47.6763 48.9922 47.7602 49.1206 47.8666 49.2289C47.973 49.3373 48.1 49.4233 48.24 49.4821C48.3826 49.5415 48.5355 49.5724 48.69 49.5731C48.8413 49.5728 48.991 49.5419 49.13 49.4821L52.51 48.0761C52.7932 47.954 53.0169 47.7254 53.1329 47.4397C53.249 47.154 53.2479 46.8341 53.13 46.5491L51.85 43.4161C51.7635 43.1946 51.754 42.9505 51.8229 42.7229C51.8918 42.4953 52.0352 42.2975 52.23 42.1611C54.3612 40.7364 56.184 38.8977 57.59 36.7542C57.6827 36.6137 57.809 36.4986 57.9574 36.4193C58.1058 36.34 58.2717 36.2991 58.44 36.3001C58.574 36.3001 58.7067 36.3273 58.83 36.3801L61.94 37.6801C62.0796 37.7374 62.2291 37.7666 62.38 37.7661C62.6106 37.7689 62.8365 37.7012 63.0277 37.5722C63.2189 37.4432 63.3662 37.259 63.45 37.0441L64.86 33.6331C64.9719 33.345 64.9684 33.0247 64.85 32.7391C64.7938 32.5979 64.71 32.4693 64.6035 32.3608C64.4971 32.2523 64.3701 32.166 64.23 32.1071L61.12 30.8131C60.9029 30.7151 60.7248 30.5473 60.6143 30.3363C60.5037 30.1253 60.467 29.8834 60.51 29.6491C61.01 27.129 61.01 24.5352 60.51 22.0151C60.4627 21.781 60.4976 21.5377 60.6087 21.3262C60.7198 21.1148 60.9004 20.948 61.12 20.8541L64.23 19.5541C64.5145 19.4359 64.7409 19.2103 64.86 18.9261C64.9722 18.636 64.9686 18.3137 64.85 18.0261L63.46 14.6151C63.4036 14.4741 63.3198 14.3456 63.2134 14.2373C63.107 14.129 62.98 14.0429 62.84 13.9841C62.6973 13.9248 62.5445 13.8939 62.39 13.8931C62.2423 13.8943 62.0963 13.9242 61.96 13.9811L58.85 15.2811C58.7297 15.3317 58.6005 15.3575 58.47 15.3571C58.298 15.3569 58.1287 15.3144 57.9769 15.2333C57.8252 15.1522 57.6958 15.0351 57.6 14.8922C56.1974 12.7492 54.3779 10.9104 52.25 9.48511C52.0536 9.34998 51.9097 9.15142 51.8423 8.92273C51.7749 8.69404 51.7882 8.44915 51.88 8.22913L53.16 5.09412C53.2778 4.80988 53.2787 4.49073 53.1626 4.20581C53.0465 3.92089 52.8229 3.69321 52.5401 3.57214L49.15 2.14911C49.0092 2.09151 48.8583 2.06231 48.7061 2.06311C48.5539 2.06391 48.4033 2.09473 48.2631 2.15381C48.1228 2.21289 47.9956 2.29907 47.8887 2.40741C47.7818 2.51575 47.6972 2.64405 47.64 2.7851L46.36 5.91815C46.2795 6.1062 46.1457 6.26654 45.9751 6.37939C45.8045 6.49224 45.6046 6.55261 45.4 6.5531C45.3362 6.55322 45.2725 6.54687 45.21 6.53412C43.9552 6.28496 42.6793 6.15868 41.4 6.1571C40.1405 6.15655 38.8841 6.28318 37.65 6.5351C37.5777 6.55013 37.504 6.55785 37.4301 6.55811C37.2287 6.55759 37.0322 6.49634 36.8662 6.38232C36.7003 6.26831 36.5727 6.10688 36.5 5.91913L35.21 2.78113C35.1535 2.64017 35.0697 2.51182 34.9633 2.4035C34.8568 2.29519 34.7299 2.20909 34.59 2.15015C34.4473 2.09109 34.2945 2.06048 34.14 2.06012C33.9888 2.06002 33.839 2.09067 33.7 2.15015L30.32 3.55713C30.0385 3.6792 29.8154 3.90586 29.6979 4.18927C29.5803 4.47268 29.5775 4.79065 29.69 5.07611L30.98 8.21613C31.0673 8.43849 31.0763 8.68398 31.0054 8.91211C30.9345 9.14024 30.7879 9.33741 30.59 9.47113C28.4641 10.8992 26.6451 12.738 25.24 14.8792C25.1462 15.0185 25.0197 15.1326 24.8715 15.2115C24.7233 15.2905 24.558 15.3319 24.39 15.3321C24.2528 15.3312 24.117 15.304 23.99 15.2521L20.89 13.9521C20.7469 13.8947 20.5942 13.8648 20.44 13.8641C20.2888 13.864 20.1391 13.8946 20 13.9541C19.72 14.075 19.4977 14.2997 19.38 14.5811L17.97 18.0001C17.8522 18.286 17.8524 18.6068 17.9704 18.8926C18.0885 19.1783 18.3148 19.4058 18.6 19.5251L21.7 20.8201C21.9556 20.924 22.1603 21.124 22.27 21.3771C22.3717 21.632 22.3681 21.9169 22.26 22.1691C22.1867 22.359 22.0576 22.5222 21.8899 22.6375C21.7222 22.7528 21.5236 22.8147 21.32 22.8151C21.186 22.8142 21.0535 22.787 20.93 22.7351L17.82 21.4351C17.0336 21.1018 16.4107 20.4714 16.0867 19.6811C15.7628 18.8908 15.764 18.0046 16.09 17.2151L17.5 13.8001C17.6573 13.4089 17.8907 13.0529 18.1866 12.7526C18.4825 12.4523 18.8351 12.2138 19.224 12.0508C19.6128 11.8878 20.0301 11.8036 20.4517 11.8032C20.8733 11.8027 21.2908 11.886 21.68 12.0481L24.02 13.0291L24.18 12.8151C25.4141 11.1375 26.8863 9.64887 28.5501 8.39612L28.77 8.23615L27.8001 5.86914C27.4745 5.07967 27.4736 4.19364 27.7975 3.4035C28.1214 2.61336 28.744 1.98289 29.53 1.64911L32.91 0.24115C33.3001 0.0796364 33.7179 -0.00396903 34.14 -0.00488281C34.775 -0.00294505 35.3949 0.188445 35.9204 0.544739C36.446 0.901033 36.8531 1.40602 37.09 1.99512L38.07 4.36212L38.33 4.32312C40.379 4.02179 42.461 4.02179 44.51 4.32312L44.78 4.36212L45.75 1.99512C45.907 1.60377 46.1403 1.24756 46.4362 0.947144C46.7321 0.64673 47.0848 0.408101 47.4738 0.245178C47.8627 0.0822553 48.2801 -0.00170843 48.7018 -0.00189209C49.1235 -0.00207575 49.541 0.0815566 49.9301 0.244141L53.3101 1.6651C53.7008 1.82689 54.0551 2.06525 54.3522 2.36615C54.6493 2.66705 54.8832 3.0244 55.0401 3.41711C55.2036 3.80815 55.2877 4.22777 55.2877 4.65161C55.2877 5.07546 55.2036 5.49507 55.0401 5.88611L54.07 8.25214L54.2901 8.41315C55.9503 9.66579 57.4191 11.1538 58.65 12.8301L58.8101 13.0461L61.15 12.0651C61.5363 11.903 61.9511 11.8198 62.37 11.8201C63.0068 11.8195 63.6291 12.0097 64.1568 12.3662C64.6844 12.7227 65.0929 13.2291 65.33 13.8201L66.73 17.2361C67.0495 18.0281 67.0495 18.9131 66.73 19.7051C66.5698 20.0973 66.3336 20.4539 66.0349 20.7545C65.7363 21.055 65.3812 21.2934 64.99 21.4561L62.65 22.4371L62.69 22.7021C62.98 24.7734 62.98 26.8749 62.69 28.9461L62.65 29.2111L64.99 30.1921C65.3803 30.3529 65.7345 30.5902 66.0316 30.8901C66.3288 31.19 66.5628 31.5463 66.72 31.9381C67.0482 32.7298 67.0518 33.6188 66.73 34.4131L65.32 37.8271C65.0813 38.417 64.6723 38.9224 64.145 39.2786C63.6178 39.6349 62.9963 39.8259 62.36 39.8271C61.941 39.8272 61.5263 39.7435 61.14 39.5811L58.7901 38.6011L58.64 38.8151C57.4023 40.4927 55.9268 41.981 54.26 43.2331L54.0501 43.3931L55.02 45.7611C55.3395 46.5531 55.3395 47.4381 55.02 48.2301C54.8597 48.6222 54.6233 48.9788 54.3247 49.2793C54.0261 49.5798 53.6711 49.8183 53.28 49.9811L49.9 51.3891C49.514 51.5523 49.0992 51.637 48.6801 51.6381V51.6381ZM41.47 36.6931C41.3352 36.6936 41.2017 36.6677 41.077 36.6166C40.9524 36.5655 40.8389 36.4903 40.7433 36.3954C40.6477 36.3005 40.5717 36.1878 40.5197 36.0635C40.4676 35.9392 40.4405 35.8059 40.44 35.6711C40.4355 35.3947 40.5397 35.1276 40.73 34.9271C40.8244 34.8291 40.938 34.7514 41.0635 34.6988C41.189 34.6462 41.3239 34.6197 41.46 34.6211C43.7538 34.5491 45.929 33.5853 47.5233 31.9346C49.1176 30.2838 50.0053 28.0763 49.9975 25.7814C49.9896 23.4865 49.087 21.2852 47.4815 19.6453C45.876 18.0055 43.6943 17.0565 41.4 17.0001H41.34C40.1916 17.0057 39.0559 17.2409 37.9998 17.6919C36.9436 18.1429 35.9882 18.8005 35.19 19.6261C33.5598 21.2964 32.6575 23.5443 32.6801 25.8781C32.6839 26.1541 32.5798 26.4207 32.39 26.6211C32.2967 26.7177 32.1848 26.7945 32.0611 26.8469C31.9373 26.8993 31.8044 26.9263 31.6701 26.9261H31.65C31.3795 26.9251 31.1203 26.817 30.9292 26.6255C30.7381 26.434 30.6305 26.1747 30.63 25.9041C30.6133 24.4769 30.8786 23.0605 31.4105 21.736C31.9425 20.4116 32.7307 19.2052 33.73 18.1861C34.7185 17.1686 35.8995 16.3578 37.2042 15.8008C38.509 15.2439 39.9114 14.9521 41.33 14.9421H41.41C43.5449 14.9639 45.6262 15.6125 47.3954 16.8076C49.1646 18.0026 50.5435 19.6912 51.3607 21.6636C52.178 23.6359 52.3974 25.805 51.992 27.9011C51.5865 29.9972 50.5738 31.9279 49.08 33.4531C48.0935 34.4734 46.913 35.286 45.6078 35.8433C44.3026 36.4005 42.8991 36.6912 41.48 36.6981H41.47V36.6931ZM18.34 67.0001C17.6448 66.992 16.9808 66.7099 16.4922 66.2153C16.0036 65.7207 15.7297 65.0534 15.73 64.3581V62.7171L15.48 62.6491C14.1804 62.2959 12.9331 61.7731 11.77 61.0941L11.55 60.9611L10.4 62.1241C10.16 62.3703 9.87303 62.566 9.55617 62.6996C9.2393 62.8332 8.89888 62.902 8.55501 62.902C8.21113 62.902 7.87077 62.8332 7.55391 62.6996C7.23705 62.566 6.95011 62.3703 6.71004 62.1241L4.83003 60.2241C4.34295 59.7269 4.07015 59.0586 4.07015 58.3626C4.07015 57.6666 4.34295 56.9983 4.83003 56.5011L5.98 55.3381L5.84999 55.1091C5.17395 53.9369 4.65614 52.6803 4.31001 51.3721L4.24001 51.1181H2.61403C1.91842 51.1139 1.2528 50.8342 0.762894 50.3404C0.272986 49.8465 -0.00131975 49.1787 1.55872e-05 48.4831V45.7921C-0.00238011 45.0958 0.271468 44.427 0.76149 43.9323C1.25151 43.4375 1.91772 43.1574 2.61403 43.1531H4.24001L4.31001 42.8991C4.65583 41.5908 5.17366 40.3342 5.84999 39.1621L5.98 38.9331L4.83003 37.7701C4.34295 37.273 4.07015 36.6047 4.07015 35.9086C4.07015 35.2126 4.34295 34.5443 4.83003 34.0471L6.71004 32.1471C6.94773 31.8991 7.23345 31.7023 7.54982 31.5685C7.86619 31.4347 8.20652 31.3669 8.55 31.3691C8.89453 31.3698 9.23552 31.4389 9.55312 31.5724C9.87071 31.706 10.1586 31.9013 10.4 32.1471L11.55 33.3101L11.77 33.1771C12.9331 32.4981 14.1804 31.9753 15.48 31.6221L15.73 31.5531V29.9101C15.7268 29.2142 15.9999 28.5455 16.4892 28.0508C16.9785 27.556 17.6442 27.2756 18.34 27.2711H21.01C21.7059 27.2756 22.3715 27.556 22.8609 28.0508C23.3502 28.5455 23.6232 29.2142 23.62 29.9101V31.5531L23.87 31.6221C25.1664 31.9753 26.4105 32.4982 27.57 33.1771L27.8001 33.3101L28.95 32.1471C29.1896 31.899 29.4772 31.7021 29.7952 31.5684C30.1132 31.4346 30.4551 31.3669 30.8001 31.3691C31.1431 31.37 31.4824 31.4393 31.7984 31.5729C32.1143 31.7065 32.4004 31.9017 32.64 32.1471L34.52 34.0471C34.7649 34.2911 34.959 34.5812 35.0912 34.9006C35.2234 35.22 35.291 35.5625 35.2901 35.9081C35.2875 36.6058 35.0109 37.2745 34.52 37.7701L33.37 38.9331L33.5 39.1621C34.1679 40.3383 34.6853 41.5938 35.0401 42.8991L35.1 43.1531H36.73C37.4269 43.1574 38.0938 43.4373 38.5847 43.9319C39.0757 44.4264 39.3508 45.0952 39.35 45.7921V48.4831C39.3508 49.18 39.0757 49.8488 38.5847 50.3434C38.0938 50.8379 37.4269 51.1179 36.73 51.1221H35.1L35.0401 51.3761C34.6852 52.6813 34.1677 53.9368 33.5 55.1131L33.37 55.3421L34.52 56.5051C34.765 56.7492 34.9592 57.0395 35.0913 57.3591C35.2235 57.6787 35.2911 58.0213 35.2901 58.3671C35.2874 59.0644 35.0109 59.7328 34.52 60.2281L32.64 62.1281C32.4016 62.3751 32.1157 62.5714 31.7995 62.7051C31.4833 62.8388 31.1434 62.9071 30.8001 62.9061C30.4554 62.906 30.1143 62.8372 29.7966 62.7036C29.479 62.57 29.1911 62.3743 28.95 62.1281L27.8001 60.9651L27.57 61.0981C26.4105 61.7771 25.1664 62.2999 23.87 62.6531L23.62 62.7211V64.3651C23.6232 65.061 23.3502 65.7297 22.8609 66.2244C22.3715 66.7192 21.7059 66.9997 21.01 67.0042H18.34V67.0001ZM11.41 58.6131C11.6137 58.617 11.8118 58.6802 11.98 58.7951C13.4887 59.8127 15.1796 60.5295 16.96 60.9061C17.1945 60.9531 17.4054 61.08 17.5567 61.2651C17.7081 61.4502 17.7905 61.682 17.79 61.9211V64.3891C17.7891 64.4632 17.8029 64.5368 17.8306 64.6056C17.8584 64.6743 17.8995 64.7369 17.9516 64.7896C18.0036 64.8424 18.0657 64.8843 18.1341 64.9128C18.2025 64.9414 18.2759 64.9561 18.35 64.9561H21.02C21.0942 64.9561 21.1676 64.9414 21.236 64.9128C21.3044 64.8843 21.3664 64.8424 21.4185 64.7896C21.4706 64.7369 21.5117 64.6743 21.5394 64.6056C21.5672 64.5368 21.581 64.4632 21.58 64.3891V61.9211C21.5801 61.6823 21.6628 61.4509 21.8141 61.2661C21.9654 61.0812 22.1759 60.9544 22.41 60.9071C24.1964 60.5522 25.8933 59.8422 27.4 58.8191C27.5633 58.7023 27.7592 58.64 27.96 58.6411C28.2333 58.641 28.4957 58.7488 28.69 58.9411L30.4201 60.6831C30.47 60.7366 30.5304 60.7794 30.5974 60.8088C30.6645 60.8382 30.7369 60.8536 30.8101 60.8541C30.9576 60.851 31.0977 60.7895 31.2 60.6831L33.08 58.7831C33.1337 58.732 33.1766 58.6705 33.2058 58.6024C33.2351 58.5342 33.2501 58.4608 33.2501 58.3866C33.2501 58.3124 33.2351 58.2391 33.2058 58.1709C33.1766 58.1027 33.1337 58.0412 33.08 57.9901L31.35 56.2471C31.1868 56.0738 31.0863 55.8508 31.0646 55.6138C31.0428 55.3767 31.1011 55.1393 31.23 54.9391C32.247 53.4161 32.9507 51.7059 33.3001 49.9081C33.3424 49.6736 33.4656 49.4612 33.6483 49.3081C33.831 49.155 34.0617 49.0708 34.3001 49.0701H36.75C36.8241 49.0701 36.8976 49.0554 36.966 49.0269C37.0344 48.9983 37.0964 48.9564 37.1485 48.9036C37.2005 48.8509 37.2417 48.7884 37.2694 48.7196C37.2972 48.6509 37.311 48.5772 37.3101 48.5031V45.8201C37.311 45.746 37.2972 45.6725 37.2694 45.6037C37.2417 45.5349 37.2005 45.4724 37.1485 45.4196C37.0964 45.3669 37.0344 45.325 36.966 45.2964C36.8976 45.2678 36.8241 45.2531 36.75 45.2531H34.3001C34.0619 45.2523 33.8315 45.1682 33.6488 45.0153C33.4662 44.8624 33.3428 44.6505 33.3001 44.4161C32.9511 42.6174 32.2474 40.9061 31.23 39.3821C31.0991 39.1829 31.0396 38.9451 31.0614 38.7076C31.0832 38.4702 31.185 38.2472 31.35 38.0751L33.08 36.3331C33.1336 36.2819 33.1764 36.2203 33.2056 36.152C33.2348 36.0838 33.2498 36.0103 33.2498 35.9361C33.2498 35.8619 33.2348 35.7885 33.2056 35.7202C33.1764 35.652 33.1336 35.5904 33.08 35.5391L31.2 33.6391C31.1502 33.5854 31.0898 33.5426 31.0227 33.5134C30.9556 33.4841 30.8833 33.4689 30.8101 33.4689C30.7369 33.4689 30.6644 33.4841 30.5973 33.5134C30.5302 33.5426 30.4699 33.5854 30.4201 33.6391L28.69 35.3821C28.4989 35.5731 28.2401 35.6809 27.97 35.6821C27.7636 35.6832 27.5617 35.6226 27.39 35.5081C25.8877 34.484 24.1937 33.7744 22.41 33.4221C22.1756 33.3751 21.9647 33.2483 21.8134 33.0632C21.662 32.8781 21.5795 32.6462 21.58 32.4071V29.9401C21.581 29.866 21.5672 29.7923 21.5394 29.7235C21.5117 29.6547 21.4706 29.5921 21.4185 29.5392C21.3665 29.4864 21.3044 29.4445 21.236 29.4158C21.1676 29.3871 21.0942 29.3723 21.02 29.3721H18.35C18.2758 29.3723 18.2024 29.3871 18.134 29.4158C18.0656 29.4445 18.0036 29.4864 17.9515 29.5392C17.8994 29.5921 17.8583 29.6547 17.8306 29.7235C17.8029 29.7923 17.7891 29.866 17.79 29.9401V32.4071C17.7899 32.6461 17.7072 32.8776 17.556 33.0626C17.4047 33.2476 17.1942 33.3746 16.96 33.4221C15.1767 33.7762 13.4829 34.486 11.98 35.5091C11.8133 35.6267 11.614 35.6893 11.41 35.6881C11.137 35.6863 10.8754 35.5788 10.68 35.3881L8.96004 33.6201C8.9098 33.5668 8.84939 33.524 8.78242 33.4943C8.71546 33.4646 8.64327 33.4486 8.57002 33.4471C8.49533 33.4476 8.42148 33.463 8.3528 33.4924C8.28412 33.5217 8.22196 33.5644 8.17 33.6181L6.28999 35.5181C6.18728 35.6246 6.1299 35.7667 6.1299 35.9146C6.1299 36.0625 6.18728 36.2047 6.28999 36.3111L8.02003 38.0541C8.18529 38.2263 8.28717 38.4495 8.30898 38.6871C8.33078 38.9248 8.2712 39.1628 8.14003 39.3621C7.12567 40.8855 6.42534 42.5958 6.08003 44.3931C6.03397 44.6278 5.90829 44.8393 5.72426 44.992C5.54023 45.1447 5.30914 45.2292 5.07002 45.2311H2.62801C2.55367 45.2307 2.48003 45.2451 2.41133 45.2736C2.34264 45.302 2.28025 45.3438 2.22792 45.3966C2.17559 45.4494 2.13433 45.5121 2.10652 45.5811C2.07872 45.65 2.06493 45.7238 2.06599 45.7981V48.4891C2.06493 48.5635 2.07872 48.6372 2.10652 48.7062C2.13433 48.7751 2.17559 48.8378 2.22792 48.8906C2.28025 48.9434 2.34264 48.9853 2.41133 49.0137C2.48003 49.0421 2.55367 49.0566 2.62801 49.0562H5.07002C5.309 49.0581 5.54001 49.1424 5.72401 49.2949C5.90802 49.4474 6.03376 49.6587 6.08003 49.8931C6.42571 51.6909 7.12599 53.4019 8.14003 54.9261C8.27347 55.1245 8.33438 55.3629 8.31252 55.601C8.29065 55.839 8.18737 56.0623 8.02003 56.2331L6.28999 57.9761C6.18887 58.0834 6.13258 58.2252 6.13258 58.3726C6.13258 58.52 6.18887 58.6618 6.28999 58.7691L8.17 60.6691C8.22068 60.7231 8.28187 60.7661 8.34981 60.7955C8.41774 60.8249 8.491 60.84 8.56502 60.84C8.63904 60.84 8.71229 60.8249 8.78023 60.7955C8.84816 60.7661 8.90935 60.7231 8.96004 60.6691L10.68 58.9271C10.8723 58.7301 11.1347 58.6172 11.41 58.6131V58.6131ZM19.68 55.0131C18.1227 55.0318 16.5951 54.587 15.2912 53.7354C13.9872 52.8837 12.9659 51.6636 12.3571 50.2302C11.7482 48.7967 11.5793 47.2146 11.8717 45.6849C12.1641 44.1552 12.9047 42.747 13.9994 41.6392C15.0941 40.5314 16.4934 39.7741 18.0195 39.4635C19.5456 39.1529 21.1296 39.303 22.5702 39.8947C24.0108 40.4865 25.2429 41.4931 26.1101 42.7868C26.9772 44.0805 27.44 45.6027 27.44 47.1601C27.4466 49.2286 26.6341 51.2157 25.18 52.6869C23.7259 54.1581 21.7485 54.9937 19.68 55.0111V55.0131ZM19.68 41.3792C18.5345 41.369 17.4118 41.6994 16.4545 42.3285C15.4971 42.9575 14.7483 43.8569 14.3029 44.9123C13.8575 45.9677 13.7357 47.1316 13.953 48.2563C14.1702 49.3811 14.7167 50.416 15.5231 51.2296C16.3296 52.0432 17.3595 52.5988 18.4823 52.826C19.6051 53.0533 20.77 52.9418 21.8294 52.5058C22.8887 52.0698 23.7946 51.3289 24.4321 50.3771C25.0696 49.4254 25.4099 48.3056 25.41 47.1601C25.4156 45.6338 24.8154 44.1677 23.7411 43.0835C22.6668 41.9993 21.2063 41.3856 19.68 41.3771V41.3792Z" fill="#0EC64E"/>
</g>
<defs>
<clipPath id="clip0">
<rect width="67" height="67" fill="white"/>
</clipPath>
</defs>
</svg>
