<svg width="72" height="49" viewBox="0 0 72 49" fill="none" xmlns="http://www.w3.org/2000/svg">
<g clip-path="url(#clip0)">
<path fill-rule="evenodd" clip-rule="evenodd" d="M60.95 48.9998C60.6171 48.9996 60.2978 48.8677 60.0618 48.633C59.8257 48.3982 59.6921 48.0797 59.6899 47.7468C59.6899 42.2449 57.5043 36.9683 53.6139 33.0779C49.7234 29.1875 44.4469 27.0019 38.9449 27.0019C33.443 27.0019 28.1666 29.1875 24.2761 33.0779C20.3857 36.9683 18.2 42.2449 18.2 47.7468C18.2 48.081 18.0672 48.4015 17.8309 48.6378C17.5946 48.8741 17.2741 49.0069 16.9399 49.0069C16.6058 49.0069 16.2854 48.8741 16.0491 48.6378C15.8128 48.4015 15.6801 48.081 15.6801 47.7468C15.6801 41.5766 18.1311 35.659 22.4941 31.296C26.8572 26.9329 32.7747 24.4818 38.9449 24.4818C45.1152 24.4818 51.0328 26.9329 55.3959 31.296C59.7589 35.659 62.21 41.5766 62.21 47.7468C62.2097 47.9119 62.1769 48.0753 62.1134 48.2276C62.0499 48.38 61.957 48.5183 61.84 48.6347C61.7229 48.7511 61.5841 48.8433 61.4314 48.906C61.2787 48.9686 61.115 49.0005 60.95 48.9998V48.9998ZM38.95 26.4499C36.3371 26.437 33.7866 25.6504 31.6204 24.1895C29.4541 22.7285 27.7691 20.6586 26.7781 18.241C25.7871 15.8233 25.5345 13.1663 26.0521 10.6052C26.5697 8.04405 27.8344 5.69366 29.6865 3.85061C31.5386 2.00755 33.8951 0.754454 36.4587 0.249411C39.0223 -0.255633 41.6782 0.0100185 44.0909 1.01287C46.5037 2.01572 48.5653 3.71083 50.0156 5.88424C51.466 8.05765 52.24 10.612 52.24 13.2248C52.2275 16.7398 50.8212 20.1062 48.3297 22.5855C45.8382 25.0649 42.4649 26.4546 38.95 26.4499ZM38.95 2.50585C36.8319 2.51573 34.7641 3.15285 33.0078 4.33681C31.2515 5.52078 29.8853 7.19849 29.0817 9.15822C28.278 11.118 28.0728 13.2718 28.4922 15.348C28.9115 17.4242 29.9366 19.3297 31.4379 20.8239C32.9392 22.3181 34.8494 23.334 36.9276 23.7435C39.0058 24.153 41.1586 23.9376 43.1145 23.1247C45.0704 22.3117 46.7416 20.9375 47.9172 19.1756C49.0928 17.4137 49.7201 15.343 49.72 13.2248C49.7081 10.3768 48.568 7.64958 46.5493 5.64049C44.5307 3.6314 41.798 2.50424 38.95 2.50585V2.50585ZM1.26001 43.9928C1.095 43.9936 0.931391 43.9619 0.778687 43.8993C0.625982 43.8368 0.487172 43.7447 0.370117 43.6284C0.253063 43.5121 0.16007 43.3738 0.0965576 43.2215C0.0330456 43.0692 0.000261293 42.9059 0 42.7409C0 31.8029 8.31999 23.5548 19.36 23.5548C22.8513 23.5877 26.2713 24.5474 29.27 26.3358C29.5099 26.4734 29.6975 26.6865 29.8035 26.9419C29.9095 27.1973 29.9279 27.4806 29.856 27.7476C29.784 28.0146 29.6257 28.2502 29.4058 28.4178C29.1858 28.5854 28.9165 28.6754 28.64 28.6738C28.4189 28.6739 28.2017 28.616 28.01 28.5058C25.3938 26.9397 22.4089 26.0957 19.36 26.0598C15.2012 25.9595 11.1592 27.4409 8.05029 30.205C4.94135 32.9691 2.99704 36.8099 2.60999 40.9519L2.55005 41.4878H14.72C14.8914 41.4759 15.0635 41.4995 15.2255 41.5569C15.3874 41.6143 15.5359 41.7045 15.6615 41.8217C15.7871 41.939 15.8873 42.0808 15.9558 42.2384C16.0243 42.396 16.0597 42.566 16.0597 42.7378C16.0597 42.9097 16.0243 43.0797 15.9558 43.2373C15.8873 43.3949 15.7871 43.5367 15.6615 43.654C15.5359 43.7712 15.3874 43.8613 15.2255 43.9188C15.0635 43.9762 14.8914 43.9997 14.72 43.9878H1.26001V43.9928ZM19.4399 25.7749C17.6084 25.7686 15.8067 25.3112 14.194 24.443C12.5813 23.5748 11.2074 22.3227 10.1937 20.7972C9.18006 19.2718 8.55785 17.52 8.3822 15.697C8.20655 13.8739 8.48287 12.0356 9.18665 10.3446C9.89042 8.6537 11 7.16223 12.4172 6.00213C13.8345 4.84202 15.5158 4.04901 17.3125 3.69323C19.1092 3.33745 20.9658 3.42985 22.7183 3.96227C24.4707 4.49469 26.0649 5.45074 27.36 6.74584C27.4778 6.86149 27.5712 6.99956 27.6348 7.15191C27.6983 7.30425 27.7307 7.46777 27.73 7.63283C27.7315 7.79834 27.6999 7.96246 27.637 8.11556C27.5741 8.26866 27.4812 8.40762 27.3638 8.52428C27.2464 8.64094 27.1069 8.73296 26.9534 8.79488C26.7999 8.8568 26.6355 8.88739 26.47 8.88485C26.3063 8.88551 26.1442 8.85346 25.993 8.79061C25.8419 8.72776 25.7049 8.63538 25.59 8.51885C24.3343 7.26443 22.7228 6.42717 20.9745 6.12099C19.2262 5.81482 17.4261 6.05459 15.8188 6.80764C14.2116 7.56069 12.8754 8.7905 11.9918 10.3298C11.1082 11.8691 10.7203 13.6433 10.8806 15.4109C11.0409 17.1785 11.7418 18.8538 12.8879 20.2091C14.0341 21.5643 15.5698 22.5336 17.2863 22.9852C19.0027 23.4368 20.8167 23.3487 22.4813 22.733C24.146 22.1173 25.5805 21.0037 26.59 19.5438C26.7805 19.2704 27.0718 19.0836 27.3999 19.0246C27.728 18.9655 28.066 19.039 28.34 19.2288C28.6124 19.4192 28.7992 19.7091 28.86 20.0358C28.8911 20.1978 28.8885 20.3643 28.8524 20.5252C28.8163 20.6861 28.7474 20.8378 28.65 20.9708C27.6156 22.4545 26.2379 23.6661 24.6343 24.5025C23.0307 25.339 21.2486 25.7755 19.4399 25.7749V25.7749ZM61.37 43.9928C61.1986 44.0047 61.0265 43.9812 60.8645 43.9238C60.7025 43.8664 60.5541 43.7762 60.4285 43.659C60.3028 43.5417 60.2027 43.3999 60.1342 43.2423C60.0657 43.0847 60.0304 42.9147 60.0304 42.7428C60.0304 42.571 60.0657 42.401 60.1342 42.2434C60.2027 42.0858 60.3028 41.9439 60.4285 41.8267C60.5541 41.7094 60.7025 41.6193 60.8645 41.5619C61.0265 41.5045 61.1986 41.4809 61.37 41.4928H69.4399L69.38 40.9519C68.9325 37.1377 67.1865 33.5936 64.4352 30.9144C61.6839 28.2352 58.0947 26.5839 54.27 26.2378C53.9732 26.204 53.698 26.0663 53.493 25.8491C53.2881 25.6318 53.1665 25.3491 53.15 25.0509C53.1339 24.7505 53.2274 24.4545 53.4132 24.218C53.599 23.9814 53.8644 23.8204 54.16 23.7649C56.1209 23.4106 57.8957 22.3807 59.1763 20.854C60.4568 19.3274 61.1623 17.4004 61.17 15.4078C61.17 10.7198 56.74 6.45183 51.87 6.45183C51.7054 6.45183 51.5425 6.41944 51.3905 6.35647C51.2385 6.2935 51.1004 6.20118 50.984 6.08483C50.8677 5.96848 50.7754 5.83036 50.7124 5.67834C50.6494 5.52631 50.6169 5.36339 50.6169 5.19884C50.6169 5.0343 50.6494 4.87134 50.7124 4.71932C50.7754 4.5673 50.8677 4.42918 50.984 4.31283C51.1004 4.19647 51.2385 4.10419 51.3905 4.04122C51.5425 3.97825 51.7054 3.94585 51.87 3.94585C58.17 3.94585 63.6899 9.30183 63.6899 15.4078C63.6978 17.0891 63.3143 18.7491 62.5697 20.2565C61.8251 21.7639 60.74 23.0773 59.4 24.0929L58.7 24.6258L59.52 24.9368C63.1477 26.2993 66.2854 28.715 68.53 31.8739C70.7913 35.0478 72.0044 38.8488 72 42.7458C71.9997 42.9108 71.967 43.0742 71.9034 43.2265C71.8399 43.3788 71.7469 43.5171 71.6299 43.6334C71.5128 43.7497 71.374 43.8418 71.2213 43.9043C71.0686 43.9669 70.905 43.9986 70.74 43.9978H61.37V43.9928Z" fill="#0EC64E"/>
</g>
<defs>
<clipPath id="clip0">
<rect width="72" height="49" fill="white"/>
</clipPath>
</defs>
</svg>
