<svg width="62" height="58" viewBox="0 0 62 58" fill="none" xmlns="http://www.w3.org/2000/svg">
<g clip-path="url(#clip0)">
<path fill-rule="evenodd" clip-rule="evenodd" d="M57.3681 46.453L47.2681 41.989C46.9573 41.7877 46.706 41.507 46.5401 41.176L53.2831 41.17C55.0231 41.3202 56.7745 41.0789 58.4091 40.464C58.8281 40.2782 59.2004 40.0013 59.4988 39.6534C59.7972 39.3055 60.0142 38.8954 60.1341 38.453C60.2599 38.0043 60.2858 37.5334 60.2097 37.0736C60.1337 36.6138 59.9577 36.1763 59.6941 35.792C57.7671 32.992 53.2681 25.68 53.1281 18.263C53.1281 18.135 52.7181 5.521 40.5111 5.418C38.814 5.41969 37.131 5.72447 35.5411 6.31799C35.1801 5.37159 34.6588 4.49444 34.0001 3.72501C31.8781 1.25301 28.4341 0 23.7631 0C19.0921 0 15.6471 1.25299 13.5241 3.72299C11.9359 5.64814 11.1607 8.11654 11.3631 10.604V16.213C10.6983 16.9823 10.3315 17.9643 10.3291 18.981V23.2C10.3278 23.8271 10.4659 24.4465 10.7335 25.0136C11.001 25.5807 11.3913 26.0813 11.8761 26.479C12.5863 29.2298 13.8149 31.8198 15.4961 34.11V37.6C15.4975 38.0973 15.3665 38.5861 15.1164 39.016C14.8663 39.4459 14.5061 39.8014 14.0731 40.046L4.85507 45.178C3.37573 46.0123 2.14585 47.2263 1.29238 48.6947C0.438922 50.1631 -0.00717764 51.8326 8.73373e-05 53.531V58H62.0001V54.1C62.0118 52.5214 61.585 50.9707 60.7671 49.6205C59.9493 48.2703 58.7725 47.1737 57.3681 46.453V46.453ZM45.4681 55.891H2.06808V53.531C2.06231 52.209 2.40977 50.9095 3.07449 49.7667C3.73921 48.624 4.69708 47.6795 5.84909 47.031L15.0671 41.899C15.8288 41.4696 16.462 40.8446 16.9015 40.0887C17.3409 39.3328 17.5707 38.4734 17.5671 37.599V33.361L17.3261 33.067C15.6479 30.8547 14.4479 28.3177 13.8021 25.617L13.7081 25.199L13.3561 24.967C13.0625 24.7748 12.8214 24.5125 12.6545 24.2039C12.4876 23.8952 12.4002 23.5499 12.4001 23.199V18.981C12.4004 18.6877 12.4621 18.3977 12.5813 18.1297C12.7005 17.8617 12.8745 17.6216 13.0921 17.425L13.4331 17.112V10.545L13.4241 10.406C13.2731 8.49336 13.8676 6.59642 15.0831 5.112C16.7951 3.118 19.7171 2.112 23.7671 2.112C27.8021 2.112 30.7181 3.11199 32.4321 5.09399C33.175 5.96209 33.6905 7.00127 33.9321 8.11801C33.9491 8.19201 33.9641 8.26401 33.9791 8.33701C33.9941 8.41001 34.0091 8.48699 34.0201 8.55899C34.0311 8.63099 34.0451 8.719 34.0561 8.797C34.0651 8.853 34.0731 8.90999 34.0791 8.96399C34.0951 9.09399 34.1071 9.22101 34.1151 9.33801C34.1156 9.34701 34.1156 9.356 34.1151 9.36499C34.1231 9.47899 34.1281 9.587 34.1311 9.685C34.1311 9.704 34.1311 9.72001 34.1311 9.73901C34.1311 9.82601 34.1311 9.90899 34.1311 9.98199V10.014C34.1311 10.262 34.1101 10.409 34.1101 10.414L34.1021 17.114L34.4431 17.428C34.6606 17.6245 34.8345 17.8644 34.9537 18.1323C35.0729 18.4001 35.1347 18.6899 35.1351 18.983V23.2C35.1356 23.6465 34.9933 24.0814 34.729 24.4412C34.4647 24.801 34.0923 25.0669 33.6661 25.2L33.1511 25.361L32.9861 25.883C32.3193 28.0274 31.3321 30.0587 30.0581 31.908C29.7895 32.3017 29.5008 32.6812 29.1931 33.045L28.9351 33.345V37.695C28.9368 37.9583 28.9589 38.2211 29.0011 38.481C29.0101 38.535 29.0241 38.588 29.0351 38.643C29.0749 38.8536 29.1284 39.0613 29.1951 39.265C29.2101 39.313 29.2271 39.358 29.2441 39.405C29.3238 39.624 29.4187 39.8372 29.5281 40.043C29.5411 40.067 29.5521 40.091 29.5651 40.114C29.7134 40.3842 29.8876 40.6394 30.0851 40.876L30.3211 41.176H30.3611C30.7194 41.5388 31.1328 41.8425 31.5861 42.076L41.4571 47.113C42.6737 47.7364 43.6931 48.6857 44.4016 49.8549C45.11 51.024 45.4796 52.367 45.4691 53.734V55.889L45.4681 55.891ZM59.9341 55.891H47.5341V53.736C47.5474 51.9799 47.0727 50.2545 46.1631 48.7523C45.2534 47.2501 43.9445 46.03 42.3821 45.228L35.2961 41.611C35.4743 41.1911 35.49 40.7199 35.3401 40.289C35.2252 39.933 35.0002 39.6227 34.6975 39.4029C34.3949 39.1831 34.0302 39.0651 33.6561 39.066H31.3651C31.3212 38.9782 31.2821 38.8881 31.2481 38.796C31.0769 38.4551 30.9921 38.0773 31.0011 37.696V34.13C31.2381 33.835 31.4871 33.499 31.7441 33.13C33.0441 31.2451 34.0716 29.1861 34.7961 27.014C35.5188 26.6736 36.129 26.1337 36.555 25.458C36.9809 24.7822 37.2047 23.9988 37.2001 23.2V18.982C37.1975 17.9655 36.831 16.9836 36.1671 16.214V10.605C36.2279 9.85223 36.1987 9.09487 36.0801 8.349C37.4934 7.80036 38.997 7.52121 40.5131 7.526C50.6821 7.612 51.0531 17.872 51.0631 18.305C51.2151 26.305 55.9631 34.046 58.0041 37.005C58.0906 37.1309 58.1482 37.2743 58.1731 37.425C58.198 37.5757 58.1895 37.73 58.1481 37.877C58.1105 38.0197 58.0412 38.1522 57.9455 38.2645C57.8498 38.3769 57.73 38.4662 57.5951 38.526C56.2461 39.0064 54.8096 39.191 53.3831 39.067H46.2711C45.9443 39.067 45.623 39.1519 45.3389 39.3134C45.0547 39.4748 44.8174 39.7072 44.6501 39.988C44.4784 40.2688 44.3803 40.5884 44.365 40.9172C44.3496 41.246 44.4174 41.5734 44.5621 41.869C44.9412 42.7256 45.5855 43.4376 46.4001 43.9L56.4721 48.352C57.5238 48.8973 58.4041 49.723 59.0157 50.7377C59.6272 51.7523 59.9461 52.9164 59.9371 54.101V55.891H59.9341Z" fill="#0EC64E"/>
</g>
<defs>
<clipPath id="clip0">
<rect width="62" height="58" fill="white"/>
</clipPath>
</defs>
</svg>
