<svg xmlns="http://www.w3.org/2000/svg" width="35" height="35" viewBox="0 0 35 35">
  <metadata><?xpacket begin="﻿" id="W5M0MpCehiHzreSzNTczkc9d"?>
<x:xmpmeta xmlns:x="adobe:ns:meta/" x:xmptk="Adobe XMP Core 5.6-c138 79.159824, 2016/09/14-01:09:01        ">
   <rdf:RDF xmlns:rdf="http://www.w3.org/1999/02/22-rdf-syntax-ns#">
      <rdf:Description rdf:about=""/>
   </rdf:RDF>
</x:xmpmeta>
                                                                                                    
                                                                                                    
                                                                                                    
                                                                                                    
                                                                                                    
                                                                                                    
                                                                                                    
                                                                                                    
                                                                                                    
                                                                                                    
                                                                                                    
                                                                                                    
                                                                                                    
                                                                                                    
                                                                                                    
                                                                                                    
                                                                                                    
                                                                                                    
                                                                                                    
                                                                                                    
                           
<?xpacket end="w"?></metadata>
<defs>
    <style>
      .cls-1 {
        fill: #ff3b69;
        fill-rule: evenodd;
      }
    </style>
  </defs>
  <path id="blog" class="cls-1" d="M86.177,1025.8h4.062a2,2,0,0,0,0-3.99H86.177A2,2,0,0,0,86.177,1025.8Zm0-2.22h4.062a0.225,0.225,0,1,1,0,.45H86.177A0.225,0.225,0,1,1,86.177,1023.58Zm7.016,4.88H85.808a1.99,1.99,0,1,0,0,3.98h7.385A1.99,1.99,0,1,0,93.193,1028.46Zm0,2.22H85.808a0.225,0.225,0,1,1,0-.45h7.385A0.225,0.225,0,1,1,93.193,1030.68Zm8.682-15.56A17.505,17.505,0,1,0,107,1027.5,17.4,17.4,0,0,0,101.875,1015.12Zm-1.249,23.5a15.733,15.733,0,1,1,4.608-11.12A15.6,15.6,0,0,1,100.626,1038.62Zm-3-15.33H95.552v-2.44a3.18,3.18,0,0,0-2.225-3.08,6.153,6.153,0,0,0-1.981-.39H87.654a7.539,7.539,0,0,0-7.529,7.53v5.17a7.539,7.539,0,0,0,7.529,7.53h3.693a7.539,7.539,0,0,0,7.529-7.53v-5.54A1.226,1.226,0,0,0,97.624,1023.29Zm-0.513,6.79a5.775,5.775,0,0,1-5.764,5.77H87.654a5.774,5.774,0,0,1-5.764-5.77v-5.17a5.766,5.766,0,0,1,5.764-5.76h3.689a4.4,4.4,0,0,1,1.374.27,1.422,1.422,0,0,1,1.07,1.43v2.59a1.59,1.59,0,0,0,1.621,1.62h1.7v5.02Z" transform="translate(-72 -1010)"/>
</svg>
