<svg xmlns="http://www.w3.org/2000/svg" width="35" height="39" viewBox="0 0 35 39">
  <metadata><?xpacket begin="﻿" id="W5M0MpCehiHzreSzNTczkc9d"?>
<x:xmpmeta xmlns:x="adobe:ns:meta/" x:xmptk="Adobe XMP Core 5.6-c138 79.159824, 2016/09/14-01:09:01        ">
   <rdf:RDF xmlns:rdf="http://www.w3.org/1999/02/22-rdf-syntax-ns#">
      <rdf:Description rdf:about=""/>
   </rdf:RDF>
</x:xmpmeta>
                                                                                                    
                                                                                                    
                                                                                                    
                                                                                                    
                                                                                                    
                                                                                                    
                                                                                                    
                                                                                                    
                                                                                                    
                                                                                                    
                                                                                                    
                                                                                                    
                                                                                                    
                                                                                                    
                                                                                                    
                                                                                                    
                                                                                                    
                                                                                                    
                                                                                                    
                                                                                                    
                           
<?xpacket end="w"?></metadata>
<defs>
    <style>
      .cls-1 {
        fill: #ff3b69;
        fill-rule: evenodd;
      }
    </style>
  </defs>
  <path id="contact_list" class="cls-1" d="M101.277,846H78.905a4.691,4.691,0,0,0-4.734,4.643v2.006H71.947a0.929,0.929,0,1,0,0,1.857h2.215V860.6H71.947a0.929,0.929,0,1,0,0,1.857h2.215v6.092H71.947a0.929,0.929,0,1,0,0,1.857h2.215v6.091H71.947a0.929,0.929,0,1,0,0,1.857h2.215v2.006A4.691,4.691,0,0,0,78.9,885h22.371A4.69,4.69,0,0,0,106,880.357V850.643A4.682,4.682,0,0,0,101.277,846Zm2.841,34.357a2.822,2.822,0,0,1-2.841,2.786H78.905a2.821,2.821,0,0,1-2.84-2.786v-2.006H78.28a0.929,0.929,0,1,0,0-1.857H76.065V870.4H78.28a0.929,0.929,0,1,0,0-1.857H76.065v-6.092H78.28a0.929,0.929,0,1,0,0-1.857H76.065v-6.091H78.28a0.929,0.929,0,1,0,0-1.857H76.065v-2.006a2.821,2.821,0,0,1,2.84-2.786h22.372a2.822,2.822,0,0,1,2.841,2.786v29.714ZM90.087,865.231a4.5,4.5,0,1,0-4.592-4.5A4.548,4.548,0,0,0,90.087,865.231Zm0-7.16a2.647,2.647,0,1,1-2.7,2.647A2.673,2.673,0,0,1,90.087,858.071Zm0,8.655a7,7,0,0,0-7.025,7.131,0.941,0.941,0,0,0,.947.929H96.165a0.941,0.941,0,0,0,.947-0.929A7,7,0,0,0,90.087,866.726Zm-5.056,6.2a5.114,5.114,0,0,1,10.112,0H85.031Z" transform="translate(-71 -846)"/>
</svg>
