<svg width="67" height="67" viewBox="0 0 67 67" fill="none" xmlns="http://www.w3.org/2000/svg">
<g clip-path="url(#clip0)">
<path d="M33.4987 21.0992C39.3157 21.0992 44.0482 16.3667 44.0482 10.5495C44.0482 4.73248 39.3157 0 33.4987 0C27.6817 0 22.9492 4.73248 22.9492 10.5495C22.9492 16.3667 27.6817 21.0992 33.4987 21.0992ZM33.4987 2.1383C38.1367 2.1383 41.9099 5.91154 41.9099 10.5495C41.9099 15.1875 38.1367 18.9609 33.4987 18.9609C28.8608 18.9609 25.0875 15.1875 25.0875 10.5495C25.0875 5.91154 28.8608 2.1383 33.4987 2.1383Z" fill="#FF3B69"/>
<path d="M33.4986 25.3758C42.025 25.3758 49.0258 32.0316 49.5776 40.4207H24.8684C24.278 40.4207 23.7993 40.8992 23.7993 41.4898C23.7993 42.0804 24.278 42.559 24.8684 42.559H50.682C51.2724 42.559 51.7511 42.0804 51.7511 41.4898C51.7511 31.4254 43.5631 23.2375 33.4986 23.2375C23.4341 23.2375 15.2461 31.4254 15.2461 41.4898C15.2461 42.0804 15.7248 42.559 16.3152 42.559H20.5918C21.1823 42.559 21.661 42.0804 21.661 41.4898C21.661 40.8992 21.1823 40.4207 20.5918 40.4207H17.4195C17.9714 32.0316 24.9724 25.3758 33.4986 25.3758V25.3758Z" fill="#FF3B69"/>
<path d="M20.0158 53.8441L14.1507 52.8597L11.4022 47.586C11.218 47.2326 10.8526 47.0109 10.454 47.0109C10.0555 47.0109 9.69009 47.2326 9.50591 47.586L6.75734 52.8597L0.892278 53.8441C0.499259 53.9101 0.175521 54.189 0.0523549 54.5681C-0.0708111 54.947 0.027123 55.3631 0.306242 55.6473L4.47264 59.8912L3.59637 65.7733C3.53764 66.1676 3.703 66.5617 4.02545 66.7959C4.34762 67.0302 4.77372 67.0656 5.13038 66.888L10.4539 64.2369L15.7774 66.888C15.9282 66.9629 16.0914 67 16.2538 67C16.4758 67 16.6963 66.931 16.8823 66.7957C17.2048 66.5615 17.3701 66.1675 17.3114 65.7732L16.4351 59.891L20.6015 55.6472C20.8807 55.363 20.9786 54.9468 20.8554 54.5679C20.7325 54.189 20.4088 53.9101 20.0158 53.8441V53.8441ZM14.5365 58.7731C14.3017 59.0123 14.1925 59.3479 14.242 59.6796L14.8944 64.0593L10.9307 62.0853C10.6307 61.9358 10.2777 61.9358 9.97748 62.0853L6.01364 64.0593L6.66611 59.6796C6.71558 59.3479 6.60652 59.0122 6.37159 58.7731L3.26935 55.6133L7.63633 54.8803C7.96705 54.8247 8.25258 54.6173 8.40754 54.3199L10.454 50.3931L12.5005 54.3199C12.6555 54.6173 12.941 54.8247 13.2717 54.8803L17.6387 55.6133L14.5365 58.7731V58.7731Z" fill="#FF3B69"/>
<path d="M43.0627 53.8441L37.1976 52.8597L34.449 47.586C34.2648 47.2326 33.8995 47.0109 33.5009 47.0109C33.1023 47.0109 32.737 47.2326 32.5528 47.586L29.8042 52.8597L23.9392 53.8441C23.5461 53.9101 23.2224 54.189 23.0992 54.5681C22.9761 54.947 23.074 55.3631 23.3531 55.6473L27.5195 59.8912L26.6434 65.7733C26.5847 66.1676 26.75 66.5617 27.0725 66.7959C27.3946 67.0302 27.8207 67.0656 28.1774 66.888L33.5009 64.2369L38.8244 66.888C38.9752 66.9629 39.1385 67 39.3008 67C39.5228 67 39.7433 66.931 39.9293 66.7957C40.2518 66.5615 40.4172 66.1675 40.3584 65.7732L39.4823 59.891L43.6487 55.6472C43.9278 55.363 44.0258 54.9468 43.9026 54.5679C43.7794 54.189 43.4557 53.9101 43.0627 53.8441V53.8441ZM37.5833 58.7731C37.3486 59.0123 37.2394 59.3479 37.2888 59.6796L37.9412 64.0593L33.9775 62.0853C33.8274 62.0106 33.6641 61.9733 33.5009 61.9733C33.3377 61.9733 33.1743 62.0106 33.0244 62.0853L29.0607 64.0593L29.713 59.6796C29.7624 59.3479 29.6534 59.0122 29.4185 58.7731L26.3162 55.6133L30.6832 54.8803C31.0139 54.8247 31.2995 54.6173 31.4544 54.3199L33.5009 50.3933L35.5474 54.32C35.7024 54.6174 35.9879 54.8248 36.3186 54.8804L40.6856 55.6134L37.5833 58.7731V58.7731Z" fill="#FF3B69"/>
<path d="M66.9456 54.5681C66.8224 54.189 66.4989 53.9101 66.1057 53.8441L60.2406 52.8597L57.492 47.586C57.3078 47.2326 56.9425 47.0109 56.5439 47.0109C56.1453 47.0109 55.78 47.2326 55.5958 47.586L52.8472 52.8597L46.9821 53.8441C46.5891 53.9101 46.2654 54.189 46.1422 54.5681C46.019 54.947 46.117 55.3631 46.3961 55.6473L50.5625 59.8912L49.6862 65.7733C49.6275 66.1676 49.7929 66.5617 50.1153 66.7959C50.4375 67.0302 50.8636 67.0656 51.2202 66.888L56.5438 64.2369L61.8673 66.888C62.0181 66.9629 62.1813 67 62.3437 67C62.5657 67 62.7862 66.931 62.9722 66.7957C63.2947 66.5615 63.46 66.1675 63.4013 65.7732L62.525 59.891L66.6914 55.6472C66.9708 55.3631 67.0688 54.947 66.9456 54.5681V54.5681ZM60.6265 58.7731C60.3917 59.0123 60.2825 59.3479 60.332 59.6796L60.9845 64.0593L57.0206 62.0853C56.8705 62.0106 56.7073 61.9733 56.544 61.9733C56.3807 61.9733 56.2175 62.0106 56.0675 62.0853L52.1038 64.0593L52.7563 59.6796C52.8057 59.3479 52.6967 59.0122 52.4617 58.7731L49.3595 55.6133L53.7265 54.8803C54.0572 54.8247 54.3427 54.6173 54.4977 54.3199L56.5442 50.3931L58.5907 54.3199C58.7456 54.6173 59.0312 54.8247 59.3619 54.8803L63.7289 55.6133L60.6265 58.7731V58.7731Z" fill="#FF3B69"/>
</g>
<defs>
<clipPath id="clip0">
<rect width="67" height="67" fill="white"/>
</clipPath>
</defs>
</svg>
