<svg xmlns="http://www.w3.org/2000/svg" width="35" height="29" viewBox="0 0 35 29">
  <metadata><?xpacket begin="﻿" id="W5M0MpCehiHzreSzNTczkc9d"?>
<x:xmpmeta xmlns:x="adobe:ns:meta/" x:xmptk="Adobe XMP Core 5.6-c138 79.159824, 2016/09/14-01:09:01        ">
   <rdf:RDF xmlns:rdf="http://www.w3.org/1999/02/22-rdf-syntax-ns#">
      <rdf:Description rdf:about=""/>
   </rdf:RDF>
</x:xmpmeta>
                                                                                                    
                                                                                                    
                                                                                                    
                                                                                                    
                                                                                                    
                                                                                                    
                                                                                                    
                                                                                                    
                                                                                                    
                                                                                                    
                                                                                                    
                                                                                                    
                                                                                                    
                                                                                                    
                                                                                                    
                                                                                                    
                                                                                                    
                                                                                                    
                                                                                                    
                                                                                                    
                           
<?xpacket end="w"?></metadata>
<defs>
    <style>
      .cls-1 {
        fill: #ff3b69;
        fill-rule: evenodd;
      }
    </style>
  </defs>
  <path id="dashboard" class="cls-1" d="M75.42,313a1.1,1.1,0,0,1-.887-0.449,18.065,18.065,0,0,1,1.591-23.337,17.293,17.293,0,0,1,24.752,0,18.065,18.065,0,0,1,1.59,23.335,1.1,1.1,0,0,1-1.557.22,1.149,1.149,0,0,1-.216-1.586,15.6,15.6,0,0,0,3.084-9.369,15.28,15.28,0,1,0-30.556,0,15.6,15.6,0,0,0,3.083,9.369,1.148,1.148,0,0,1-.216,1.586A1.088,1.088,0,0,1,75.42,313Zm13.08-6.076a4.665,4.665,0,0,1,0-9.329,4.515,4.515,0,0,1,2.176.561l0.182,0.1,4.674-4.761a1.1,1.1,0,0,1,1.572,0,1.148,1.148,0,0,1,0,1.6l-4.674,4.76,0.1,0.186a4.73,4.73,0,0,1,.551,2.217A4.628,4.628,0,0,1,88.5,306.924Zm0-7.066a2.4,2.4,0,1,0,2.358,2.4A2.383,2.383,0,0,0,88.5,299.858Z" transform="translate(-71 -284)"/>
</svg>
