<svg xmlns="http://www.w3.org/2000/svg" width="37" height="32" viewBox="0 0 37 32">
  <metadata><?xpacket begin="﻿" id="W5M0MpCehiHzreSzNTczkc9d"?>
<x:xmpmeta xmlns:x="adobe:ns:meta/" x:xmptk="Adobe XMP Core 5.6-c138 79.159824, 2016/09/14-01:09:01        ">
   <rdf:RDF xmlns:rdf="http://www.w3.org/1999/02/22-rdf-syntax-ns#">
      <rdf:Description rdf:about=""/>
   </rdf:RDF>
</x:xmpmeta>
                                                                                                    
                                                                                                    
                                                                                                    
                                                                                                    
                                                                                                    
                                                                                                    
                                                                                                    
                                                                                                    
                                                                                                    
                                                                                                    
                                                                                                    
                                                                                                    
                                                                                                    
                                                                                                    
                                                                                                    
                                                                                                    
                                                                                                    
                                                                                                    
                                                                                                    
                                                                                                    
                           
<?xpacket end="w"?></metadata>
<defs>
    <style>
      .cls-1 {
        fill: #ff3b69;
        fill-rule: evenodd;
      }
    </style>
  </defs>
  <path id="gallery" class="cls-1" d="M84.48,616.918a3.941,3.941,0,1,0-3.94,3.891A3.92,3.92,0,0,0,84.48,616.918Zm-6.13,0a2.19,2.19,0,1,1,2.19,2.161A2.179,2.179,0,0,1,78.35,616.919Zm30.26,5.333-8.8-5.795v-5.59A0.871,0.871,0,0,0,98.93,610H72.877a0.871,0.871,0,0,0-.875.865v22.7s0,0.006,0,.01,0,0.03,0,.044,0,0.028,0,.042,0,0.027.006,0.041,0,0.028.007,0.043,0.008,0.031.012,0.047,0.005,0.022.009,0.032a0.857,0.857,0,0,0,.361.468,0.882,0.882,0,0,0,.473.138h10.5l13.594,7.456a0.883,0.883,0,0,0,1.182-.32l10.727-18.156A0.857,0.857,0,0,0,108.61,622.252ZM73.752,611.731h24.3V629.9l-6.771-13.37a0.875,0.875,0,0,0-.757-0.476,0.851,0.851,0,0,0-.787.435L84.178,626.1l-3.787-3.739a0.89,0.89,0,0,0-.713-0.248,0.877,0.877,0,0,0-.642.392l-5.284,8.115V611.731ZM83.606,632.7H74.48l5.441-8.358,3.831,3.782a0.881,0.881,0,0,0,1.38-.183l5.319-9.189L97.512,632.7H83.606Zm13.468,7.263-10.091-5.534H98.93a0.78,0.78,0,0,0,.1-0.006l0.026,0q0.034,0,.068-0.012l0.031-.007,0.064-.019,0.024-.009q0.039-.015.077-0.033l0,0h0a0.745,0.745,0,0,0,.068-0.038l0.009,0c0.02-.013.039-0.026,0.057-0.04l0.015-.011a0.573,0.573,0,0,0,.046-0.039l0.02-.018a0.5,0.5,0,0,0,.038-0.039l0.021-.022c0.012-.014.023-0.029,0.034-0.043l0.017-.022c0.012-.018.024-0.036,0.035-0.054l0.009-.015c0.013-.022.024-0.045,0.035-0.068l0-.006c0.011-.025.021-0.051,0.03-0.077v0h0c0.008-.024.015-0.048,0.02-0.072l0-.014c0-.017.007-0.035,0.01-0.053s0-.024.006-0.036,0-.023,0-0.035,0-.037,0-0.056c0,0,0,0,0-.006V618.533l7.149,4.705Z" transform="translate(-72 -610)"/>
</svg>
