<svg xmlns="http://www.w3.org/2000/svg" width="34" height="29" viewBox="0 0 34 29">
  <metadata><?xpacket begin="﻿" id="W5M0MpCehiHzreSzNTczkc9d"?>
<x:xmpmeta xmlns:x="adobe:ns:meta/" x:xmptk="Adobe XMP Core 5.6-c138 79.159824, 2016/09/14-01:09:01        ">
   <rdf:RDF xmlns:rdf="http://www.w3.org/1999/02/22-rdf-syntax-ns#">
      <rdf:Description rdf:about=""/>
   </rdf:RDF>
</x:xmpmeta>
                                                                                                    
                                                                                                    
                                                                                                    
                                                                                                    
                                                                                                    
                                                                                                    
                                                                                                    
                                                                                                    
                                                                                                    
                                                                                                    
                                                                                                    
                                                                                                    
                                                                                                    
                                                                                                    
                                                                                                    
                                                                                                    
                                                                                                    
                                                                                                    
                                                                                                    
                                                                                                    
                           
<?xpacket end="w"?></metadata>
<defs>
    <style>
      .cls-1 {
        fill: #ff3b69;
        fill-rule: evenodd;
      }
    </style>
  </defs>
  <path id="portfolio" class="cls-1" d="M105.018,367.86H95.982v-0.967a2.949,2.949,0,0,0-2.988-2.9H85.027a2.949,2.949,0,0,0-2.988,2.9v0.967H73.01a0.984,0.984,0,0,0-1,.967v21.279a2.949,2.949,0,0,0,2.988,2.9H103.02a2.949,2.949,0,0,0,2.988-2.9V368.844A0.954,0.954,0,0,0,105.018,367.86Zm-20.987-.967a0.983,0.983,0,0,1,1-.968h7.967a0.983,0.983,0,0,1,1,.968v0.967H84.032v-0.967Zm19.6,2.9-3.093,9.011a0.991,0.991,0,0,1-.944.662h-5.6V378.5a0.982,0.982,0,0,0-1-.967H85.027a0.982,0.982,0,0,0-1,.967v0.968h-5.6a0.992,0.992,0,0,1-.945-0.662l-3.093-9.011H103.63ZM92,379.467V381.4H86.023v-1.934H92Zm12.017,10.639a0.983,0.983,0,0,1-1,.967H75a0.982,0.982,0,0,1-1-.967V374.787l1.589,4.63a2.977,2.977,0,0,0,2.834,1.984h5.6v0.967a0.982,0.982,0,0,0,1,.968h7.967a0.982,0.982,0,0,0,1-.968V381.4h5.6a2.977,2.977,0,0,0,2.834-1.984l1.589-4.63v15.319Z" transform="translate(-72 -364)"/>
</svg>
