<svg xmlns="http://www.w3.org/2000/svg" width="35" height="43" viewBox="0 0 35 43">
  <metadata><?xpacket begin="﻿" id="W5M0MpCehiHzreSzNTczkc9d"?>
<x:xmpmeta xmlns:x="adobe:ns:meta/" x:xmptk="Adobe XMP Core 5.6-c138 79.159824, 2016/09/14-01:09:01        ">
   <rdf:RDF xmlns:rdf="http://www.w3.org/1999/02/22-rdf-syntax-ns#">
      <rdf:Description rdf:about=""/>
   </rdf:RDF>
</x:xmpmeta>
                                                                                                    
                                                                                                    
                                                                                                    
                                                                                                    
                                                                                                    
                                                                                                    
                                                                                                    
                                                                                                    
                                                                                                    
                                                                                                    
                                                                                                    
                                                                                                    
                                                                                                    
                                                                                                    
                                                                                                    
                                                                                                    
                                                                                                    
                                                                                                    
                                                                                                    
                                                                                                    
                           
<?xpacket end="w"?></metadata>
<defs>
    <style>
      .cls-1 {
        fill: #ff3b69;
        fill-rule: evenodd;
      }
    </style>
  </defs>
  <path id="pricing" class="cls-1" d="M103.822,697.757L99.947,686.61a2.593,2.593,0,0,0-1.178-1.393,2.734,2.734,0,0,0-1.834-.3l-4.232.8a7.888,7.888,0,0,1,.842-1.957,7.54,7.54,0,0,1,3.824-3.242,4.878,4.878,0,0,1,4.1.2c2.513,1.415,3.05,5.078,1.19,8.173a1.066,1.066,0,0,0,.4,1.48h0a1.141,1.141,0,0,0,1.528-.392c2.479-4.124,1.578-9.118-2-11.132a7.132,7.132,0,0,0-6.013-.36,9.748,9.748,0,0,0-4.971,4.181,9.858,9.858,0,0,0-1.294,3.5l-5.3,1a4.707,4.707,0,0,0-3.161,2.175L71.764,706.133a5.341,5.341,0,0,0,2.028,7.424l11.879,6.69a5.719,5.719,0,0,0,7.669-1.963l10.093-16.793A4.431,4.431,0,0,0,103.822,697.757ZM91.407,717.2a3.435,3.435,0,0,1-4.612,1.181l-11.887-6.695a3.207,3.207,0,0,1-1.219-4.464l10.092-16.792a2.47,2.47,0,0,1,1.657-1.143l4.8-.906,0.065,0.537a6.7,6.7,0,0,0,3.3,4.882h0a1.141,1.141,0,0,0,1.529-.391,1.067,1.067,0,0,0-.4-1.48,4.562,4.562,0,0,1-2.211-3.352c-0.028-.2-0.057-0.408-0.073-0.615l4.912-.927a0.408,0.408,0,0,1,.285.045,0.389,0.389,0,0,1,.182.218l3.875,11.146a2.326,2.326,0,0,1-.207,1.959L91.4,717.191Zm-3.835-16.624,0.731-1.216a1.067,1.067,0,0,0-.4-1.48,1.142,1.142,0,0,0-1.529.392l-0.731,1.216-1.763,2.964-0.745,1.24a1.066,1.066,0,0,0,.4,1.479,1.141,1.141,0,0,0,1.529-.391l0.745-1.239Zm2.737,5.634,0.731-1.216a1.067,1.067,0,0,0-.4-1.48,1.142,1.142,0,0,0-1.529.392l-0.731,1.216-1.763,2.964-0.745,1.24a1.066,1.066,0,0,0,.4,1.479,1.141,1.141,0,0,0,1.529-.391l0.745-1.239Z" transform="translate(-71 -678)"/>
</svg>
