<svg xmlns="http://www.w3.org/2000/svg" width="35" height="35" viewBox="0 0 35 35">
  <metadata><?xpacket begin="﻿" id="W5M0MpCehiHzreSzNTczkc9d"?>
<x:xmpmeta xmlns:x="adobe:ns:meta/" x:xmptk="Adobe XMP Core 5.6-c138 79.159824, 2016/09/14-01:09:01        ">
   <rdf:RDF xmlns:rdf="http://www.w3.org/1999/02/22-rdf-syntax-ns#">
      <rdf:Description rdf:about=""/>
   </rdf:RDF>
</x:xmpmeta>
                                                                                                    
                                                                                                    
                                                                                                    
                                                                                                    
                                                                                                    
                                                                                                    
                                                                                                    
                                                                                                    
                                                                                                    
                                                                                                    
                                                                                                    
                                                                                                    
                                                                                                    
                                                                                                    
                                                                                                    
                                                                                                    
                                                                                                    
                                                                                                    
                                                                                                    
                                                                                                    
                           
<?xpacket end="w"?></metadata>
<defs>
    <style>
      .cls-1 {
        fill: #ff3b69;
        fill-rule: evenodd;
      }
    </style>
  </defs>
  <path id="services" class="cls-1" d="M104.963,541.461h-1.794a15.1,15.1,0,0,0-1.453-3.508l1.262-1.263a1.034,1.034,0,0,0,.3-0.728,1.045,1.045,0,0,0-.3-0.729L98.744,531a1.03,1.03,0,0,0-1.456,0l-1.26,1.261a15.061,15.061,0,0,0-3.508-1.454v-1.783a1.031,1.031,0,0,0-1.03-1.03H85.5a1.031,1.031,0,0,0-1.03,1.03v1.783a15.071,15.071,0,0,0-3.508,1.454L79.706,531a1.03,1.03,0,0,0-1.456,0l-4.233,4.232a1.019,1.019,0,0,0-.3.728,1.035,1.035,0,0,0,.3.728l1.262,1.263a15.1,15.1,0,0,0-1.454,3.508h-1.79a1.03,1.03,0,0,0-1.03,1.029l0,5.986a1.034,1.034,0,0,0,.3.728,1.022,1.022,0,0,0,.728.3h1.793a15.1,15.1,0,0,0,1.454,3.508l-1.269,1.27a1.029,1.029,0,0,0,0,1.456l4.23,4.234a1.029,1.029,0,0,0,1.456,0l1.271-1.271a15.07,15.07,0,0,0,3.508,1.454v1.8a1.03,1.03,0,0,0,1.03,1.029h5.985a1.03,1.03,0,0,0,1.03-1.029v-1.8a15.059,15.059,0,0,0,3.508-1.454l1.271,1.271a1.022,1.022,0,0,0,.728.3,1.035,1.035,0,0,0,.728-0.3l4.23-4.234a1.031,1.031,0,0,0,0-1.456l-1.269-1.27a15.107,15.107,0,0,0,1.453-3.508h1.794a1.031,1.031,0,0,0,1.029-1.03V542.49A1.031,1.031,0,0,0,104.963,541.461Zm-1.03,5.985h-1.572a1.035,1.035,0,0,0-1.007.814,13.033,13.033,0,0,1-1.8,4.352,1.035,1.035,0,0,0,.137,1.287l1.114,1.113-2.775,2.777-1.114-1.114a1.029,1.029,0,0,0-1.287-.137,13.042,13.042,0,0,1-4.351,1.8,1.035,1.035,0,0,0-.813,1.007v1.579H86.534v-1.579a1.035,1.035,0,0,0-.813-1.007,13.017,13.017,0,0,1-4.351-1.8,1.033,1.033,0,0,0-1.287.137l-1.114,1.115-2.775-2.778,1.113-1.113a1.035,1.035,0,0,0,.137-1.287,13.03,13.03,0,0,1-1.8-4.352,1.035,1.035,0,0,0-1.007-.814H73.062l0-3.926h1.57a1.035,1.035,0,0,0,1.007-.813,13.024,13.024,0,0,1,1.8-4.352,1.035,1.035,0,0,0-.137-1.287L76.2,535.962l2.777-2.775,1.1,1.105a1.029,1.029,0,0,0,1.287.137,13.01,13.01,0,0,1,4.351-1.8,1.036,1.036,0,0,0,.813-1.007v-1.563H90.46v1.562a1.034,1.034,0,0,0,.813,1.007,13.034,13.034,0,0,1,4.351,1.8,1.029,1.029,0,0,0,1.287-.137l1.1-1.105,2.777,2.775-1.106,1.106a1.035,1.035,0,0,0-.137,1.287,13.045,13.045,0,0,1,1.8,4.352,1.034,1.034,0,0,0,1.007.813h1.572v3.926ZM88.5,537.509a7.983,7.983,0,1,0,7.982,7.983A7.991,7.991,0,0,0,88.5,537.509Zm0,13.906a5.923,5.923,0,1,1,5.922-5.923A5.929,5.929,0,0,1,88.5,551.415Z" transform="translate(-71 -528)"/>
</svg>
