<svg xmlns="http://www.w3.org/2000/svg" width="33" height="34" viewBox="0 0 33 34">
  <metadata><?xpacket begin="﻿" id="W5M0MpCehiHzreSzNTczkc9d"?>
<x:xmpmeta xmlns:x="adobe:ns:meta/" x:xmptk="Adobe XMP Core 5.6-c138 79.159824, 2016/09/14-01:09:01        ">
   <rdf:RDF xmlns:rdf="http://www.w3.org/1999/02/22-rdf-syntax-ns#">
      <rdf:Description rdf:about=""/>
   </rdf:RDF>
</x:xmpmeta>
                                                                                                    
                                                                                                    
                                                                                                    
                                                                                                    
                                                                                                    
                                                                                                    
                                                                                                    
                                                                                                    
                                                                                                    
                                                                                                    
                                                                                                    
                                                                                                    
                                                                                                    
                                                                                                    
                                                                                                    
                                                                                                    
                                                                                                    
                                                                                                    
                                                                                                    
                                                                                                    
                           
<?xpacket end="w"?></metadata>
<defs>
    <style>
      .cls-1 {
        fill: #ff3b69;
        fill-rule: evenodd;
      }
    </style>
  </defs>
  <path id="settings" class="cls-1" d="M89.49,1188.57v-15.61a0.955,0.955,0,1,0-1.91,0v15.61a4.857,4.857,0,0,0,0,9.52v6.95a0.955,0.955,0,0,0,1.91,0v-6.95A4.857,4.857,0,0,0,89.49,1188.57Zm-0.955,7.7a2.94,2.94,0,1,1,2.935-2.94A2.941,2.941,0,0,1,88.535,1196.27ZM77.8,1180.56v-7.6a0.955,0.955,0,1,0-1.91,0v7.6a4.851,4.851,0,0,0,0,9.51v14.97a0.955,0.955,0,0,0,1.91,0v-14.97A4.851,4.851,0,0,0,77.8,1180.56Zm-0.955,7.69a2.935,2.935,0,1,1,2.935-2.93A2.932,2.932,0,0,1,76.845,1188.25Zm24.265-7.69v-7.6a0.955,0.955,0,1,0-1.909,0v7.6a4.851,4.851,0,0,0,0,9.51v14.97a0.955,0.955,0,1,0,1.909,0v-14.97A4.851,4.851,0,0,0,101.11,1180.56Zm-0.955,7.69a2.935,2.935,0,1,1,2.935-2.93A2.932,2.932,0,0,1,100.155,1188.25Z" transform="translate(-72 -1172)"/>
</svg>
