<svg xmlns="http://www.w3.org/2000/svg" width="36" height="30" viewBox="0 0 36 30">
  <metadata><?xpacket begin="﻿" id="W5M0MpCehiHzreSzNTczkc9d"?>
<x:xmpmeta xmlns:x="adobe:ns:meta/" x:xmptk="Adobe XMP Core 5.6-c138 79.159824, 2016/09/14-01:09:01        ">
   <rdf:RDF xmlns:rdf="http://www.w3.org/1999/02/22-rdf-syntax-ns#">
      <rdf:Description rdf:about=""/>
   </rdf:RDF>
</x:xmpmeta>
                                                                                                    
                                                                                                    
                                                                                                    
                                                                                                    
                                                                                                    
                                                                                                    
                                                                                                    
                                                                                                    
                                                                                                    
                                                                                                    
                                                                                                    
                                                                                                    
                                                                                                    
                                                                                                    
                                                                                                    
                                                                                                    
                                                                                                    
                                                                                                    
                                                                                                    
                                                                                                    
                           
<?xpacket end="w"?></metadata>
<defs>
    <style>
      .cls-1 {
        fill: #ff3b69;
        fill-rule: evenodd;
      }
    </style>
  </defs>
  <path id="team" class="cls-1" d="M106.9,466.635a11.217,11.217,0,0,0-2.3-5.713,11.674,11.674,0,0,0-1.979-2.074,12.218,12.218,0,0,0-3.866-2.21,7.012,7.012,0,1,0-11.187-5.657,6.952,6.952,0,0,0,.935,3.484,7.031,7.031,0,0,0,1.972,2.175,12.3,12.3,0,0,0-3.638,2.032,9.573,9.573,0,0,0-2.547-1.518,5.622,5.622,0,1,0-7.276,0A9.577,9.577,0,0,0,71,466.022v0.606a0.323,0.323,0,0,0,.32.317h11a12.348,12.348,0,0,0-.067,1.27v0.624A5.19,5.19,0,0,0,87.454,474H101.8a5.19,5.19,0,0,0,5.2-5.163v-0.624A12.417,12.417,0,0,0,106.9,466.635ZM89.6,450.981a5,5,0,1,1,5.3,4.95H94.3A4.976,4.976,0,0,1,89.6,450.981Zm-8.972-1.637a3.546,3.546,0,0,1,.074,7.092H80.556A3.546,3.546,0,0,1,80.625,449.344Zm2.05,15.562H73.1a7.58,7.58,0,0,1,7.471-6.44h0.108a7.611,7.611,0,0,1,4.635,1.613A12.332,12.332,0,0,0,82.675,464.906Zm22.261,3.933a3.149,3.149,0,0,1-3.159,3.133H87.435a3.149,3.149,0,0,1-3.159-3.133v-0.624a10.359,10.359,0,0,1,10.007-10.244c0.109,0.009.222,0.009,0.323,0.009s0.213,0,.322-0.009a10.359,10.359,0,0,1,10.007,10.244v0.624Z" transform="translate(-71 -444)"/>
</svg>
