<svg xmlns="http://www.w3.org/2000/svg" width="36" height="31" viewBox="0 0 36 31">
  <metadata><?xpacket begin="﻿" id="W5M0MpCehiHzreSzNTczkc9d"?>
<x:xmpmeta xmlns:x="adobe:ns:meta/" x:xmptk="Adobe XMP Core 5.6-c138 79.159824, 2016/09/14-01:09:01        ">
   <rdf:RDF xmlns:rdf="http://www.w3.org/1999/02/22-rdf-syntax-ns#">
      <rdf:Description rdf:about=""/>
   </rdf:RDF>
</x:xmpmeta>
                                                                                                    
                                                                                                    
                                                                                                    
                                                                                                    
                                                                                                    
                                                                                                    
                                                                                                    
                                                                                                    
                                                                                                    
                                                                                                    
                                                                                                    
                                                                                                    
                                                                                                    
                                                                                                    
                                                                                                    
                                                                                                    
                                                                                                    
                                                                                                    
                                                                                                    
                                                                                                    
                           
<?xpacket end="w"?></metadata>
<defs>
    <style>
      .cls-1 {
        fill: #ff3b69;
        fill-rule: evenodd;
      }
    </style>
  </defs>
  <path id="testimonial" class="cls-1" d="M80.468,786.922H97.532a0.958,0.958,0,0,0,0-1.915H80.468A0.958,0.958,0,0,0,80.468,786.922Zm-3.629-12.006a0.948,0.948,0,0,0,.668-0.281,0.966,0.966,0,0,0,0-1.354,0.935,0.935,0,0,0-1.337,0,0.966,0.966,0,0,0,0,1.354A0.948,0.948,0,0,0,76.839,774.916ZM94.426,773H79.866a0.958,0.958,0,0,0,0,1.916h14.56a10.837,10.837,0,0,1,2.2,21.413,0.959,0.959,0,0,0-.751.937v3.464l-3.84-3.89a0.932,0.932,0,0,0-.669-0.28h-7.8a10.765,10.765,0,0,1-10.683-10.822,10.939,10.939,0,0,1,1.34-5.252,0.963,0.963,0,0,0,.083-0.728,0.953,0.953,0,0,0-.45-0.575,0.937,0.937,0,0,0-1.286.372A12.874,12.874,0,0,0,71,785.738a12.671,12.671,0,0,0,12.574,12.737H90.98l5.177,5.244a0.935,0.935,0,0,0,1.03.208,0.955,0.955,0,0,0,.584-0.885v-5.023a12.68,12.68,0,0,0,6.377-4.2A12.86,12.86,0,0,0,107,785.738,12.671,12.671,0,0,0,94.426,773Zm-9.9,16.409a0.958,0.958,0,0,0,0,1.916h0.011a0.958,0.958,0,0,0,0-1.916H84.525Zm-4.056-7.327H97.532a0.958,0.958,0,0,0,0-1.915H80.468A0.958,0.958,0,0,0,80.468,782.082Zm17.063,7.327h-9.1a0.958,0.958,0,0,0,0,1.916h9.1A0.958,0.958,0,0,0,97.532,789.409Z" transform="translate(-71 -773)"/>
</svg>
