<svg xmlns="http://www.w3.org/2000/svg" width="34" height="30" viewBox="0 0 34 30">
  <metadata><?xpacket begin="﻿" id="W5M0MpCehiHzreSzNTczkc9d"?>
<x:xmpmeta xmlns:x="adobe:ns:meta/" x:xmptk="Adobe XMP Core 5.6-c138 79.159824, 2016/09/14-01:09:01        ">
   <rdf:RDF xmlns:rdf="http://www.w3.org/1999/02/22-rdf-syntax-ns#">
      <rdf:Description rdf:about=""/>
   </rdf:RDF>
</x:xmpmeta>
                                                                                                    
                                                                                                    
                                                                                                    
                                                                                                    
                                                                                                    
                                                                                                    
                                                                                                    
                                                                                                    
                                                                                                    
                                                                                                    
                                                                                                    
                                                                                                    
                                                                                                    
                                                                                                    
                                                                                                    
                                                                                                    
                                                                                                    
                                                                                                    
                                                                                                    
                                                                                                    
                           
<?xpacket end="w"?></metadata>
<defs>
    <style>
      .cls-1 {
        fill: #ff3b69;
        fill-rule: evenodd;
      }
    </style>
  </defs>
  <path id="user_managment" class="cls-1" d="M106,1105.43s0-.01,0-0.02v-0.02c0-.01,0-0.02,0-0.03v-0.01a6.738,6.738,0,0,0-4.272-5.33,3.976,3.976,0,0,0,1.376-3,4.082,4.082,0,0,0-8.162,0,3.946,3.946,0,0,0,1.373,2.99,7.157,7.157,0,0,0-2.425,1.61,6.9,6.9,0,0,0-2.265-1.59,3.945,3.945,0,0,0,1.4-3.01,4.082,4.082,0,0,0-8.163,0,3.945,3.945,0,0,0,1.4,3.01,6.894,6.894,0,0,0-2.265,1.59,7.164,7.164,0,0,0-2.425-1.61,3.946,3.946,0,0,0,1.373-2.99,4.082,4.082,0,0,0-8.163,0,3.968,3.968,0,0,0,1.389,3.01,6.676,6.676,0,0,0-4.043,5.01,0.758,0.758,0,0,0-.115.4v3.17a0.789,0.789,0,0,0,.617.76l2.791,0.6a13.44,13.44,0,0,0,1.623,3.81l-1.289,2.11a0.758,0.758,0,0,0,.118.94l2.8,2.75a0.774,0.774,0,0,0,.556.23,0.817,0.817,0,0,0,.4-0.11l2.183-1.29a13.737,13.737,0,0,0,3.839,1.55c0.2,0.77.567,2.23,0.617,2.43a0.291,0.291,0,0,1,.01.04,0.791,0.791,0,0,0,.758.57c0.039,0,.078-0.01.116-0.01h3.837a0.78,0.78,0,0,0,.762-0.59l0.621-2.44a13.736,13.736,0,0,0,3.839-1.55l2.183,1.29a0.816,0.816,0,0,0,.4.11h0a0.774,0.774,0,0,0,.556-0.23l2.8-2.75a0.757,0.757,0,0,0,.118-0.94l-1.288-2.11a13.431,13.431,0,0,0,1.623-3.81l2.791-.6a0.788,0.788,0,0,0,.616-0.76v-3.18Zm-6.981-10.88a2.465,2.465,0,1,1-2.51,2.47A2.494,2.494,0,0,1,99.019,1094.55Zm0,6.48a5.579,5.579,0,0,1,5.228,3.64H95.5a6.422,6.422,0,0,0-.673-1.76A5.6,5.6,0,0,1,99.019,1101.03Zm-10.085-6.48a2.465,2.465,0,1,1-2.51,2.47A2.494,2.494,0,0,1,88.934,1094.55Zm0,6.48a5.138,5.138,0,0,1,4.94,3.64h-9.88A5.138,5.138,0,0,1,88.934,1101.03Zm7.1,5.18c0.013,0.18.02,0.35,0.02,0.52a7.125,7.125,0,0,1-14.248,0c0-.17.007-0.34,0.02-0.52H96.038ZM78.85,1094.55a2.465,2.465,0,1,1-2.51,2.47A2.494,2.494,0,0,1,78.85,1094.55Zm0,6.48a5.6,5.6,0,0,1,4.2,1.88,6.416,6.416,0,0,0-.673,1.76H73.811A5.3,5.3,0,0,1,78.85,1101.03Zm25.579,6.96-2.659.58a0.764,0.764,0,0,0-.6.59,11.848,11.848,0,0,1-1.778,4.18,0.774,0.774,0,0,0-.019.83l1.223,2-1.929,1.89-2.069-1.22a0.782,0.782,0,0,0-.832.02,12.369,12.369,0,0,1-4.207,1.69,0.8,0.8,0,0,0-.6.57l-0.59,2.32H87.636l-0.517-2.03-0.007-.02a0.582,0.582,0,0,1-.017-0.07,0.868,0.868,0,0,0-.654-0.77,12.377,12.377,0,0,1-4.206-1.69,0.781,0.781,0,0,0-.831-0.02l-2.069,1.22-1.929-1.89,1.223-2a0.773,0.773,0,0,0-.019-0.83,11.856,11.856,0,0,1-1.778-4.18,0.762,0.762,0,0,0-.6-0.59l-2.659-.58v-1.78h6.684c-0.011.18-.016,0.35-0.016,0.52a8.7,8.7,0,0,0,17.391,0c0-.17-0.005-0.34-0.016-0.52h6.816v1.78Zm-5.015.81a0.77,0.77,0,1,0-.786-0.77A0.775,0.775,0,0,0,99.414,1108.8Zm-10.48,7.53a0.77,0.77,0,1,0,0,1.54,11.378,11.378,0,0,0,10.306-6.5,0.762,0.762,0,0,0-.387-1.02,0.74,0.74,0,0,0-.327-0.07,0.779,0.779,0,0,0-.715.45A9.806,9.806,0,0,1,88.934,1116.33Z" transform="translate(-72 -1093)"/>
</svg>
