<svg xmlns="http://www.w3.org/2000/svg" width="57" height="57" viewBox="0 0 57 57">
  <metadata><?xpacket begin="﻿" id="W5M0MpCehiHzreSzNTczkc9d"?>
<x:xmpmeta xmlns:x="adobe:ns:meta/" x:xmptk="Adobe XMP Core 5.6-c138 79.159824, 2016/09/14-01:09:01        ">
   <rdf:RDF xmlns:rdf="http://www.w3.org/1999/02/22-rdf-syntax-ns#">
      <rdf:Description rdf:about=""/>
   </rdf:RDF>
</x:xmpmeta>
                                                                                                    
                                                                                                    
                                                                                                    
                                                                                                    
                                                                                                    
                                                                                                    
                                                                                                    
                                                                                                    
                                                                                                    
                                                                                                    
                                                                                                    
                                                                                                    
                                                                                                    
                                                                                                    
                                                                                                    
                                                                                                    
                                                                                                    
                                                                                                    
                                                                                                    
                                                                                                    
                           
<?xpacket end="w"?></metadata>
<defs>
    <style>
      .cls-1 {
        fill: #ff3b69;
        fill-rule: evenodd;
      }
    </style>
  </defs>
  <path id="blog" class="cls-1" d="M682.455,725A4.463,4.463,0,0,1,678,720.542V672.456A4.463,4.463,0,0,1,682.455,668h48.086A4.463,4.463,0,0,1,735,672.456v48.086A4.463,4.463,0,0,1,730.541,725H682.455Zm-2.187-4.458a2.189,2.189,0,0,0,2.187,2.187h48.086a2.189,2.189,0,0,0,2.187-2.187V680.405h-52.46v40.137Zm2.187-50.273a2.189,2.189,0,0,0-2.187,2.187v5.678h52.46v-5.678a2.189,2.189,0,0,0-2.187-2.187H682.455Zm2.367,5.054a1.136,1.136,0,0,1,0-2.271h2.328a1.136,1.136,0,1,1,0,2.271h-2.328Zm7.267,0a1.136,1.136,0,0,1,0-2.271h2.328a1.136,1.136,0,1,1,0,2.271h-2.328Zm7.268,0a1.136,1.136,0,1,1,0-2.271h2.327a1.136,1.136,0,1,1,0,2.271h-2.327Zm-13.963,23.861a1.136,1.136,0,0,1-1.135-1.135V685.558a1.136,1.136,0,0,1,1.135-1.135h42.233a1.137,1.137,0,0,1,1.136,1.135v12.491a1.137,1.137,0,0,1-1.136,1.135H685.394Zm1.136-2.271h39.962V686.694H686.53v10.219Zm-1.136,8.516a1.136,1.136,0,0,1,0-2.271h37.2a1.136,1.136,0,0,1,0,2.271h-37.2Zm0,5.9a1.136,1.136,0,0,1,0-2.271h15.277a1.136,1.136,0,1,1,0,2.271H685.394Zm-0.382,5.9a1.136,1.136,0,1,1,0-2.271h32.534a1.136,1.136,0,0,1,0,2.271H685.012Zm39.288,0a1.136,1.136,0,1,1,0-2.271h3.347a1.136,1.136,0,0,1,0,2.271H724.3Z" transform="translate(-678 -668)"/>
</svg>
