<svg xmlns="http://www.w3.org/2000/svg" width="58" height="49" viewBox="0 0 58 49">
  <metadata><?xpacket begin="﻿" id="W5M0MpCehiHzreSzNTczkc9d"?>
<x:xmpmeta xmlns:x="adobe:ns:meta/" x:xmptk="Adobe XMP Core 5.6-c138 79.159824, 2016/09/14-01:09:01        ">
   <rdf:RDF xmlns:rdf="http://www.w3.org/1999/02/22-rdf-syntax-ns#">
      <rdf:Description rdf:about=""/>
   </rdf:RDF>
</x:xmpmeta>
                                                                                                    
                                                                                                    
                                                                                                    
                                                                                                    
                                                                                                    
                                                                                                    
                                                                                                    
                                                                                                    
                                                                                                    
                                                                                                    
                                                                                                    
                                                                                                    
                                                                                                    
                                                                                                    
                                                                                                    
                                                                                                    
                                                                                                    
                                                                                                    
                                                                                                    
                                                                                                    
                           
<?xpacket end="w"?></metadata>
<defs>
    <style>
      .cls-1 {
        fill: #ff3b69;
        fill-rule: evenodd;
      }
    </style>
  </defs>
  <path id="portfolio" class="cls-1" d="M1061.17,498.35h-12.09V495.9a4.866,4.866,0,0,0-4.83-4.9h-14.5a4.866,4.866,0,0,0-4.83,4.9v2.45h-12.09a4.873,4.873,0,0,0-4.83,4.9V535.1a4.873,4.873,0,0,0,4.83,4.9h48.34a4.873,4.873,0,0,0,4.83-4.9V503.25A4.873,4.873,0,0,0,1061.17,498.35Zm-33.84-2.45a2.441,2.441,0,0,1,2.42-2.45h14.5a2.441,2.441,0,0,1,2.42,2.45v2.45h-19.34V495.9Zm36.25,39.2a2.432,2.432,0,0,1-2.41,2.45h-48.34a2.432,2.432,0,0,1-2.41-2.45V517.269a4.706,4.706,0,0,0,2.41.681h19.34v3.675a1.216,1.216,0,0,0,1.21,1.225h7.25a1.214,1.214,0,0,0,1.2-1.225V517.95h19.34a4.706,4.706,0,0,0,2.41-.681V535.1h0Zm-29-14.7v-4.9h4.84v4.9h-4.84Zm29-7.35a2.432,2.432,0,0,1-2.41,2.45h-19.34v-1.225a1.216,1.216,0,0,0-1.21-1.225h-7.25a1.214,1.214,0,0,0-1.2,1.225V515.5h-19.34a2.432,2.432,0,0,1-2.41-2.45v-9.8a2.433,2.433,0,0,1,2.41-2.45h48.34a2.433,2.433,0,0,1,2.41,2.45v9.8Z" transform="translate(-1008 -491)"/>
</svg>
