<svg xmlns="http://www.w3.org/2000/svg" width="50" height="67" viewBox="0 0 50 67">
  <metadata><?xpacket begin="﻿" id="W5M0MpCehiHzreSzNTczkc9d"?>
<x:xmpmeta xmlns:x="adobe:ns:meta/" x:xmptk="Adobe XMP Core 5.6-c138 79.159824, 2016/09/14-01:09:01        ">
   <rdf:RDF xmlns:rdf="http://www.w3.org/1999/02/22-rdf-syntax-ns#">
      <rdf:Description rdf:about=""/>
   </rdf:RDF>
</x:xmpmeta>
                                                                                                    
                                                                                                    
                                                                                                    
                                                                                                    
                                                                                                    
                                                                                                    
                                                                                                    
                                                                                                    
                                                                                                    
                                                                                                    
                                                                                                    
                                                                                                    
                                                                                                    
                                                                                                    
                                                                                                    
                                                                                                    
                                                                                                    
                                                                                                    
                                                                                                    
                                                                                                    
                           
<?xpacket end="w"?></metadata>
<defs>
    <style>
      .cls-1 {
        fill: #ff3b69;
        fill-rule: evenodd;
      }
    </style>
  </defs>
  <path id="pricing" class="cls-1" d="M1331.3,679.406l-3.99,4.968a1.216,1.216,0,0,0-.25.733v10.436l-11.99,33.218a1.171,1.171,0,0,0,.04.9,1.207,1.207,0,0,0,.68.606l33.45,11.663a1.227,1.227,0,0,0,.92-0.047,1.271,1.271,0,0,0,.62-0.7l4.28-11.927h8.67a1.2,1.2,0,0,0,1.27-1.115V685.107a1.232,1.232,0,0,0-.29-0.733l-7.2-8.916a1.275,1.275,0,0,0-.96-0.457h-21.13a1.21,1.21,0,0,0-.94.457l-1.49,1.849Zm2.86,0.242,1.84-2.289h19.97l6.63,8.159V726.9h-33.14V685.518l3.13-3.9Zm6.7,8.764a5.1,5.1,0,1,0,.26-2.4A6.593,6.593,0,0,0,1340.86,688.412Zm2.83-2.194a2.711,2.711,0,0,1,.98-0.872,3.148,3.148,0,0,1,2.55-.035h0a2.718,2.718,0,0,1,1.49,2.957,2.789,2.789,0,0,1-5.33.424A2.82,2.82,0,0,1,1343.69,686.218ZM1327.06,702.6v25.536a1.114,1.114,0,0,0,.34.806,1.155,1.155,0,0,0,.83.309h24.29l-3.61,10.028-31.18-10.859Zm27.83,16.326h-18.04a1.18,1.18,0,1,0,0,2.359h18.04A1.18,1.18,0,1,0,1354.89,718.928Zm0-7.779h-18.04a1.18,1.18,0,1,0,0,2.359h18.04A1.18,1.18,0,1,0,1354.89,711.149Zm0-8.206h-18.04a1.18,1.18,0,1,0,0,2.359h18.04A1.18,1.18,0,1,0,1354.89,702.943Z" transform="translate(-1315 -675)"/>
</svg>
