<svg xmlns="http://www.w3.org/2000/svg" width="67" height="67" viewBox="0 0 67 67">
  <metadata><?xpacket begin="﻿" id="W5M0MpCehiHzreSzNTczkc9d"?>
<x:xmpmeta xmlns:x="adobe:ns:meta/" x:xmptk="Adobe XMP Core 5.6-c138 79.159824, 2016/09/14-01:09:01        ">
   <rdf:RDF xmlns:rdf="http://www.w3.org/1999/02/22-rdf-syntax-ns#">
      <rdf:Description rdf:about=""/>
   </rdf:RDF>
</x:xmpmeta>
                                                                                                    
                                                                                                    
                                                                                                    
                                                                                                    
                                                                                                    
                                                                                                    
                                                                                                    
                                                                                                    
                                                                                                    
                                                                                                    
                                                                                                    
                                                                                                    
                                                                                                    
                                                                                                    
                                                                                                    
                                                                                                    
                                                                                                    
                                                                                                    
                                                                                                    
                                                                                                    
                           
<?xpacket end="w"?></metadata>
<defs>
    <style>
      .cls-1 {
        fill: #ff3b69;
        fill-rule: evenodd;
      }
    </style>
  </defs>
  <path id="services" class="cls-1" d="M1045.68,716.638a3.225,3.225,0,0,1-1.23-.254,3.193,3.193,0,0,1-1.73-1.75l-1.28-3.137a1.013,1.013,0,0,1-.01-0.783,1.045,1.045,0,0,1,.57-0.565,0.926,0.926,0,0,1,.38-0.08,1.023,1.023,0,0,1,.95.645l1.29,3.137a1.145,1.145,0,0,0,.62.631,1.186,1.186,0,0,0,.45.091,1.119,1.119,0,0,0,.44-0.091l3.38-1.406a1.174,1.174,0,0,0,.62-1.527l-1.28-3.133a1.061,1.061,0,0,1,.38-1.255,19.115,19.115,0,0,0,5.36-5.407,1.011,1.011,0,0,1,.85-0.454,0.99,0.99,0,0,1,.39.08l3.11,1.3a1.15,1.15,0,0,0,.44.086,1.134,1.134,0,0,0,1.07-.722l1.41-3.411a1.2,1.2,0,0,0-.01-0.894,1.145,1.145,0,0,0-.62-0.632l-3.11-1.294a1.066,1.066,0,0,1-.61-1.164,19.613,19.613,0,0,0,0-7.634,1.039,1.039,0,0,1,.61-1.161l3.11-1.3a1.17,1.17,0,0,0,.63-0.628,1.213,1.213,0,0,0-.01-0.9l-1.39-3.411a1.145,1.145,0,0,0-.62-0.631,1.186,1.186,0,0,0-.45-0.091,1.14,1.14,0,0,0-.43.088l-3.11,1.3a0.973,0.973,0,0,1-.38.076,1.049,1.049,0,0,1-.87-0.465,19.093,19.093,0,0,0-5.35-5.407,1.039,1.039,0,0,1-.37-1.256l1.28-3.135a1.169,1.169,0,0,0-.62-1.522l-3.39-1.423a1.157,1.157,0,0,0-1.51.636l-1.28,3.133a1.047,1.047,0,0,1-.96.635,0.942,0.942,0,0,1-.19-0.019,19.686,19.686,0,0,0-3.81-.377,18.708,18.708,0,0,0-3.75.378,1.1,1.1,0,0,1-.22.023,1,1,0,0,1-.93-0.639l-1.29-3.138a1.148,1.148,0,0,0-.62-0.631,1.184,1.184,0,0,0-.45-0.09,1.117,1.117,0,0,0-.44.09l-3.38,1.407a1.183,1.183,0,0,0-.63,1.519l1.29,3.14a1.051,1.051,0,0,1-.39,1.255,19.215,19.215,0,0,0-5.35,5.408,1.026,1.026,0,0,1-.85.453,1.077,1.077,0,0,1-.4-0.08l-3.1-1.3a1.221,1.221,0,0,0-.45-0.088,1.117,1.117,0,0,0-.44.09,1.178,1.178,0,0,0-.62.627L1014.97,683a1.17,1.17,0,0,0,.63,1.525l3.1,1.295a1.054,1.054,0,0,1,.57.557,1.036,1.036,0,0,1-.01.792,1.01,1.01,0,0,1-.94.646,1.027,1.027,0,0,1-.39-0.08l-3.11-1.3a3.24,3.24,0,0,1-1.73-4.22l1.41-3.415a3.185,3.185,0,0,1,4.18-1.752l2.34,0.981,0.16-.214a21.423,21.423,0,0,1,4.37-4.419l0.22-.16-0.97-2.367a3.242,3.242,0,0,1,1.73-4.22l3.38-1.408a3.233,3.233,0,0,1,1.23-.246,3.19,3.19,0,0,1,2.95,2l0.98,2.367,0.26-.039a21.237,21.237,0,0,1,6.18,0l0.27,0.039,0.97-2.367a3.182,3.182,0,0,1,4.18-1.751l3.38,1.421a3.168,3.168,0,0,1,1.73,1.752,3.2,3.2,0,0,1,0,2.469l-0.97,2.366,0.22,0.161a21.4,21.4,0,0,1,4.36,4.417l0.16,0.216,2.34-.981a3.146,3.146,0,0,1,1.22-.245,3.186,3.186,0,0,1,2.96,2l1.4,3.416a3.3,3.3,0,0,1,0,2.469,3.212,3.212,0,0,1-1.74,1.751l-2.34.981,0.04,0.265a22.515,22.515,0,0,1,0,6.244l-0.04.265,2.34,0.981a3.161,3.161,0,0,1,1.73,1.746,3.263,3.263,0,0,1,.01,2.475l-1.41,3.414a3.2,3.2,0,0,1-2.96,2,3.147,3.147,0,0,1-1.22-.246l-2.35-.98-0.15.214a21.463,21.463,0,0,1-4.38,4.418l-0.21.16,0.97,2.368a3.3,3.3,0,0,1,0,2.469,3.215,3.215,0,0,1-1.74,1.751l-3.38,1.408A3.155,3.155,0,0,1,1045.68,716.638Zm-7.21-14.945a1.026,1.026,0,0,1-1.03-1.022,1.056,1.056,0,0,1,.29-0.744,1,1,0,0,1,.73-0.306A8.814,8.814,0,0,0,1038.4,682h-0.06a8.613,8.613,0,0,0-6.15,2.626,8.829,8.829,0,0,0-2.51,6.252,1.059,1.059,0,0,1-.29.743,1,1,0,0,1-.72.305h-0.02a1.024,1.024,0,0,1-1.02-1.022,10.842,10.842,0,0,1,3.1-7.718,10.7,10.7,0,0,1,7.6-3.244h0.08a10.891,10.891,0,0,1,7.67,18.511,10.644,10.644,0,0,1-7.6,3.245h-0.01ZM1015.34,732a2.641,2.641,0,0,1-2.61-2.642v-1.641l-0.25-.068a15.334,15.334,0,0,1-3.71-1.555l-0.22-.133-1.15,1.163a2.577,2.577,0,0,1-3.69,0l-1.88-1.9a2.66,2.66,0,0,1,0-3.723l1.15-1.163-0.13-.229a15.328,15.328,0,0,1-1.54-3.737l-0.07-.254h-1.626A2.63,2.63,0,0,1,997,713.483v-2.691a2.63,2.63,0,0,1,2.614-2.639h1.626l0.07-.254a15.3,15.3,0,0,1,1.54-3.737l0.13-.229-1.15-1.163a2.66,2.66,0,0,1,0-3.723l1.88-1.9a2.526,2.526,0,0,1,1.84-.778,2.6,2.6,0,0,1,1.85.778l1.15,1.163,0.22-.133a15.334,15.334,0,0,1,3.71-1.555l0.25-.069v-1.643a2.627,2.627,0,0,1,2.61-2.639h2.67a2.627,2.627,0,0,1,2.61,2.639v1.643l0.25,0.069a15.263,15.263,0,0,1,3.7,1.555l0.23,0.133,1.15-1.163a2.549,2.549,0,0,1,1.85-.778,2.581,2.581,0,0,1,1.84.778l1.88,1.9a2.617,2.617,0,0,1,.77,1.861,2.66,2.66,0,0,1-.77,1.862l-1.15,1.163,0.13,0.229a16.14,16.14,0,0,1,1.54,3.737l0.06,0.254h1.63a2.636,2.636,0,0,1,2.62,2.639v2.691a2.636,2.636,0,0,1-2.62,2.639h-1.63l-0.06.254a16.158,16.158,0,0,1-1.54,3.737l-0.13.229,1.15,1.163a2.618,2.618,0,0,1,.77,1.862,2.658,2.658,0,0,1-.77,1.861l-1.88,1.9a2.547,2.547,0,0,1-1.84.778,2.59,2.59,0,0,1-1.85-.778l-1.15-1.163-0.23.133a15.263,15.263,0,0,1-3.7,1.555l-0.25.068v1.644a2.627,2.627,0,0,1-2.61,2.639h-2.67Zm-6.93-8.387a1.046,1.046,0,0,1,.57.182,14.138,14.138,0,0,0,4.98,2.111,1.033,1.033,0,0,1,.83,1.015v2.468a0.56,0.56,0,0,0,.56.567h2.67a0.56,0.56,0,0,0,.56-0.567v-2.468a1.035,1.035,0,0,1,.83-1.014,13.6,13.6,0,0,0,4.99-2.088,0.954,0.954,0,0,1,.56-0.178,1.037,1.037,0,0,1,.73.3l1.73,1.742a0.539,0.539,0,0,0,.39.171,0.557,0.557,0,0,0,.39-0.171l1.88-1.9a0.547,0.547,0,0,0,0-.793l-1.73-1.743a1.066,1.066,0,0,1-.12-1.308,13.8,13.8,0,0,0,2.07-5.031,1.019,1.019,0,0,1,1-.838h2.45a0.56,0.56,0,0,0,.56-0.567V710.82a0.56,0.56,0,0,0-.56-0.567h-2.45a1.02,1.02,0,0,1-1-.837,13.8,13.8,0,0,0-2.07-5.034,1.053,1.053,0,0,1,.12-1.307l1.73-1.742a0.549,0.549,0,0,0,0-.794l-1.88-1.9a0.532,0.532,0,0,0-.78,0l-1.73,1.743a1.025,1.025,0,0,1-.72.3,1.035,1.035,0,0,1-.58-0.174,13.478,13.478,0,0,0-4.98-2.086,1.033,1.033,0,0,1-.83-1.015v-2.467a0.561,0.561,0,0,0-.56-0.568h-2.67a0.561,0.561,0,0,0-.56.568v2.467a1.036,1.036,0,0,1-.83,1.015,13.533,13.533,0,0,0-4.98,2.087,0.979,0.979,0,0,1-.57.179,1.055,1.055,0,0,1-.73-0.3l-1.72-1.768a0.551,0.551,0,0,0-.39-0.173,0.562,0.562,0,0,0-.4.171l-1.88,1.9a0.571,0.571,0,0,0,0,.793l1.73,1.743a1.053,1.053,0,0,1,.12,1.308,13.762,13.762,0,0,0-2.06,5.031,1.038,1.038,0,0,1-1.01.838h-2.442a0.559,0.559,0,0,0-.562.567v2.691a0.559,0.559,0,0,0,.562.567h2.442a1.038,1.038,0,0,1,1.01.837,13.786,13.786,0,0,0,2.06,5.033,1.039,1.039,0,0,1-.12,1.307l-1.73,1.743a0.578,0.578,0,0,0,0,.793l1.88,1.9a0.542,0.542,0,0,0,.79,0l1.72-1.742A1.042,1.042,0,0,1,1008.41,723.613Zm8.27-3.6a7.854,7.854,0,1,1,7.76-7.853A7.826,7.826,0,0,1,1016.68,720.011Zm0-13.634a5.781,5.781,0,1,0,5.73,5.781A5.762,5.762,0,0,0,1016.68,706.377Z" transform="translate(-997 -665)"/>
</svg>
