<svg xmlns="http://www.w3.org/2000/svg" width="72" height="49" viewBox="0 0 72 49">
  <metadata><?xpacket begin="﻿" id="W5M0MpCehiHzreSzNTczkc9d"?>
<x:xmpmeta xmlns:x="adobe:ns:meta/" x:xmptk="Adobe XMP Core 5.6-c138 79.159824, 2016/09/14-01:09:01        ">
   <rdf:RDF xmlns:rdf="http://www.w3.org/1999/02/22-rdf-syntax-ns#">
      <rdf:Description rdf:about=""/>
   </rdf:RDF>
</x:xmpmeta>
                                                                                                    
                                                                                                    
                                                                                                    
                                                                                                    
                                                                                                    
                                                                                                    
                                                                                                    
                                                                                                    
                                                                                                    
                                                                                                    
                                                                                                    
                                                                                                    
                                                                                                    
                                                                                                    
                                                                                                    
                                                                                                    
                                                                                                    
                                                                                                    
                                                                                                    
                                                                                                    
                           
<?xpacket end="w"?></metadata>
<defs>
    <style>
      .cls-1 {
        fill: #ff3b69;
        fill-rule: evenodd;
      }
    </style>
  </defs>
  <path id="team" class="cls-1" d="M1370.95,540a1.261,1.261,0,0,1-1.26-1.253,20.745,20.745,0,0,0-41.49,0,1.26,1.26,0,0,1-2.52,0,23.265,23.265,0,0,1,46.53,0A1.255,1.255,0,0,1,1370.95,540Zm-22-22.55a13.225,13.225,0,1,1,13.29-13.225A13.272,13.272,0,0,1,1348.95,517.45Zm0-23.944a10.72,10.72,0,1,0,10.77,10.719A10.764,10.764,0,0,0,1348.95,493.506Zm-37.69,41.487a1.254,1.254,0,0,1-1.26-1.252c0-10.938,8.32-19.186,19.36-19.186a19.709,19.709,0,0,1,9.91,2.781,1.252,1.252,0,0,1-.63,2.338,1.264,1.264,0,0,1-.63-0.168,17.236,17.236,0,0,0-8.65-2.446,16.425,16.425,0,0,0-16.75,14.892l-0.06.536h12.17a1.253,1.253,0,1,1,0,2.5h-13.46Zm18.18-18.218a11.147,11.147,0,1,1,7.92-19.029,1.236,1.236,0,0,1,.37.887,1.241,1.241,0,0,1-1.26,1.252,1.229,1.229,0,0,1-.88-0.366,8.639,8.639,0,1,0,1,11.025,1.259,1.259,0,0,1,1.75-.315,1.267,1.267,0,0,1,.52.807,1.2,1.2,0,0,1-.21.935A11.223,11.223,0,0,1,1329.44,516.775Zm41.93,18.218a1.253,1.253,0,1,1,0-2.5h8.07l-0.06-.541a16.732,16.732,0,0,0-15.11-14.714,1.265,1.265,0,0,1-1.12-1.187,1.241,1.241,0,0,1,1.01-1.286,8.526,8.526,0,0,0,7.01-8.357c0-4.688-4.43-8.956-9.3-8.956a1.253,1.253,0,1,1,0-2.506c6.3,0,11.82,5.356,11.82,11.462a10.834,10.834,0,0,1-4.29,8.685l-0.7.533,0.82,0.311a19.436,19.436,0,0,1,9.01,6.937,18.7,18.7,0,0,1,3.47,10.872,1.254,1.254,0,0,1-1.26,1.252h-9.37Z" transform="translate(-1310 -491)"/>
</svg>
