<svg xmlns="http://www.w3.org/2000/svg" width="62" height="58" viewBox="0 0 62 58">
  <metadata><?xpacket begin="﻿" id="W5M0MpCehiHzreSzNTczkc9d"?>
<x:xmpmeta xmlns:x="adobe:ns:meta/" x:xmptk="Adobe XMP Core 5.6-c138 79.159824, 2016/09/14-01:09:01        ">
   <rdf:RDF xmlns:rdf="http://www.w3.org/1999/02/22-rdf-syntax-ns#">
      <rdf:Description rdf:about=""/>
   </rdf:RDF>
</x:xmpmeta>
                                                                                                    
                                                                                                    
                                                                                                    
                                                                                                    
                                                                                                    
                                                                                                    
                                                                                                    
                                                                                                    
                                                                                                    
                                                                                                    
                                                                                                    
                                                                                                    
                                                                                                    
                                                                                                    
                                                                                                    
                                                                                                    
                                                                                                    
                                                                                                    
                                                                                                    
                                                                                                    
                           
<?xpacket end="w"?></metadata>
<defs>
    <style>
      .cls-1 {
        fill: #ff3b69;
        fill-rule: evenodd;
      }
    </style>
  </defs>
  <path id="total_user" class="cls-1" d="M731.368,528.453l-10.1-4.464a2.078,2.078,0,0,1-.728-0.813l6.743-.006a11.7,11.7,0,0,0,5.126-.706,3.081,3.081,0,0,0,1.725-2.011,3.184,3.184,0,0,0-.44-2.661c-1.927-2.8-6.426-10.112-6.566-17.529,0-.128-0.41-12.742-12.617-12.845a14.251,14.251,0,0,0-4.97.9A8.82,8.82,0,0,0,708,485.725c-2.122-2.472-5.566-3.725-10.237-3.725s-8.116,1.253-10.239,3.723a9.591,9.591,0,0,0-2.161,6.881v5.609a4.249,4.249,0,0,0-1.034,2.768V505.2a4.23,4.23,0,0,0,1.547,3.279,22.328,22.328,0,0,0,3.62,7.631v3.49a2.8,2.8,0,0,1-1.423,2.446l-9.218,5.132A9.543,9.543,0,0,0,674,535.531V540h62v-3.9A8.524,8.524,0,0,0,731.368,528.453Zm-11.9,9.438h-43.4v-2.36a7.422,7.422,0,0,1,3.781-6.5l9.218-5.132a4.913,4.913,0,0,0,2.5-4.3v-4.238l-0.241-.294a20.04,20.04,0,0,1-3.524-7.45l-0.094-.418-0.352-.232a2.114,2.114,0,0,1-.956-1.768v-4.218a2.1,2.1,0,0,1,.692-1.556l0.341-.313v-6.567l-0.009-.139a7.433,7.433,0,0,1,1.659-5.294c1.712-1.994,4.634-3,8.684-3,4.035,0,6.951,1,8.665,2.982a6.893,6.893,0,0,1,1.5,3.024c0.017,0.074.032,0.146,0.047,0.219s0.03,0.15.041,0.222,0.025,0.16.036,0.238c0.009,0.056.017,0.113,0.023,0.167,0.016,0.13.028,0.257,0.036,0.374a0.244,0.244,0,0,1,0,.027c0.008,0.114.013,0.222,0.016,0.32,0,0.019,0,.035,0,0.054,0,0.087,0,.17,0,0.243v0.032c0,0.248-.021.395-0.021,0.4l-0.008,6.7,0.341,0.314a2.1,2.1,0,0,1,.692,1.555V505.2a2.093,2.093,0,0,1-1.469,2l-0.515.161-0.165.522a22.282,22.282,0,0,1-2.928,6.025,13.818,13.818,0,0,1-.865,1.137l-0.258.3v4.35a5.114,5.114,0,0,0,.066.786c0.009,0.054.023,0.107,0.034,0.162a4.974,4.974,0,0,0,.16.622c0.015,0.048.032,0.093,0.049,0.14a5.009,5.009,0,0,0,.284.638c0.013,0.024.024,0.048,0.037,0.071a4.768,4.768,0,0,0,.52.762l0.236,0.3h0.04a4.831,4.831,0,0,0,1.225.9l9.871,5.037a7.376,7.376,0,0,1,4.012,6.621v2.155Zm14.466,0h-12.4v-2.155a9.483,9.483,0,0,0-5.152-8.508l-7.086-3.617a1.838,1.838,0,0,0,.044-1.322,1.765,1.765,0,0,0-1.684-1.223h-2.291a2.683,2.683,0,0,1-.117-0.27,2.33,2.33,0,0,1-.247-1.1v-3.566c0.237-.295.486-0.631,0.743-1a24.337,24.337,0,0,0,3.052-6.116A4.189,4.189,0,0,0,711.2,505.2v-4.218a4.254,4.254,0,0,0-1.033-2.768v-5.609a9.5,9.5,0,0,0-.087-2.256,12.144,12.144,0,0,1,4.433-.823c10.169,0.086,10.54,10.346,10.55,10.779,0.152,8,4.9,15.741,6.941,18.7a1.042,1.042,0,0,1,.144.872,0.984,0.984,0,0,1-.553.649,9.979,9.979,0,0,1-4.212.541h-7.112a1.887,1.887,0,0,0-1.621.921,1.957,1.957,0,0,0-.088,1.881A4.368,4.368,0,0,0,720.4,525.9l10.072,4.452a6.421,6.421,0,0,1,3.465,5.749v1.79Z" transform="translate(-674 -482)"/>
</svg>
